<?xml version="1.0" standalone="no"?>
<!DOCTYPE svg PUBLIC "-//W3C//DTD SVG 1.1//EN" "http://www.w3.org/Graphics/SVG/1.1/DTD/svg11.dtd" >
<svg xmlns="http://www.w3.org/2000/svg" xmlns:xlink="http://www.w3.org/1999/xlink" version="1.1">
<metadata>
Created by FontForge 20201107 at Wed May  8 01:32:14 2019
 By Unknown
Copyright (c) Olivier Gourvat - Mostardesign Studio, 2014. All rights reserved. |DCNT
</metadata>
<defs>
<font id="FilsonPro-Regular" horiz-adv-x="603" >
  <font-face 
    font-family="Filson Pro"
    font-weight="400"
    font-stretch="normal"
    units-per-em="1000"
    panose-1="2 0 0 0 0 0 0 0 0 0"
    ascent="723"
    descent="-277"
    x-height="500"
    cap-height="700"
    bbox="-238 -293 1306 1021"
    underline-thickness="50"
    underline-position="-200"
    unicode-range="U+000D-FB04"
  />
<missing-glyph horiz-adv-x="673" 
d="M100 0v701h473v-701h-473zM284 257h60q0 31 12 40q1 1 20 12.5t28 18t26.5 22t26.5 29t17 34t8 42.5q0 59 -44 94.5t-110 35.5q-73 0 -110 -34.5t-37 -76.5q0 -26 9 -46h63q-8 18 -8 44q0 25 21.5 41t57.5 16q42 0 66 -20t24 -54v-2q0 -33 -20 -56t-67 -52
q-31 -17 -37 -31t-6 -57zM266 144q0 -21 14 -35t34 -14q21 0 35.5 14t14.5 35q0 20 -14.5 34.5t-35.5 14.5q-20 0 -34 -14.5t-14 -34.5z" />
    <glyph glyph-name="f_f" unicode="ff" horiz-adv-x="744" 
d="M422 630l-84 -26q-5 44 -62 44q-28 0 -47.5 -22.5t-19.5 -74.5v-51h272v38q0 195 166 195q71 0 110 -35t39 -91q0 -5 -1 -8q0 -10 -4 -19h-83q2 14 2 17q0 51 -62 51q-28 0 -47.5 -22.5t-19.5 -74.5v-51h131v-76h-131v-424h-100v424h-272v-424h-100v424h-79v76h79v38
q0 195 166 195q63 0 100.5 -28t46.5 -75z" />
    <glyph glyph-name="fi" unicode="fi" horiz-adv-x="643" 
d="M466 424h-257v-424h-100v424h-79v76h79v36q0 58 18 99t49.5 61t64 28.5t71.5 8.5q59 0 108.5 -28.5t67.5 -90.5l-86 -19q-20 55 -87 55q-106 0 -106 -114v-36h354v-500h-97v424z" />
    <glyph glyph-name="fl" unicode="fl" horiz-adv-x="629" 
d="M109 0v424h-79v76h79v36q0 58 21.5 99t57 61t71 28.5t75.5 8.5q53 0 115.5 -10t99.5 -24v-699h-97v633q-47 15 -115 15q-51 0 -89.5 -25t-38.5 -87v-36h131v-76h-131v-424h-100z" />
    <glyph glyph-name="f_f_i" unicode="ffi" horiz-adv-x="1015" 
d="M209 536v-36h272v36q0 58 18 99t49.5 61t64 28.5t71.5 8.5q59 0 108.5 -28.5t67.5 -90.5l-86 -19q-20 55 -87 55q-106 0 -106 -114v-36h354v-500h-97v424h-257v-424h-100v424h-272v-424h-100v424h-79v76h79v36q0 58 18 99t49.5 61t64 28.5t71.5 8.5q86 0 141 -61l-67 -55
q-29 33 -71 33q-106 0 -106 -114z" />
    <glyph glyph-name="f_f_l" unicode="ffl" horiz-adv-x="1001" 
d="M712 424h-131v-424h-100v424h-272v-424h-100v424h-79v76h79v36q0 58 18 99t49.5 61t64 28.5t71.5 8.5q90 0 141 -56l-67 -55q-24 28 -71 28q-106 0 -106 -114v-36h272v36q0 58 21.5 99t57 61t71 28.5t75.5 8.5q53 0 115.5 -10t99.5 -24v-699h-97v633q-47 15 -115 15
q-51 0 -89.5 -25t-38.5 -87v-36h131v-76z" />
    <glyph glyph-name="f_f_j" unicode="ffj" horiz-adv-x="1039" 
d="M862 -90v514h-281v-424h-100v424h-272v-424h-100v424h-79v76h79v36q0 58 18 99t49.5 61t64 28.5t71.5 8.5q90 0 141 -56l-67 -55q-24 28 -71 28q-106 0 -106 -114v-36h272v36q0 58 18 99t49.5 61t64 28.5t71.5 8.5q59 0 108.5 -28.5t67.5 -90.5l-86 -19q-20 55 -87 55
q-106 0 -106 -114v-36h378v-595q0 -67 -46 -103.5t-110 -36.5q-70 0 -109 35.5t-39 91.5q0 13 1 19q1 17 8 35h88q-8 -17 -8 -41q0 -26 16.5 -40.5t41.5 -14.5q26 0 43 15.5t17 44.5z" />
    <glyph glyph-name="f_j" unicode="fj" horiz-adv-x="667" 
d="M109 0v424h-79v76h79v36q0 58 18 99t49.5 61t64 28.5t71.5 8.5q59 0 108.5 -28.5t67.5 -90.5l-86 -19q-20 55 -87 55q-106 0 -106 -114v-36h378v-595q0 -67 -46 -103.5t-110 -36.5q-70 0 -109 35.5t-39 91.5q0 13 1 19q1 17 8 35h88q-8 -17 -8 -41q0 -26 16.5 -40.5
t41.5 -14.5q26 0 43 15.5t17 44.5v514h-281v-424h-100z" />
    <glyph glyph-name=".notdef" horiz-adv-x="673" 
d="M100 0v701h473v-701h-473zM284 257h60q0 31 12 40q1 1 20 12.5t28 18t26.5 22t26.5 29t17 34t8 42.5q0 59 -44 94.5t-110 35.5q-73 0 -110 -34.5t-37 -76.5q0 -26 9 -46h63q-8 18 -8 44q0 25 21.5 41t57.5 16q42 0 66 -20t24 -54v-2q0 -33 -20 -56t-67 -52
q-31 -17 -37 -31t-6 -57zM266 144q0 -21 14 -35t34 -14q21 0 35.5 14t14.5 35q0 20 -14.5 34.5t-35.5 14.5q-20 0 -34 -14.5t-14 -34.5z" />
    <glyph glyph-name=".null" horiz-adv-x="0" 
 />
    <glyph glyph-name="nonmarkingreturn" horiz-adv-x="333" 
 />
    <glyph glyph-name="NULL" horiz-adv-x="0" 
 />
    <glyph glyph-name="CR" unicode="&#xd;" horiz-adv-x="250" 
 />
    <glyph glyph-name="space" unicode=" " horiz-adv-x="264" 
 />
    <glyph glyph-name="exclam" unicode="!" horiz-adv-x="258" 
d="M185 700l-22 -481h-70l-22 481h114zM57 62q0 31 21 52.5t52 21.5t52.5 -21.5t21.5 -52.5t-21.5 -52t-52.5 -21t-52 21t-21 52z" />
    <glyph glyph-name="quotedbl" unicode="&#x22;" horiz-adv-x="436" 
d="M162 723l-10 -279h-76l-10 279h96zM370 723l-10 -279h-76l-10 279h96z" />
    <glyph glyph-name="numbersign" unicode="#" horiz-adv-x="754" 
d="M578 553h141l-20 -77h-140l-57 -233h141l-21 -77h-140l-42 -166h-86l42 166h-131l-42 -166h-85l41 166h-144l20 77h144l58 233h-144l20 77h142l39 147h84l-37 -147h131l38 147h85zM341 476l-56 -233h131l57 233h-132z" />
    <glyph glyph-name="dollar" unicode="$" horiz-adv-x="542" 
d="M306 -89h-59v105q-85 6 -140.5 50t-71.5 109l86 23q8 -38 42 -65t84 -32v212l-31 11q-152 48 -152 175q0 74 52 121t131 56v113h59v-114q71 -8 117 -48.5t59 -101.5l-82 -26q-18 77 -94 90v-203l34 -13q75 -23 116.5 -70.5t41.5 -101.5q0 -77 -52.5 -126t-139.5 -59v-105
zM311 290l-5 2v-190q46 8 71 32.5t25 61.5q0 34 -23.5 56t-67.5 38zM160 501q0 -17 4.5 -30t23.5 -30t54 -31l5 -2v182q-39 -6 -63 -29t-24 -60z" />
    <glyph glyph-name="percent" unicode="%" horiz-adv-x="888" 
d="M209 0l389 700h79l-389 -700h-79zM35 534q0 75 51 126t126 51t126 -51t51 -126q0 -74 -51 -124.5t-126 -50.5t-126 50.5t-51 124.5zM115 534q0 -45 27.5 -74t69.5 -29q43 0 70.5 29t27.5 74t-27.5 75t-70.5 30q-42 0 -69.5 -30t-27.5 -75zM499 164q0 75 51 126t126 51
t126 -51t51 -126q0 -74 -51 -124.5t-126 -50.5t-126 50.5t-51 124.5zM579 164q0 -45 27.5 -74t69.5 -29q43 0 70.5 29t27.5 74t-27.5 75t-70.5 30q-42 0 -69.5 -30t-27.5 -75z" />
    <glyph glyph-name="ampersand" unicode="&#x26;" horiz-adv-x="795" 
d="M442 152l-159 183q-56 -17 -100 -55.5t-44 -92.5q0 -51 42.5 -84.5t104.5 -33.5q93 0 156 83zM527 56l-29 33q-30 -47 -88 -73.5t-124 -26.5q-104 0 -174.5 52t-70.5 142q0 136 190 216q-36 28 -59 70t-23 84q0 43 19.5 75.5t49.5 49.5t60.5 25t58.5 8q71 0 120.5 -45.5
t49.5 -107.5q0 -55 -44 -104.5t-104 -75.5l135 -152l97 133h97v-9l-139 -186l49 -55q35 -35 73 -35q51 0 80 29l33 -67q-45 -47 -117 -47q-44 0 -75.5 16.5t-64.5 50.5zM309 431q104 53 104 124q0 31 -22.5 55t-60.5 24q-35 0 -59 -22.5t-24 -62.5q0 -62 62 -118z" />
    <glyph glyph-name="quotesingle" unicode="'" horiz-adv-x="228" 
d="M162 723l-10 -279h-76l-10 279h96z" />
    <glyph glyph-name="parenleft" unicode="(" horiz-adv-x="314" 
d="M229 761l62 -38q-149 -214 -149 -440q0 -75 15 -146t43 -130.5t46 -90.5t45 -72l-62 -37q-26 28 -53 66t-59 99t-52 143t-20 170q0 87 20 168.5t52 142t59 99.5t53 66z" />
    <glyph glyph-name="parenright" unicode=")" horiz-adv-x="314" 
d="M23 723l62 38q26 -27 53 -66t59 -99.5t52 -142t20 -168.5q0 -88 -20 -170t-52 -143t-59 -99t-53 -66l-62 37q27 41 45 72t46 90.5t43 130.5t15 146q0 226 -149 440z" />
    <glyph glyph-name="asterisk" unicode="*" horiz-adv-x="460" 
d="M152 368l-61 44l88 110l-136 38l24 72l130 -50l-7 141h78l-7 -141l131 50l25 -71l-137 -38l89 -110l-61 -45l-77 117z" />
    <glyph glyph-name="plus" unicode="+" horiz-adv-x="548" 
d="M317 74h-85v191h-191v85h191v190h85v-190h190v-85h-190v-191z" />
    <glyph glyph-name="comma" unicode="," horiz-adv-x="255" 
d="M75 -130l-19 36q40 13 59 45.5t19 65.5q-33 -11 -54.5 6t-21.5 44q-1 28 17.5 46t52.5 18q37 0 53 -26.5t16 -55.5q0 -64 -31.5 -112.5t-90.5 -66.5z" />
    <glyph glyph-name="hyphen" unicode="-" horiz-adv-x="468" 
d="M67 261v89h334v-89h-334z" />
    <glyph glyph-name="period" unicode="." horiz-adv-x="259" 
d="M56 62q0 31 21 52.5t52 21.5t52.5 -21.5t21.5 -52.5t-21.5 -52t-52.5 -21t-52 21t-21 52z" />
    <glyph glyph-name="slash" unicode="/" horiz-adv-x="530" 
d="M504 735l-381 -774h-97l380 774h98z" />
    <glyph glyph-name="zero" unicode="0" horiz-adv-x="707" 
d="M655 350q0 -154 -82.5 -257.5t-219.5 -103.5t-219 103.5t-82 257.5q0 155 82 258.5t219 103.5t219.5 -104t82.5 -258zM558 350q0 118 -55.5 197t-149.5 79q-93 0 -148.5 -79t-55.5 -197q0 -117 55.5 -196t148.5 -79t149 78.5t56 196.5z" />
    <glyph glyph-name="one" unicode="1" horiz-adv-x="373" 
d="M41 511l-25 81l232 108h49v-700h-97v582z" />
    <glyph glyph-name="two" unicode="2" horiz-adv-x="608" 
d="M203 82v-4q45 4 158 4h204v-82h-502l-13 64l291 263q99 85 99 166q0 62 -40 97t-107 35q-79 0 -112 -35.5t-33 -80.5h-99q0 32 12 65t38.5 65t76.5 52t117 20q112 0 178 -58.5t66 -157.5q0 -73 -33 -124t-95 -106z" />
    <glyph glyph-name="three" unicode="3" horiz-adv-x="608" 
d="M277 77q86 0 134 47t48 105q0 60 -45.5 100t-112.5 40q-64 0 -101 -33l-48 57l230 225h-318v82h469v-61l-212 -195q94 0 164.5 -57.5t70.5 -156.5q0 -104 -74.5 -172.5t-204.5 -68.5q-153 0 -242 81l57 64q46 -34 85.5 -45.5t99.5 -11.5z" />
    <glyph glyph-name="four" unicode="4" horiz-adv-x="671" 
d="M145 271h248v268zM393 188h-370v65l407 447h60v-429h153v-83h-153v-188h-97v188z" />
    <glyph glyph-name="five" unicode="5" horiz-adv-x="601" 
d="M48 70l57 64q22 -22 79.5 -39.5t102.5 -17.5q88 0 133.5 44.5t45.5 112.5q0 58 -43 101t-122 43q-93 0 -164 -52l-69 31l22 343h419v-82h-331l-17 -207q57 55 153 55q111 0 178.5 -68.5t67.5 -163.5q0 -111 -72.5 -178t-202.5 -67q-74 0 -136.5 23t-100.5 58z" />
    <glyph glyph-name="six" unicode="6" horiz-adv-x="630" 
d="M152 357q67 99 192 99q102 0 174 -65t72 -169q0 -102 -71 -167.5t-182 -65.5q-132 0 -208 94.5t-76 250.5q0 163 78.5 270t217.5 107q124 0 195 -78l-65 -59q-19 23 -55 36t-74 13q-86 0 -142 -72.5t-56 -193.5zM163 223q0 -64 50.5 -105t118.5 -41t114 40.5t46 105.5
t-46 105.5t-114 40.5t-118.5 -41t-50.5 -105z" />
    <glyph glyph-name="seven" unicode="7" horiz-adv-x="545" 
d="M30 618v82h502v-68l-350 -632h-107l351 618h-396z" />
    <glyph glyph-name="eight" unicode="8" horiz-adv-x="658" 
d="M329 75q80 0 130.5 37.5t50.5 92.5q0 53 -46.5 90t-130.5 37h-8q-84 0 -130.5 -36.5t-46.5 -90.5q0 -55 50.5 -92.5t130.5 -37.5zM329 -11q-120 0 -199.5 62.5t-79.5 153.5q0 54 38 101t99 69q-48 21 -77.5 60t-29.5 84q0 82 70.5 137t178.5 55t178.5 -55t70.5 -137
q0 -45 -29.5 -84t-77.5 -60q61 -22 99 -69t38 -101q0 -91 -79.5 -153.5t-199.5 -62.5zM329 625q-68 0 -109.5 -30t-41.5 -76t38.5 -80.5t108.5 -34.5h7q69 0 108.5 34.5t39.5 80.5t-41.5 76t-109.5 30z" />
    <glyph glyph-name="nine" unicode="9" horiz-adv-x="626" 
d="M480 358q-28 -60 -81.5 -87t-111.5 -27q-102 0 -174 65t-72 169q0 102 71 167.5t182 65.5q132 0 205.5 -94t73.5 -251q0 -163 -78.5 -270t-217.5 -107q-124 0 -195 78l65 59q19 -23 55 -36t74 -13q90 0 147 79t57 202zM463 477q0 64 -47.5 105t-116.5 41
q-68 0 -114 -40.5t-46 -105.5t46 -105.5t114 -40.5q69 0 116.5 41t47.5 105z" />
    <glyph glyph-name="colon" unicode=":" horiz-adv-x="281" 
d="M67 62q0 31 21 52.5t52 21.5t52.5 -21.5t21.5 -52.5t-21.5 -52t-52.5 -21t-52 21t-21 52zM67 437q0 31 21 52.5t52 21.5t52.5 -21.5t21.5 -52.5t-21.5 -52t-52.5 -21t-52 21t-21 52z" />
    <glyph glyph-name="semicolon" unicode=";" horiz-adv-x="278" 
d="M66 437q0 31 21 52.5t52 21.5t52.5 -21.5t21.5 -52.5t-21.5 -52t-52.5 -21t-52 21t-21 52zM86 -130l-19 36q40 13 59 45.5t19 65.5q-33 -11 -54.5 6t-21.5 44q-1 28 17 46t53 18q37 0 53 -26.5t16 -55.5q0 -64 -31.5 -112.5t-90.5 -66.5z" />
    <glyph glyph-name="less" unicode="&#x3c;" horiz-adv-x="573" 
d="M38 230v88l474 196v-87l-392 -153l392 -153v-87z" />
    <glyph glyph-name="equal" unicode="=" horiz-adv-x="608" 
d="M537 160h-466v85h466v-85zM537 426h-466v85h466v-85z" />
    <glyph glyph-name="greater" unicode="&#x3e;" horiz-adv-x="573" 
d="M535 318v-88l-474 -196v87l392 153l-392 153v87z" />
    <glyph glyph-name="question" unicode="?" horiz-adv-x="524" 
d="M278 219h-90q0 66 9 85.5t55 46.5q69 41 100 77t31 85v3q0 51 -36 81t-99 30q-57 0 -89 -25.5t-32 -70.5q0 -16 4 -31h-87q-8 18 -8 45q0 28 12 56t36.5 53t68 41t100.5 16q100 0 166 -53.5t66 -141.5q0 -28 -7.5 -53.5t-22.5 -47.5t-29 -39t-36.5 -34t-35 -26t-34 -22.5
t-24.5 -15.5q-12 -8 -15 -19t-3 -40zM160 62q0 31 21 52.5t52 21.5t52.5 -21.5t21.5 -52.5t-21.5 -52t-52.5 -21t-52 21t-21 52z" />
    <glyph glyph-name="at" unicode="@" horiz-adv-x="1035" 
d="M772 45q62 2 97.5 59.5t35.5 175.5q0 161 -107.5 264.5t-278.5 103.5q-170 0 -282.5 -116t-112.5 -289t105.5 -288t272.5 -115q122 0 201 39l34 -66q-101 -48 -235 -48q-202 0 -329 135t-127 343q0 207 134.5 343.5t338.5 136.5q207 0 335.5 -123.5t128.5 -319.5
q0 -157 -56 -230t-155 -73q-132 0 -132 131q-21 -43 -69 -67t-98 -24q-92 0 -151 65.5t-59 160.5t60 160t154 65q101 0 157 -84v74h84v-350q0 -31 15.5 -47.5t38.5 -15.5zM347 243q0 -65 39.5 -108.5t103.5 -43.5q63 0 103 41t40 109q0 67 -40 110t-105 43t-103 -43
t-38 -108z" />
    <glyph glyph-name="A" unicode="A" horiz-adv-x="681" 
d="M200 226h282l-142 378zM512 145h-342l-54 -145h-103l269 700h116l270 -700h-101z" />
    <glyph glyph-name="B" unicode="B" horiz-adv-x="658" 
d="M578 520q0 -58 -34 -101.5t-100 -60.5q81 -8 124.5 -56t43.5 -116q0 -84 -64.5 -135t-168.5 -51h-281v700h249q102 0 166.5 -48.5t64.5 -131.5zM328 313h-130v-231h181q58 0 94 29.5t36 77.5q0 53 -45.5 88.5t-135.5 35.5zM198 391h109q86 0 127 35.5t41 86.5
q0 49 -37 77t-91 28h-149v-227z" />
    <glyph glyph-name="C" unicode="C" horiz-adv-x="683" 
d="M46 350q0 152 102.5 256.5t275.5 104.5q131 0 231 -75l-39 -75q-81 60 -192 60q-127 0 -201.5 -78t-74.5 -193t74.5 -193t201.5 -78q111 0 192 60l39 -75q-100 -75 -231 -75q-173 0 -275.5 104.5t-102.5 256.5z" />
    <glyph glyph-name="D" unicode="D" horiz-adv-x="728" 
d="M579 350q0 114 -70.5 191t-187.5 77h-123v-536h123q117 0 187.5 77t70.5 191zM681 350q0 -149 -98 -249.5t-262 -100.5h-223v700h223q164 0 262 -100.5t98 -249.5z" />
    <glyph glyph-name="E" unicode="E" horiz-adv-x="592" 
d="M543 82v-82h-445v700h445v-82h-345v-234h301v-82h-301v-220h345z" />
    <glyph glyph-name="F" unicode="F" horiz-adv-x="580" 
d="M198 0h-100v700h445v-82h-345v-234h301v-82h-301v-302z" />
    <glyph glyph-name="G" unicode="G" horiz-adv-x="735" 
d="M409 621q-108 0 -184.5 -79t-76.5 -193q0 -110 72.5 -190t202.5 -80q92 0 165 47v143h-197v81h288v-263q-108 -98 -261 -98q-159 0 -265.5 104.5t-106.5 254.5q0 151 106.5 257t256.5 106q152 0 255 -77l-39 -77q-46 30 -88 45t-65 17t-63 2z" />
    <glyph glyph-name="H" unicode="H" horiz-adv-x="723" 
d="M525 293h-327v-293h-100v700h100v-326h327v326h100v-700h-100v293z" />
    <glyph glyph-name="I" unicode="I" horiz-adv-x="296" 
d="M198 700v-700h-100v700h100z" />
    <glyph glyph-name="J" unicode="J" horiz-adv-x="666" 
d="M580 700v-383q0 -160 -74 -244t-212 -84q-132 0 -198 73.5t-66 178.5q0 16 5.5 44t13.5 42h95q-17 -42 -17 -81q0 -71 41.5 -119t124.5 -48q92 0 139.5 62t47.5 176v383h100z" />
    <glyph glyph-name="K" unicode="K" horiz-adv-x="635" 
d="M197 358l247 342h108v-11l-258 -352l131 -177q61 -84 111 -84q42 0 74 26l36 -70q-17 -21 -54 -32t-67 -11q-36 0 -67.5 12.5t-56.5 37.5t-37 40.5t-31 43.5l-136 188v-311h-100v700h100v-342z" />
    <glyph glyph-name="L" unicode="L" horiz-adv-x="533" 
d="M518 82v-82h-420v700h100v-618h320z" />
    <glyph glyph-name="M" unicode="M" horiz-adv-x="956" 
d="M441 9l-225 543l-48 -552h-101l66 700h112l233 -558l233 558h112l66 -700h-101l-48 552l-225 -543h-74z" />
    <glyph glyph-name="N" unicode="N" horiz-adv-x="754" 
d="M582 0l-384 518v-518h-100v700h74l383 -516v516h101v-700h-74z" />
    <glyph glyph-name="O" unicode="O" horiz-adv-x="818" 
d="M46 350q0 149 106.5 255t256.5 106t256.5 -106t106.5 -255t-106.5 -255t-256.5 -106t-256.5 106t-106.5 255zM148 350q0 -115 76 -193t185 -78t185 78t76 193t-76 193t-185 78t-185 -78t-76 -193z" />
    <glyph glyph-name="P" unicode="P" horiz-adv-x="624" 
d="M198 0h-100v700h280q97 0 154 -64t57 -156q0 -91 -57.5 -153t-153.5 -62h-180v-265zM198 345h159q59 0 93.5 37.5t34.5 98.5q0 62 -34.5 99.5t-93.5 37.5h-159v-273z" />
    <glyph glyph-name="Q" unicode="Q" horiz-adv-x="817" 
d="M147 350q0 -115 76 -193t185 -78t185 78t76 193t-76 193t-185 78t-185 -78t-76 -193zM471 -5q21 -100 125 -100q21 0 50.5 9.5t44.5 22.5l36 -72q-56 -43 -136 -43q-172 0 -217 179q-139 12 -234 115.5t-95 243.5q0 149 106.5 255t256.5 106t256.5 -106t106.5 -255
q0 -132 -85.5 -232.5t-214.5 -122.5z" />
    <glyph glyph-name="R" unicode="R" horiz-adv-x="685" 
d="M197 0h-100v700h292q97 0 154 -64t57 -156q0 -80 -43.5 -137.5t-121.5 -73.5q7 -68 43.5 -131.5t89.5 -63.5q50 0 82 32l35 -68q-46 -49 -123 -49q-58 0 -102 30t-68 77t-36 89t-16 80h-143v-265zM197 345h171q59 0 93.5 37.5t34.5 98.5q0 62 -34.5 99.5t-93.5 37.5h-171
v-273z" />
    <glyph glyph-name="S" unicode="S" horiz-adv-x="580" 
d="M33 164l94 24q10 -46 54 -78t108 -32q68 0 108 30t40 77q0 72 -103 110l-105 36q-162 53 -162 187q0 87 66 140t159 53q92 0 152.5 -45.5t76.5 -120.5l-90 -27q-25 103 -139 103q-52 0 -88 -27.5t-36 -73.5q0 -19 5 -33t26.5 -33t59.5 -34l106 -40q82 -25 126 -77.5
t44 -110.5q0 -93 -66.5 -148t-177.5 -55q-101 0 -170 49.5t-88 125.5z" />
    <glyph glyph-name="T" unicode="T" horiz-adv-x="602" 
d="M18 700h566v-82h-233v-618h-100v618h-233v82z" />
    <glyph glyph-name="U" unicode="U" horiz-adv-x="730" 
d="M542 700h100v-441q0 -127 -79.5 -198.5t-197.5 -71.5t-197.5 71.5t-79.5 198.5v441h100v-441q0 -87 50.5 -133.5t126.5 -46.5t126.5 46.5t50.5 133.5v441z" />
    <glyph glyph-name="V" unicode="V" horiz-adv-x="640" 
d="M371 0h-102l-244 700h102l193 -577l193 577h102z" />
    <glyph glyph-name="W" unicode="W" horiz-adv-x="994" 
d="M456 677h82l158 -509l167 532h100l-218 -700h-86l-162 526l-162 -526h-86l-218 700h100l167 -532z" />
    <glyph glyph-name="X" unicode="X" horiz-adv-x="702" 
d="M351 291l-236 -291h-114v11l292 360l-261 318v11h110l209 -255l209 255h110v-11l-261 -318l292 -360v-11h-114z" />
    <glyph glyph-name="Y" unicode="Y" horiz-adv-x="678" 
d="M289 288l-265 401v11h110l204 -327l206 327h110v-11l-265 -401v-288h-100v288z" />
    <glyph glyph-name="Z" unicode="Z" horiz-adv-x="643" 
d="M611 82v-82h-581v76l426 542h-400v82h532v-76l-430 -542h453z" />
    <glyph glyph-name="bracketleft" unicode="[" horiz-adv-x="327" 
d="M73 -197v939h229v-76h-140v-787h140v-76h-229z" />
    <glyph glyph-name="backslash" unicode="\" horiz-adv-x="530" 
d="M407 -39l-381 774h98l380 -774h-97z" />
    <glyph glyph-name="bracketright" unicode="]" horiz-adv-x="327" 
d="M254 742v-939h-229v76h140v787h-140v76h229z" />
    <glyph glyph-name="asciicircum" unicode="^" horiz-adv-x="515" 
d="M469 373h-91l-121 254l-121 -254h-90l175 350h73z" />
    <glyph glyph-name="underscore" unicode="_" horiz-adv-x="705" 
d="M0 -143v89h705v-89h-705z" />
    <glyph glyph-name="grave" unicode="`" horiz-adv-x="502" 
d="M129 723h109l87 -150h-85z" />
    <glyph glyph-name="a" unicode="a" horiz-adv-x="643" 
d="M40 250q0 110 69 185.5t179 75.5q117 0 181 -91v80h97v-500h-97v80q-64 -91 -181 -91q-110 0 -179 75.5t-69 185.5zM471 250q0 76 -48 125.5t-123 49.5t-119 -50.5t-44 -124.5t44 -124.5t119 -50.5t123 49.5t48 125.5z" />
    <glyph glyph-name="b" unicode="b" horiz-adv-x="644" 
d="M603 250q0 -110 -69 -185.5t-179 -75.5q-117 0 -181 91v-80h-97v723h97v-303q64 91 181 91q110 0 179 -75.5t69 -185.5zM172 250q0 -76 48.5 -125.5t122.5 -49.5q75 0 119 50.5t44 124.5t-44 124.5t-119 50.5q-74 0 -122.5 -49.5t-48.5 -125.5z" />
    <glyph glyph-name="c" unicode="c" horiz-adv-x="528" 
d="M40 244q0 115 75 191t206 76q98 0 179 -61l-46 -66q-54 41 -129 41q-81 0 -134.5 -49t-53.5 -126t53.5 -126t134.5 -49q75 0 129 41l46 -66q-81 -61 -179 -61q-129 0 -205 73t-76 182z" />
    <glyph glyph-name="d" unicode="d" horiz-adv-x="644" 
d="M41 250q0 110 69 185.5t179 75.5q117 0 181 -91v303h97v-723h-97v80q-64 -91 -181 -91q-110 0 -179 75.5t-69 185.5zM472 250q0 76 -48 125.5t-123 49.5t-119 -50.5t-44 -124.5t44 -124.5t119 -50.5t123 49.5t48 125.5z" />
    <glyph glyph-name="e" unicode="e" horiz-adv-x="595" 
d="M486 138l54 -56q-83 -93 -219 -93q-127 0 -204.5 75t-77.5 184q0 111 76.5 187t192.5 76q107 0 181 -69.5t74 -200.5h-427q-2 -72 50.5 -119t135.5 -47q90 0 164 63zM310 426q-52 0 -97.5 -25.5t-67.5 -84.5h318q-33 110 -153 110z" />
    <glyph glyph-name="f" unicode="f" horiz-adv-x="372" 
d="M209 551v-51h131v-76h-131v-424h-100v424h-79v76h79v38q0 195 166 195q71 0 110 -35t39 -91q0 -5 -1 -8q0 -10 -4 -19h-83q2 14 2 17q0 51 -62 51q-28 0 -47.5 -22.5t-19.5 -74.5z" />
    <glyph glyph-name="g" unicode="g" horiz-adv-x="643" 
d="M566 500v-496q0 -118 -75 -178.5t-186 -60.5q-125 0 -214 72l39 76q73 -63 175 -63q75 0 119.5 42t44.5 121v67q-64 -91 -181 -91q-110 0 -179 75.5t-69 185.5t69 185.5t179 75.5q117 0 181 -91v80h97zM471 250q0 76 -48 125.5t-123 49.5t-119 -50.5t-44 -124.5
t44 -124.5t119 -50.5t123 49.5t48 125.5z" />
    <glyph glyph-name="h" unicode="h" 
d="M437 0v282q0 74 -29 108.5t-73 34.5q-23 0 -47.5 -8.5t-51.5 -28.5t-44.5 -60.5t-17.5 -95.5v-232h-97v723h97v-323q16 53 60.5 82t107.5 29q86 0 139 -57t53 -172v-282h-97z" />
    <glyph glyph-name="i" unicode="i" horiz-adv-x="257" 
d="M177 0v500h-97v-500h97zM61 661q0 29 19 48.5t48 19.5t48.5 -19.5t19.5 -48.5t-19.5 -48t-48.5 -19t-48 19t-19 48z" />
    <glyph glyph-name="j" unicode="j" horiz-adv-x="294" 
d="M117 500v-590q0 -29 -17 -44.5t-43 -15.5q-25 0 -41.5 14.5t-16.5 40.5q0 24 8 41h-88q-7 -18 -8 -35q-1 -6 -1 -19q0 -56 39 -91.5t109 -35.5q64 0 110 36.5t46 103.5v595h-97zM98 661q0 29 19 48.5t48 19.5t48.5 -19.5t19.5 -48.5t-19.5 -48t-48.5 -19t-48 19t-19 48z
" />
    <glyph glyph-name="k" unicode="k" horiz-adv-x="539" 
d="M173 290l172 210h108v-11l-183 -219l85 -129q2 -3 11.5 -16t11.5 -15.5t9.5 -11.5t11.5 -11t11.5 -6.5t15.5 -5.5t17 -1q42 0 65 19l33 -65q-39 -39 -109 -39q-23 0 -43.5 6t-33 11.5t-28 21t-20.5 21t-18.5 25.5t-14.5 21l-101 162v-257h-97v723h97v-433z" />
    <glyph glyph-name="l" unicode="l" horiz-adv-x="257" 
d="M177 723v-723h-97v723h97z" />
    <glyph glyph-name="m" unicode="m" horiz-adv-x="926" 
d="M418 0v282q0 74 -29 108.5t-73 34.5q-22 0 -44.5 -8.5t-45.5 -28.5t-37.5 -60.5t-14.5 -95.5v-232h-97v500h97v-100q15 53 58.5 82t101.5 29q112 0 159 -105q48 105 170 105q193 0 193 -229v-282h-97v282q0 74 -29 108.5t-73 34.5q-21 0 -42 -7.5t-44 -25.5t-38.5 -56.5
t-17.5 -92.5v-243h-97z" />
    <glyph glyph-name="n" unicode="n" horiz-adv-x="604" 
d="M437 0v282q0 74 -29 108.5t-73 34.5q-23 0 -47.5 -8.5t-51.5 -28.5t-44.5 -60.5t-17.5 -95.5v-232h-97v500h97v-100q16 53 60.5 82t107.5 29q86 0 139 -57t53 -172v-282h-97z" />
    <glyph glyph-name="o" unicode="o" 
d="M39 250q0 108 77 184.5t185 76.5q109 0 186 -76.5t77 -184.5t-77 -184.5t-186 -76.5q-108 0 -185 76.5t-77 184.5zM136 249q0 -72 48.5 -123t116.5 -51q69 0 117.5 51t48.5 123t-48.5 124t-117.5 52q-68 0 -116.5 -52t-48.5 -124z" />
    <glyph glyph-name="p" unicode="p" horiz-adv-x="643" 
d="M603 250q0 -110 -69 -185.5t-179 -75.5q-117 0 -181 91v-304h-97v724h97v-80q64 91 181 91q110 0 179 -75.5t69 -185.5zM172 250q0 -76 48.5 -125.5t122.5 -49.5q75 0 119 50.5t44 124.5t-44 124.5t-119 50.5q-74 0 -122.5 -49.5t-48.5 -125.5z" />
    <glyph glyph-name="q" unicode="q" horiz-adv-x="643" 
d="M40 250q0 110 69 185.5t179 75.5q117 0 181 -91v80h97v-724h-97v304q-64 -91 -181 -91q-110 0 -179 75.5t-69 185.5zM471 250q0 76 -48 125.5t-123 49.5t-119 -50.5t-44 -124.5t44 -124.5t119 -50.5t123 49.5t48 125.5z" />
    <glyph glyph-name="r" unicode="r" horiz-adv-x="366" 
d="M174 500v-113q12 59 49 91.5t85 32.5q22 0 46 -11v-95q-23 13 -53 13q-13 0 -26 -3t-32.5 -17t-33.5 -36.5t-24.5 -67.5t-10.5 -105v-189h-97v500h97z" />
    <glyph glyph-name="s" unicode="s" horiz-adv-x="441" 
d="M388 392l-86 -19q-20 55 -78 55q-33 0 -53.5 -18t-20.5 -46q0 -39 60 -60l72 -24q120 -37 120 -141q0 -69 -52 -109.5t-128 -40.5q-69 0 -122.5 34.5t-70.5 96.5l86 21q9 -30 39.5 -49.5t68.5 -19.5t62 19.5t24 48.5q0 24 -16.5 38.5t-46.5 24.5l-67 23q-123 37 -123 136
q0 64 46 106.5t119 42.5q57 0 103 -28t64 -91z" />
    <glyph glyph-name="t" unicode="t" horiz-adv-x="419" 
d="M198 424v-273q0 -77 60 -77q25 0 43 14.5t18 40.5q0 24 -8 41h85q7 -18 8 -34q1 -7 1 -20q0 -56 -39 -91.5t-109 -35.5q-67 0 -111.5 40t-44.5 129v266h-82v76h82l22 144h75v-144h159v-76h-159z" />
    <glyph glyph-name="u" unicode="u" 
d="M166 500v-282q0 -74 29 -108.5t73 -34.5q23 0 47.5 8.5t51.5 28.5t44.5 60.5t17.5 95.5v232h97v-500h-97v100q-16 -53 -60.5 -82t-107.5 -29q-86 0 -139 57t-53 172v282h97z" />
    <glyph glyph-name="v" unicode="v" horiz-adv-x="542" 
d="M519 500l-193 -500h-110l-193 500h102l146 -393l146 393h102z" />
    <glyph glyph-name="w" unicode="w" horiz-adv-x="822" 
d="M256 130l114 355h82l114 -355l130 370h101l-181 -500h-92l-113 348l-113 -348h-92l-181 500h101z" />
    <glyph glyph-name="x" unicode="x" horiz-adv-x="576" 
d="M453 0l-165 199l-165 -199h-115l215 259l-201 241h109l157 -185l157 185h109l-201 -241l215 -259h-115z" />
    <glyph glyph-name="y" unicode="y" horiz-adv-x="554" 
d="M282 127l142 373h113l-307 -724h-94l93 241l-211 483h111z" />
    <glyph glyph-name="z" unicode="z" horiz-adv-x="557" 
d="M525 0h-495v61l338 361h-316v78h452v-61l-338 -361h360z" />
    <glyph glyph-name="braceleft" unicode="{" horiz-adv-x="322" 
d="M154 276v-4v-4q32 -5 48.5 -31.5t16.5 -59.5t-29.5 -112t-29.5 -122q0 -72 62 -72q31 0 64 4v-67q-50 -6 -73 -6q-62 0 -104 33.5t-42 98.5q0 45 30.5 137t34.5 112q2 14 2 17q0 29 -42 37l-51 9v52l51 9q42 8 42 37q0 3 -2 17q-4 18 -34.5 111t-30.5 138q0 66 42 99
t104 33q23 0 73 -6v-67q-33 4 -64 4q-62 0 -62 -72q0 -43 29.5 -122t29.5 -112t-16.5 -59.5t-48.5 -31.5z" />
    <glyph glyph-name="bar" unicode="|" horiz-adv-x="227" 
d="M73 -224v989h81v-989h-81z" />
    <glyph glyph-name="braceright" unicode="}" horiz-adv-x="322" 
d="M168 268v4v4q-32 5 -48.5 31.5t-16.5 59.5t29.5 112t29.5 122q0 72 -62 72q-31 0 -64 -4v67q50 6 73 6q62 0 104 -33t42 -99q0 -45 -30.5 -138t-34.5 -111q-2 -14 -2 -17q0 -29 42 -37l51 -9v-52l-51 -9q-42 -8 -42 -37q0 -3 2 -17q4 -20 34.5 -112t30.5 -137
q0 -65 -42 -98.5t-104 -33.5q-23 0 -73 6v67q33 -4 64 -4q62 0 62 72q0 43 -29.5 122t-29.5 112t16.5 59.5t48.5 31.5z" />
    <glyph glyph-name="asciitilde" unicode="~" horiz-adv-x="620" 
d="M505 384l51 -58q-15 -49 -51.5 -78t-85.5 -29q-45 0 -110.5 44.5t-104.5 44.5q-29 0 -53.5 -19t-35.5 -53l-49 60q12 44 48 74t87 30q37 0 76.5 -22t75 -44.5t62.5 -22.5q62 0 90 73z" />
    <glyph glyph-name="uni00A0" unicode="&#xa0;" horiz-adv-x="264" 
 />
    <glyph glyph-name="exclamdown" unicode="&#xa1;" horiz-adv-x="246" 
d="M179 -200l-22 481h-70l-22 -481h114zM51 438q0 31 21 52t52 21t52.5 -21t21.5 -52t-21.5 -52.5t-52.5 -21.5t-52 21.5t-21 52.5z" />
    <glyph glyph-name="cent" unicode="&#xa2;" horiz-adv-x="554" 
d="M260 -109h-57l20 113q-84 26 -130 90.5t-46 149.5q0 112 71.5 187.5t196.5 79.5l18 95h57l-18 -99q75 -13 135 -57l-46 -66q-44 32 -104 39l-63 -345q18 -3 38 -3q75 0 129 41l46 -66q-81 -61 -179 -61q-29 0 -50 4zM144 250q0 -109 96 -155l59 328q-69 -10 -112 -57
t-43 -116z" />
    <glyph glyph-name="sterling" unicode="&#xa3;" horiz-adv-x="636" 
d="M591 0h-551v82q43 0 73.5 8.5t47 20t26 30.5t11.5 34.5t2 37.5q0 32 -14 79h-126v58h105q-46 112 -46 166q0 88 66 141.5t166 53.5q109 0 164.5 -52t55.5 -118h-96q0 39 -32 62.5t-87 23.5q-63 0 -99 -30t-36 -81q0 -8 1 -17t1.5 -16t3 -17.5t3.5 -16t4.5 -17t5 -15.5
t6 -17t5.5 -16t6.5 -17.5t6.5 -16.5h190v-58h-170q15 -48 15 -84q0 -98 -73 -126v-3q29 3 139 3h226v-82z" />
    <glyph glyph-name="currency" unicode="&#xa4;" horiz-adv-x="528" 
d="M264 215q43 0 74.5 33t31.5 78q0 46 -31.5 79t-74.5 33t-74.5 -33t-31.5 -79q0 -45 31.5 -78t74.5 -33zM264 143q-51 0 -95 26l-52 -50l-59 59l50 49q-29 44 -29 100q0 51 27 95l-48 48l59 59l47 -47q44 29 100 29t100 -29l47 47l59 -59l-48 -48q27 -44 27 -95
q0 -56 -29 -100l50 -49l-59 -59l-52 50q-44 -26 -95 -26z" />
    <glyph glyph-name="yen" unicode="&#xa5;" horiz-adv-x="703" 
d="M302 288l-4 6h-190v60h150l-225 341v5h114l204 -327l206 327h114v-5l-226 -341h149v-60h-188l-4 -6v-56h192v-60h-192v-172h-100v172h-194v60h194v56z" />
    <glyph glyph-name="brokenbar" unicode="&#xa6;" horiz-adv-x="239" 
d="M79 -224v418h81v-418h-81zM79 348v418h81v-418h-81z" />
    <glyph glyph-name="section" unicode="&#xa7;" horiz-adv-x="591" 
d="M43 -73l35 68q101 -76 219 -76q71 0 107 24.5t36 64.5q0 62 -109 87l-98 25q-91 24 -128.5 67t-37.5 89q0 45 27.5 81t75.5 56q-103 50 -103 137q0 72 65.5 116.5t161.5 44.5q120 0 212 -50l-38 -73q-84 43 -168 43q-133 0 -133 -81q0 -22 21 -44.5t74 -36.5l95 -24
q91 -23 137 -60t46 -97q0 -42 -25 -81t-70 -65q95 -44 95 -128q0 -76 -65 -125.5t-179 -49.5q-83 0 -148.5 24.5t-104.5 63.5zM440 273q0 55 -58 74l-118 30q-96 -33 -96 -90q0 -65 68 -80l116 -31q41 11 64 37t24 60z" />
    <glyph glyph-name="dieresis" unicode="&#xa8;" horiz-adv-x="599" 
d="M130 648q0 27 18 45t44 18q27 0 45 -18t18 -45q0 -26 -18 -44t-45 -18q-26 0 -44 18t-18 44zM344 648q0 27 18 45t44 18q27 0 45 -18t18 -45q0 -26 -18 -44t-45 -18q-26 0 -44 18t-18 44z" />
    <glyph glyph-name="copyright" unicode="&#xa9;" horiz-adv-x="806" 
d="M50 350q0 150 102 255.5t251 105.5t251 -105.5t102 -255.5t-102 -255.5t-251 -105.5t-251 105.5t-102 255.5zM110 350q0 -125 85 -213t208 -88t208 88t85 213t-85 213t-208 88t-208 -88t-85 -213zM213 349q0 79 57.5 133.5t146.5 54.5q38 0 63 -10.5t61 -34.5l-35 -52
q-49 28 -90 28q-62 0 -92.5 -35.5t-30.5 -82.5t30.5 -82.5t92.5 -35.5q41 0 90 28l35 -52q-36 -24 -61 -34.5t-63 -10.5q-88 0 -146 54.5t-58 131.5z" />
    <glyph glyph-name="ordfeminine" unicode="&#xaa;" horiz-adv-x="503" 
d="M344 700h75v-329h-75v44q-20 -24 -50.5 -37.5t-60.5 -13.5q-69 0 -114.5 50t-45.5 123q0 72 45 121.5t118 49.5q68 0 108 -50v42zM148 537q0 -45 27 -75t71 -30q43 0 70 28t27 75q0 46 -27.5 75.5t-71.5 29.5q-45 0 -70.5 -29.5t-25.5 -73.5zM79 217v61h336v-61h-336z
" />
    <glyph glyph-name="guillemotleft" unicode="&#xab;" horiz-adv-x="552" 
d="M255 290v16l186 213l59 -46l-152 -175l152 -174l-59 -46zM45 290v16l186 213l59 -46l-152 -175l152 -174l-59 -46z" />
    <glyph glyph-name="logicalnot" unicode="&#xac;" horiz-adv-x="619" 
d="M61 372v89h482l-1 -262h-86v173h-395z" />
    <glyph glyph-name="uni00AD" unicode="&#xad;" horiz-adv-x="573" 
d="M78 295v89h417v-89h-417z" />
    <glyph glyph-name="registered" unicode="&#xae;" horiz-adv-x="806" 
d="M50 350q0 150 102 255.5t251 105.5t251 -105.5t102 -255.5t-102 -255.5t-251 -105.5t-251 105.5t-102 255.5zM110 350q0 -125 85 -213t208 -88t208 88t85 213t-85 213t-208 88t-208 -88t-85 -213zM465 175l-63 131h-42v-131h-72v358h145q51 0 81.5 -34t30.5 -83
q0 -82 -75 -105l78 -136h-83zM360 364h63q23 0 35.5 14t12.5 38q0 25 -13 42t-35 17h-63v-111z" />
    <glyph glyph-name="macron" unicode="&#xaf;" horiz-adv-x="539" 
d="M130 679h279v-76h-279v76z" />
    <glyph glyph-name="degree" unicode="&#xb0;" horiz-adv-x="426" 
d="M43 553q0 70 50 120t120 50t120 -50t50 -120t-50 -119t-120 -49t-120 49t-50 119zM118 553q0 -41 28 -70.5t67 -29.5q41 0 68.5 29t27.5 71t-28 72.5t-68 30.5q-39 0 -67 -30.5t-28 -72.5z" />
    <glyph glyph-name="plusminus" unicode="&#xb1;" horiz-adv-x="616" 
d="M351 224h-85v154h-191v85h191v153h85v-153h190v-85h-190v-154zM541 78h-466v82h466v-82z" />
    <glyph glyph-name="twosuperior" unicode="&#xb2;" horiz-adv-x="334" 
d="M226 581l-92 -76q11 0 25.5 0.5t25.5 0.5h12h110v-53h-269l-7 38l150 129q43 38 43 77q0 27 -16 41.5t-44 14.5q-33 0 -49 -16.5t-16 -37.5h-69q0 41 33 76t101 35q58 0 91 -32.5t33 -79.5q0 -62 -62 -117z" />
    <glyph glyph-name="threesuperior" unicode="&#xb3;" horiz-adv-x="327" 
d="M24 492l35 43q39 -36 93 -36q36 0 57 19t21 47q0 29 -22 49.5t-52 20.5t-51 -12l-27 33l111 100h-153v49h249v-35l-102 -94q51 -5 81 -36t30 -77q0 -51 -38 -84t-105 -33q-76 0 -127 46z" />
    <glyph glyph-name="acute" unicode="&#xb4;" horiz-adv-x="502" 
d="M216 723h109l-111 -150h-85z" />
    <glyph glyph-name="mu" unicode="&#xb5;" horiz-adv-x="597" 
d="M168 10v-159h-98v649h97v-305q0 -60 30 -90t72 -30q23 0 47.5 8.5t51.5 28.5t44.5 60.5t17.5 95.5v232h97v-500h-97v100q-16 -53 -60.5 -82t-107.5 -29q-54 0 -94 21z" />
    <glyph glyph-name="paragraph" unicode="&#xb6;" horiz-adv-x="652" 
d="M198 700h159v-9q-38 -30 -38 -86v-745h-75v513h-46q-69 0 -116 47t-47 116t47 116.5t116 47.5zM448 590v-730h-75v734q0 57 35 87t89 30q59 0 91 -29.5t32 -76.5q0 -11 -1 -16q-2 -21 -6 -29h-71q6 11 6 34q0 22 -15 34t-35 12q-22 0 -36 -12.5t-14 -37.5z" />
    <glyph glyph-name="periodcentered" unicode="&#xb7;" horiz-adv-x="279" 
d="M66 276q0 31 21 52.5t52 21.5t52.5 -21.5t21.5 -52.5t-21.5 -52t-52.5 -21t-52 21t-21 52z" />
    <glyph glyph-name="cedilla" unicode="&#xb8;" horiz-adv-x="455" 
d="M241 9v8h41q73 -54 73 -127q0 -55 -39 -84t-88 -29q-47 0 -81.5 30t-46.5 77l43 24q27 -59 82 -59q23 0 41 16.5t18 44.5q0 50 -43 99z" />
    <glyph glyph-name="onesuperior" unicode="&#xb9;" horiz-adv-x="212" 
d="M28 699l-16 49l121 57h35v-353h-66v280z" />
    <glyph glyph-name="ordmasculine" unicode="&#xba;" horiz-adv-x="489" 
d="M72 533q0 71 50.5 121.5t121.5 50.5q72 0 122.5 -50.5t50.5 -121.5t-50.5 -121.5t-122.5 -50.5q-71 0 -121.5 50.5t-50.5 121.5zM147 532q0 -42 28.5 -72.5t68.5 -30.5t69 30.5t29 72.5q0 43 -29 74t-69 31t-68.5 -31t-28.5 -74zM77 217v61h335v-61h-335z" />
    <glyph glyph-name="guillemotright" unicode="&#xbb;" horiz-adv-x="552" 
d="M297 306v-16l-186 -212l-59 46l152 174l-152 175l59 46zM507 306v-16l-186 -212l-59 46l152 174l-152 175l59 46z" />
    <glyph glyph-name="onequarter" unicode="&#xbc;" horiz-adv-x="821" 
d="M49 594l-16 49l121 57h35v-353h-66v280zM543 141h103v114zM646 93h-172v35l193 225h43v-212h72v-48h-72v-93h-64v93zM717 735l-547 -774h-70l546 774h71z" />
    <glyph glyph-name="onehalf" unicode="&#xbd;" horiz-adv-x="851" 
d="M717 735l-547 -774h-70l546 774h71zM49 594l-16 49l121 57h35v-353h-66v280zM730 128l-92 -76h25.5t25.5 0.5t12 0.5h110v-53h-269l-7 38l150 129q43 38 43 77q0 27 -16 41.5t-44 14.5q-33 0 -49 -16.5t-16 -37.5h-69q0 41 33 76t101 35q58 0 91 -32.5t33 -79.5
q0 -62 -62 -117z" />
    <glyph glyph-name="threequarters" unicode="&#xbe;" horiz-adv-x="847" 
d="M740 735l-547 -774h-70l546 774h71zM573 141h103v114zM676 93h-172v35l193 225h43v-212h72v-48h-72v-93h-64v93zM41 387l35 43q39 -36 93 -36q36 0 57 19t21 47q0 29 -22 49.5t-52 20.5t-51 -12l-27 33l111 100h-153v49h249v-35l-102 -94q51 -5 81 -36t30 -77
q0 -51 -38 -84t-105 -33q-76 0 -127 46z" />
    <glyph glyph-name="questiondown" unicode="&#xbf;" horiz-adv-x="514" 
d="M240 281h90q0 -66 -9 -85.5t-55 -46.5q-70 -42 -100.5 -77t-30.5 -85v-3q0 -51 36 -81t99 -30q57 0 89 25.5t32 70.5q0 16 -4 31h87q8 -18 8 -45q0 -28 -12 -56t-36.5 -53t-68 -41t-100.5 -16q-100 0 -166 53.5t-66 141.5q0 28 7.5 53.5t22.5 47.5t29 39t36.5 34t35 26
t34 22.5t24.5 15.5q12 8 15 19t3 40zM358 438q0 -31 -21 -52.5t-52 -21.5t-52.5 21.5t-21.5 52.5t21.5 52t52.5 21t52 -21t21 -52z" />
    <glyph glyph-name="Agrave" unicode="&#xc0;" horiz-adv-x="681" 
d="M222 904h103l78 -139h-83zM482 226h-282l140 378zM170 145h342l55 -145h101l-270 700h-116l-269 -700h103z" />
    <glyph glyph-name="Aacute" unicode="&#xc1;" horiz-adv-x="681" 
d="M354 904h103l-98 -139h-83zM482 226h-282l140 378zM170 145h342l55 -145h101l-270 700h-116l-269 -700h103z" />
    <glyph glyph-name="Acircumflex" unicode="&#xc2;" horiz-adv-x="681" 
d="M289 904h102l109 -139h-76l-84 86l-84 -86h-76zM482 226h-282l140 378zM170 145h342l55 -145h101l-270 700h-116l-269 -700h103z" />
    <glyph glyph-name="Atilde" unicode="&#xc3;" horiz-adv-x="681" 
d="M482 226h-282l140 378zM170 145h342l55 -145h101l-270 700h-116l-269 -700h103zM487 889q-14 -56 -34.5 -80t-53.5 -24q-23 0 -66.5 20t-58.5 20q-17 0 -26.5 -10.5t-21.5 -38.5l-44 13q14 56 34.5 80t53.5 24q23 0 66.5 -20t58.5 -20q17 0 26.5 10.5t21.5 38.5z" />
    <glyph glyph-name="Adieresis" unicode="&#xc4;" horiz-adv-x="681" 
d="M170 827q0 27 18 45t44 18q27 0 45 -18t18 -45q0 -26 -18 -44t-45 -18q-26 0 -44 18t-18 44zM384 827q0 27 18 45t44 18q27 0 45 -18t18 -45q0 -26 -18 -44t-45 -18q-26 0 -44 18t-18 44zM482 226h-282l140 378zM170 145h342l55 -145h101l-270 700h-116l-269 -700h103z
" />
    <glyph glyph-name="Aring" unicode="&#xc5;" horiz-adv-x="681" 
d="M235 848q0 44 30 72.5t75 28.5q46 0 76 -28t30 -73q0 -44 -30.5 -72t-75.5 -28t-75 28t-30 72zM285 848q0 -23 16 -39t39 -16t39 16t16 39t-16 38.5t-39 15.5t-39 -15.5t-16 -38.5zM482 226h-282l140 378zM170 145h342l55 -145h101l-270 700h-116l-269 -700h103z" />
    <glyph glyph-name="AE" unicode="&#xc6;" horiz-adv-x="927" 
d="M298 373h149v245h-20zM547 82h329v-82h-429v292h-192l-153 -292h-108l378 700h504v-82h-329v-245h296v-82h-296v-209z" />
    <glyph glyph-name="Ccedilla" unicode="&#xc7;" horiz-adv-x="683" 
d="M46 350q0 152 102.5 256.5t275.5 104.5q131 0 231 -75l-39 -75q-81 60 -192 60q-127 0 -201.5 -78t-74.5 -193t74.5 -193t201.5 -78q111 0 192 60l39 -75q-100 -75 -231 -75h-6q42 -46 42 -99q0 -55 -39 -84t-88 -29q-47 0 -81.5 30t-46.5 77l43 24q27 -59 82 -59
q23 0 41 16.5t18 44.5q0 42 -31 84q-144 20 -228 120t-84 236z" />
    <glyph glyph-name="Egrave" unicode="&#xc8;" horiz-adv-x="592" 
d="M543 82v-82h-445v700h445v-82h-345v-234h301v-82h-301v-220h345zM196 904h103l78 -139h-83z" />
    <glyph glyph-name="Eacute" unicode="&#xc9;" horiz-adv-x="592" 
d="M543 82v-82h-445v700h445v-82h-345v-234h301v-82h-301v-220h345zM333 904h103l-98 -139h-83z" />
    <glyph glyph-name="Ecircumflex" unicode="&#xca;" horiz-adv-x="592" 
d="M543 82v-82h-445v700h445v-82h-345v-234h301v-82h-301v-220h345zM255 904h102l109 -139h-76l-84 86l-84 -86h-76z" />
    <glyph glyph-name="Edieresis" unicode="&#xcb;" horiz-adv-x="592" 
d="M543 82v-82h-445v700h445v-82h-345v-234h301v-82h-301v-220h345zM136 827q0 27 18 45t44 18q27 0 45 -18t18 -45q0 -26 -18 -44t-45 -18q-26 0 -44 18t-18 44zM350 827q0 27 18 45t44 18q27 0 45 -18t18 -45q0 -26 -18 -44t-45 -18q-26 0 -44 18t-18 44z" />
    <glyph glyph-name="Igrave" unicode="&#xcc;" horiz-adv-x="296" 
d="M198 0v700h-100v-700h100zM22 904h103l78 -139h-83z" />
    <glyph glyph-name="Iacute" unicode="&#xcd;" horiz-adv-x="296" 
d="M198 0v700h-100v-700h100zM171 904h103l-98 -139h-83z" />
    <glyph glyph-name="Icircumflex" unicode="&#xce;" horiz-adv-x="296" 
d="M198 0v700h-100v-700h100zM98 904h102l109 -139h-76l-84 86l-84 -86h-76z" />
    <glyph glyph-name="Idieresis" unicode="&#xcf;" horiz-adv-x="296" 
d="M198 0v700h-100v-700h100zM-21 827q0 27 18 45t44 18q27 0 45 -18t18 -45q0 -26 -18 -44t-45 -18q-26 0 -44 18t-18 44zM193 827q0 27 18 45t44 18q27 0 45 -18t18 -45q0 -26 -18 -44t-45 -18q-26 0 -44 18t-18 44z" />
    <glyph glyph-name="Eth" unicode="&#xd0;" horiz-adv-x="729" 
d="M682 350q0 -149 -98 -249.5t-262 -100.5h-223v314h-78v70h78v316h223q164 0 262 -100.5t98 -249.5zM580 350q0 114 -70.5 191t-187.5 77h-123v-234h162v-70h-162v-232h123q117 0 187.5 77t70.5 191z" />
    <glyph glyph-name="Ntilde" unicode="&#xd1;" horiz-adv-x="754" 
d="M198 518l384 -518h74v700h-101v-516l-383 516h-74v-700h100v518zM529 889q-14 -56 -34.5 -80t-53.5 -24q-23 0 -66.5 20t-58.5 20q-17 0 -26.5 -10.5t-21.5 -38.5l-44 13q14 56 34.5 80t53.5 24q23 0 66.5 -20t58.5 -20q17 0 26.5 10.5t21.5 38.5z" />
    <glyph glyph-name="Ograve" unicode="&#xd2;" horiz-adv-x="818" 
d="M46 350q0 149 106.5 255t256.5 106t256.5 -106t106.5 -255t-106.5 -255t-256.5 -106t-256.5 106t-106.5 255zM148 350q0 -115 76 -193t185 -78t185 78t76 193t-76 193t-185 78t-185 -78t-76 -193zM271 904h103l78 -139h-83z" />
    <glyph glyph-name="Oacute" unicode="&#xd3;" horiz-adv-x="818" 
d="M46 350q0 149 106.5 255t256.5 106t256.5 -106t106.5 -255t-106.5 -255t-256.5 -106t-256.5 106t-106.5 255zM148 350q0 -115 76 -193t185 -78t185 78t76 193t-76 193t-185 78t-185 -78t-76 -193zM439 904h103l-98 -139h-83z" />
    <glyph glyph-name="Ocircumflex" unicode="&#xd4;" horiz-adv-x="818" 
d="M46 350q0 149 106.5 255t256.5 106t256.5 -106t106.5 -255t-106.5 -255t-256.5 -106t-256.5 106t-106.5 255zM148 350q0 -115 76 -193t185 -78t185 78t76 193t-76 193t-185 78t-185 -78t-76 -193zM358 904h102l109 -139h-76l-84 86l-84 -86h-76z" />
    <glyph glyph-name="Otilde" unicode="&#xd5;" horiz-adv-x="818" 
d="M46 350q0 149 106.5 255t256.5 106t256.5 -106t106.5 -255t-106.5 -255t-256.5 -106t-256.5 106t-106.5 255zM148 350q0 -115 76 -193t185 -78t185 78t76 193t-76 193t-185 78t-185 -78t-76 -193zM518 902l44 -13q-14 -56 -34.5 -80t-53.5 -24q-23 0 -66.5 20t-58.5 20
q-17 0 -26.5 -10.5t-21.5 -38.5l-44 13q14 56 34.5 80t53.5 24q23 0 66.5 -20t58.5 -20q17 0 26.5 10.5t21.5 38.5z" />
    <glyph glyph-name="Odieresis" unicode="&#xd6;" horiz-adv-x="818" 
d="M46 350q0 149 106.5 255t256.5 106t256.5 -106t106.5 -255t-106.5 -255t-256.5 -106t-256.5 106t-106.5 255zM148 350q0 -115 76 -193t185 -78t185 78t76 193t-76 193t-185 78t-185 -78t-76 -193zM239 827q0 27 18 45t44 18q27 0 45 -18t18 -45q0 -26 -18 -44t-45 -18
q-26 0 -44 18t-18 44zM453 827q0 27 18 45t44 18q27 0 45 -18t18 -45q0 -26 -18 -44t-45 -18q-26 0 -44 18t-18 44z" />
    <glyph glyph-name="multiply" unicode="&#xd7;" horiz-adv-x="516" 
d="M460 166l-60 -61l-142 143l-142 -143l-60 61l142 142l-142 141l61 60l141 -141l141 141l61 -60l-142 -141z" />
    <glyph glyph-name="Oslash" unicode="&#xd8;" horiz-adv-x="818" 
d="M138 0l45 67q-64 51 -100.5 124.5t-36.5 158.5q0 149 106.5 255t256.5 106q95 0 177 -46l53 78l63 -43l-54 -79q58 -51 91 -121.5t33 -149.5q0 -149 -106.5 -255t-256.5 -106q-88 0 -161 37l-47 -69zM148 350q0 -127 88 -205l298 443q-58 33 -125 33q-109 0 -185 -78
t-76 -193zM670 350q0 114 -75 191l-295 -438q53 -24 109 -24q109 0 185 78t76 193z" />
    <glyph glyph-name="Ugrave" unicode="&#xd9;" horiz-adv-x="730" 
d="M542 700h100v-441q0 -127 -79.5 -198.5t-197.5 -71.5t-197.5 71.5t-79.5 198.5v441h100v-441q0 -87 50.5 -133.5t126.5 -46.5t126.5 46.5t50.5 133.5v441zM240 904h103l78 -139h-83z" />
    <glyph glyph-name="Uacute" unicode="&#xda;" horiz-adv-x="730" 
d="M542 700h100v-441q0 -127 -79.5 -198.5t-197.5 -71.5t-197.5 71.5t-79.5 198.5v441h100v-441q0 -87 50.5 -133.5t126.5 -46.5t126.5 46.5t50.5 133.5v441zM382 904h103l-98 -139h-83z" />
    <glyph glyph-name="Ucircumflex" unicode="&#xdb;" horiz-adv-x="730" 
d="M542 700h100v-441q0 -127 -79.5 -198.5t-197.5 -71.5t-197.5 71.5t-79.5 198.5v441h100v-441q0 -87 50.5 -133.5t126.5 -46.5t126.5 46.5t50.5 133.5v441zM314 904h102l109 -139h-76l-84 86l-84 -86h-76z" />
    <glyph glyph-name="Udieresis" unicode="&#xdc;" horiz-adv-x="730" 
d="M542 700h100v-441q0 -127 -79.5 -198.5t-197.5 -71.5t-197.5 71.5t-79.5 198.5v441h100v-441q0 -87 50.5 -133.5t126.5 -46.5t126.5 46.5t50.5 133.5v441zM195 827q0 27 18 45t44 18q27 0 45 -18t18 -45q0 -26 -18 -44t-45 -18q-26 0 -44 18t-18 44zM409 827q0 27 18 45
t44 18q27 0 45 -18t18 -45q0 -26 -18 -44t-45 -18q-26 0 -44 18t-18 44z" />
    <glyph glyph-name="Yacute" unicode="&#xdd;" horiz-adv-x="678" 
d="M289 288l-265 401v11h110l204 -327l206 327h110v-11l-265 -401v-288h-100v288zM360 904h103l-98 -139h-83z" />
    <glyph glyph-name="Thorn" unicode="&#xde;" horiz-adv-x="633" 
d="M198 162v-162h-100v700h100v-161h237q70 0 118 -56.5t48 -132.5q0 -77 -47.5 -132.5t-122.5 -55.5h-233zM198 244h192q53 0 80 31t27 75q0 107 -107 107h-192v-213z" />
    <glyph glyph-name="germandbls" unicode="&#xdf;" horiz-adv-x="598" 
d="M285 649q-54 0 -82 -33t-28 -96v-520h-98v520q0 101 55 155t153 54q100 0 155 -47.5t55 -132.5q0 -119 -132 -152q86 -8 141.5 -62.5t55.5 -136.5q0 -85 -63.5 -141.5t-166.5 -56.5h-57l-23 82h80q56 0 93 35t37 84q0 68 -58.5 109.5t-154.5 41.5l-21 78q87 0 127.5 31
t40.5 81q0 51 -29 79t-80 28z" />
    <glyph glyph-name="agrave" unicode="&#xe0;" horiz-adv-x="644" 
d="M165 723h109l87 -150h-85zM41 250q0 -110 69 -185.5t179 -75.5q117 0 181 91v-80h97v500h-97v-80q-64 91 -181 91q-110 0 -179 -75.5t-69 -185.5zM472 250q0 -76 -48 -125.5t-123 -49.5t-119 50.5t-44 124.5t44 124.5t119 50.5t123 -49.5t48 -125.5z" />
    <glyph glyph-name="aacute" unicode="&#xe1;" horiz-adv-x="643" 
d="M341 723h109l-111 -150h-85zM40 250q0 -110 69 -185.5t179 -75.5q117 0 181 91v-80h97v500h-97v-80q-64 91 -181 91q-110 0 -179 -75.5t-69 -185.5zM471 250q0 -76 -48 -125.5t-123 -49.5t-119 50.5t-44 124.5t44 124.5t119 50.5t123 -49.5t48 -125.5z" />
    <glyph glyph-name="acircumflex" unicode="&#xe2;" horiz-adv-x="643" 
d="M259 723h102l118 -150h-76l-93 92l-93 -92h-76zM40 250q0 -110 69 -185.5t179 -75.5q117 0 181 91v-80h97v500h-97v-80q-64 91 -181 91q-110 0 -179 -75.5t-69 -185.5zM471 250q0 -76 -48 -125.5t-123 -49.5t-119 50.5t-44 124.5t44 124.5t119 50.5t123 -49.5t48 -125.5z
" />
    <glyph glyph-name="atilde" unicode="&#xe3;" horiz-adv-x="643" 
d="M466 699q-14 -56 -34.5 -80t-53.5 -24q-23 0 -66.5 20t-58.5 20q-17 0 -26.5 -10.5t-21.5 -38.5l-44 13q14 56 34.5 80t53.5 24q23 0 66.5 -20t58.5 -20q17 0 26.5 10.5t21.5 38.5zM40 250q0 -110 69 -185.5t179 -75.5q117 0 181 91v-80h97v500h-97v-80q-64 91 -181 91
q-110 0 -179 -75.5t-69 -185.5zM471 250q0 -76 -48 -125.5t-123 -49.5t-119 50.5t-44 124.5t44 124.5t119 50.5t123 -49.5t48 -125.5z" />
    <glyph glyph-name="adieresis" unicode="&#xe4;" horiz-adv-x="643" 
d="M144 648q0 27 18 45t44 18q27 0 45 -18t18 -45q0 -26 -18 -44t-45 -18q-26 0 -44 18t-18 44zM358 648q0 27 18 45t44 18q27 0 45 -18t18 -45q0 -26 -18 -44t-45 -18q-26 0 -44 18t-18 44zM40 250q0 -110 69 -185.5t179 -75.5q117 0 181 91v-80h97v500h-97v-80
q-64 91 -181 91q-110 0 -179 -75.5t-69 -185.5zM471 250q0 -76 -48 -125.5t-123 -49.5t-119 50.5t-44 124.5t44 124.5t119 50.5t123 -49.5t48 -125.5z" />
    <glyph glyph-name="aring" unicode="&#xe5;" horiz-adv-x="643" 
d="M202 678q0 44 30.5 75t74.5 31t75 -31t31 -75t-31 -74.5t-75 -30.5q-43 0 -74 30.5t-31 74.5zM252 678q0 -23 16 -39t39 -16t39 16t16 39t-16 39t-39 16t-39 -16t-16 -39zM40 250q0 -110 69 -185.5t179 -75.5q117 0 181 91v-80h97v500h-97v-80q-64 91 -181 91
q-110 0 -179 -75.5t-69 -185.5zM471 250q0 -76 -48 -125.5t-123 -49.5t-119 50.5t-44 124.5t44 124.5t119 50.5t123 -49.5t48 -125.5z" />
    <glyph glyph-name="ae" unicode="&#xe6;" horiz-adv-x="934" 
d="M403 160l-7 57q-80 21 -157 21q-58 0 -84.5 -26t-26.5 -60q0 -35 29.5 -61.5t87.5 -26.5q97 0 158 96zM388 285v17q0 123 -129 123q-87 0 -155 -54l-36 70q67 70 199 70q144 0 188 -90q76 90 200 90q106 0 176.5 -69t70.5 -201h-421q-2 -72 51 -119t137 -47q81 0 156 63
l54 -56q-83 -93 -211 -93q-159 0 -232 114q-25 -51 -78.5 -82.5t-127.5 -31.5q-84 0 -141.5 43t-57.5 119q0 69 51.5 113t147.5 44q94 0 158 -23zM657 426q-52 0 -97.5 -25.5t-67.5 -84.5h310q-33 110 -145 110z" />
    <glyph glyph-name="ccedilla" unicode="&#xe7;" horiz-adv-x="529" 
d="M330 -11q42 -46 42 -99q0 -55 -39 -84t-88 -29q-47 0 -81.5 30t-46.5 77l43 24q27 -59 82 -59q23 0 41 16.5t18 44.5q0 39 -30 83q-108 14 -169.5 83.5t-61.5 167.5q0 115 75 191t206 76q98 0 179 -61l-46 -66q-54 41 -129 41q-81 0 -134.5 -49t-53.5 -126t53.5 -126
t134.5 -49q75 0 129 41l46 -66q-74 -54 -170 -61z" />
    <glyph glyph-name="egrave" unicode="&#xe8;" horiz-adv-x="595" 
d="M486 138l54 -56q-83 -93 -219 -93q-127 0 -204.5 75t-77.5 184q0 111 76.5 187t192.5 76q107 0 181 -69.5t74 -200.5h-427q-2 -72 50.5 -119t135.5 -47q90 0 164 63zM310 426q-52 0 -97.5 -25.5t-67.5 -84.5h318q-33 110 -153 110zM169 723h109l87 -150h-85z" />
    <glyph glyph-name="eacute" unicode="&#xe9;" horiz-adv-x="595" 
d="M486 138l54 -56q-83 -93 -219 -93q-127 0 -204.5 75t-77.5 184q0 111 76.5 187t192.5 76q107 0 181 -69.5t74 -200.5h-427q-2 -72 50.5 -119t135.5 -47q90 0 164 63zM310 426q-52 0 -97.5 -25.5t-67.5 -84.5h318q-33 110 -153 110zM331 723h109l-111 -150h-85z" />
    <glyph glyph-name="ecircumflex" unicode="&#xea;" horiz-adv-x="595" 
d="M486 138l54 -56q-83 -93 -219 -93q-127 0 -204.5 75t-77.5 184q0 111 76.5 187t192.5 76q107 0 181 -69.5t74 -200.5h-427q-2 -72 50.5 -119t135.5 -47q90 0 164 63zM310 426q-52 0 -97.5 -25.5t-67.5 -84.5h318q-33 110 -153 110zM247 723h102l118 -150h-76l-93 92
l-93 -92h-76z" />
    <glyph glyph-name="edieresis" unicode="&#xeb;" horiz-adv-x="595" 
d="M486 138l54 -56q-83 -93 -219 -93q-127 0 -204.5 75t-77.5 184q0 111 76.5 187t192.5 76q107 0 181 -69.5t74 -200.5h-427q-2 -72 50.5 -119t135.5 -47q90 0 164 63zM310 426q-52 0 -97.5 -25.5t-67.5 -84.5h318q-33 110 -153 110zM129 648q0 27 18 45t44 18q27 0 45 -18
t18 -45q0 -26 -18 -44t-45 -18q-26 0 -44 18t-18 44zM343 648q0 27 18 45t44 18q27 0 45 -18t18 -45q0 -26 -18 -44t-45 -18q-26 0 -44 18t-18 44z" />
    <glyph glyph-name="igrave" unicode="&#xec;" horiz-adv-x="257" 
d="M177 0v500h-97v-500h97zM-14 723h109l87 -150h-85z" />
    <glyph glyph-name="iacute" unicode="&#xed;" horiz-adv-x="257" 
d="M177 0v500h-97v-500h97zM162 723h109l-111 -150h-85z" />
    <glyph glyph-name="icircumflex" unicode="&#xee;" horiz-adv-x="257" 
d="M177 0v500h-97v-500h97zM74 723h102l118 -150h-76l-93 92l-93 -92h-76z" />
    <glyph glyph-name="idieresis" unicode="&#xef;" horiz-adv-x="257" 
d="M177 0v500h-97v-500h97zM-44 648q0 27 18 45t44 18q27 0 45 -18t18 -45q0 -26 -18 -44t-45 -18q-26 0 -44 18t-18 44zM170 648q0 27 18 45t44 18q27 0 45 -18t18 -45q0 -26 -18 -44t-45 -18q-26 0 -44 18t-18 44z" />
    <glyph glyph-name="eth" unicode="&#xf0;" horiz-adv-x="607" 
d="M297 581l-120 -51l-22 52l94 41q-14 11 -75 58l75 51q69 -55 87 -72l114 49l26 -52l-95 -41q84 -86 134 -182t50 -189q0 -118 -75 -187t-183 -69q-113 0 -190 75.5t-77 184.5q0 108 72.5 180.5t174.5 72.5q79 0 106 -32q-38 56 -96 111zM137 250q0 -74 48.5 -124.5
t117.5 -50.5q78 0 121.5 49.5t43.5 128.5q0 71 -44 118.5t-116 47.5q-74 0 -122.5 -48.5t-48.5 -120.5z" />
    <glyph glyph-name="ntilde" unicode="&#xf1;" horiz-adv-x="604" 
d="M437 282v-282h97v282q0 115 -53 172t-139 57q-63 0 -107.5 -29t-60.5 -82v100h-97v-500h97v232q0 55 17.5 95.5t44.5 60.5t51.5 28.5t47.5 8.5q44 0 73 -34.5t29 -108.5zM444 699q-14 -56 -34.5 -80t-53.5 -24q-23 0 -66.5 20t-58.5 20q-17 0 -26.5 -10.5t-21.5 -38.5
l-44 13q14 56 34.5 80t53.5 24q23 0 66.5 -20t58.5 -20q17 0 26.5 10.5t21.5 38.5z" />
    <glyph glyph-name="ograve" unicode="&#xf2;" 
d="M39 250q0 108 77 184.5t185 76.5q109 0 186 -76.5t77 -184.5t-77 -184.5t-186 -76.5q-108 0 -185 76.5t-77 184.5zM136 249q0 -72 48.5 -123t116.5 -51q69 0 117.5 51t48.5 123t-48.5 124t-117.5 52q-68 0 -116.5 -52t-48.5 -124zM152 723h109l87 -150h-85z" />
    <glyph glyph-name="oacute" unicode="&#xf3;" 
d="M39 250q0 108 77 184.5t185 76.5q109 0 186 -76.5t77 -184.5t-77 -184.5t-186 -76.5q-108 0 -185 76.5t-77 184.5zM136 249q0 -72 48.5 -123t116.5 -51q69 0 117.5 51t48.5 123t-48.5 124t-117.5 52q-68 0 -116.5 -52t-48.5 -124zM333 723h109l-111 -150h-85z" />
    <glyph glyph-name="ocircumflex" unicode="&#xf4;" 
d="M39 250q0 108 77 184.5t185 76.5q109 0 186 -76.5t77 -184.5t-77 -184.5t-186 -76.5q-108 0 -185 76.5t-77 184.5zM136 249q0 -72 48.5 -123t116.5 -51q69 0 117.5 51t48.5 123t-48.5 124t-117.5 52q-68 0 -116.5 -52t-48.5 -124zM251 723h102l118 -150h-76l-93 92
l-93 -92h-76z" />
    <glyph glyph-name="otilde" unicode="&#xf5;" 
d="M39 250q0 108 77 184.5t185 76.5q109 0 186 -76.5t77 -184.5t-77 -184.5t-186 -76.5q-108 0 -185 76.5t-77 184.5zM136 249q0 -72 48.5 -123t116.5 -51q69 0 117.5 51t48.5 123t-48.5 124t-117.5 52q-68 0 -116.5 -52t-48.5 -124zM408 712l44 -13q-14 -56 -34.5 -80
t-53.5 -24q-23 0 -66.5 20t-58.5 20q-17 0 -26.5 -10.5t-21.5 -38.5l-44 13q14 56 34.5 80t53.5 24q23 0 66.5 -20t58.5 -20q17 0 26.5 10.5t21.5 38.5z" />
    <glyph glyph-name="odieresis" unicode="&#xf6;" 
d="M39 250q0 108 77 184.5t185 76.5q109 0 186 -76.5t77 -184.5t-77 -184.5t-186 -76.5q-108 0 -185 76.5t-77 184.5zM136 249q0 -72 48.5 -123t116.5 -51q69 0 117.5 51t48.5 123t-48.5 124t-117.5 52q-68 0 -116.5 -52t-48.5 -124zM132 648q0 27 18 45t44 18q27 0 45 -18
t18 -45q0 -26 -18 -44t-45 -18q-26 0 -44 18t-18 44zM346 648q0 27 18 45t44 18q27 0 45 -18t18 -45q0 -26 -18 -44t-45 -18q-26 0 -44 18t-18 44z" />
    <glyph glyph-name="divide" unicode="&#xf7;" horiz-adv-x="627" 
d="M240 116q0 31 21 52.5t52 21.5t52.5 -21.5t21.5 -52.5t-21.5 -52t-52.5 -21t-52 21t-21 52zM240 499q0 31 21 52.5t52 21.5t52.5 -21.5t21.5 -52.5t-21.5 -52t-52.5 -21t-52 21t-21 52zM55 261v89h517v-89h-517z" />
    <glyph glyph-name="oslash" unicode="&#xf8;" horiz-adv-x="604" 
d="M51 15l55 62q-66 76 -66 173q0 108 77 184.5t185 76.5q79 0 147 -46l51 58l48 -43l-50 -57q67 -77 67 -173q0 -108 -77 -184.5t-186 -76.5q-79 0 -148 45l-55 -62zM468 249q0 58 -32 104l-222 -251q40 -27 88 -27q69 0 117.5 51t48.5 123zM137 249q0 -58 31 -102l222 251
q-40 27 -88 27q-68 0 -116.5 -52t-48.5 -124z" />
    <glyph glyph-name="ugrave" unicode="&#xf9;" 
d="M166 218v282h-97v-282q0 -115 53 -172t139 -57q63 0 107.5 29t60.5 82v-100h97v500h-97v-232q0 -55 -17.5 -95.5t-44.5 -60.5t-51.5 -28.5t-47.5 -8.5q-44 0 -73 34.5t-29 108.5zM161 723h109l87 -150h-85z" />
    <glyph glyph-name="uacute" unicode="&#xfa;" 
d="M166 218v282h-97v-282q0 -115 53 -172t139 -57q63 0 107.5 29t60.5 82v-100h97v500h-97v-232q0 -55 -17.5 -95.5t-44.5 -60.5t-51.5 -28.5t-47.5 -8.5q-44 0 -73 34.5t-29 108.5zM334 723h109l-111 -150h-85z" />
    <glyph glyph-name="ucircumflex" unicode="&#xfb;" 
d="M166 218v282h-97v-282q0 -115 53 -172t139 -57q63 0 107.5 29t60.5 82v-100h97v500h-97v-232q0 -55 -17.5 -95.5t-44.5 -60.5t-51.5 -28.5t-47.5 -8.5q-44 0 -73 34.5t-29 108.5zM249 723h102l118 -150h-76l-93 92l-93 -92h-76z" />
    <glyph glyph-name="udieresis" unicode="&#xfc;" 
d="M166 218v282h-97v-282q0 -115 53 -172t139 -57q63 0 107.5 29t60.5 82v-100h97v500h-97v-232q0 -55 -17.5 -95.5t-44.5 -60.5t-51.5 -28.5t-47.5 -8.5q-44 0 -73 34.5t-29 108.5zM135 648q0 27 18 45t44 18q27 0 45 -18t18 -45q0 -26 -18 -44t-45 -18q-26 0 -44 18
t-18 44zM349 648q0 27 18 45t44 18q27 0 45 -18t18 -45q0 -26 -18 -44t-45 -18q-26 0 -44 18t-18 44z" />
    <glyph glyph-name="yacute" unicode="&#xfd;" horiz-adv-x="554" 
d="M282 127l142 373h113l-307 -724h-94l93 241l-211 483h111zM303 723h109l-111 -150h-85z" />
    <glyph glyph-name="thorn" unicode="&#xfe;" horiz-adv-x="643" 
d="M603 250q0 -110 -69 -185.5t-179 -75.5q-117 0 -181 91v-304h-97v947h97v-303q64 91 181 91q110 0 179 -75.5t69 -185.5zM172 250q0 -76 48.5 -125.5t122.5 -49.5q75 0 119 50.5t44 124.5t-44 124.5t-119 50.5q-74 0 -122.5 -49.5t-48.5 -125.5z" />
    <glyph glyph-name="ydieresis" unicode="&#xff;" horiz-adv-x="554" 
d="M282 127l142 373h113l-307 -724h-94l93 241l-211 483h111zM108 648q0 27 18 45t44 18q27 0 45 -18t18 -45q0 -26 -18 -44t-45 -18q-26 0 -44 18t-18 44zM322 648q0 27 18 45t44 18q27 0 45 -18t18 -45q0 -26 -18 -44t-45 -18q-26 0 -44 18t-18 44z" />
    <glyph glyph-name="Amacron" unicode="&#x100;" horiz-adv-x="681" 
d="M200 858h279v-76h-279v76zM200 226h282l-142 378zM512 145h-342l-54 -145h-103l269 700h116l270 -700h-101z" />
    <glyph glyph-name="amacron" unicode="&#x101;" horiz-adv-x="644" 
d="M184 679h279v-76h-279v76zM41 250q0 110 69 185.5t179 75.5q117 0 181 -91v80h97v-500h-97v80q-64 -91 -181 -91q-110 0 -179 75.5t-69 185.5zM472 250q0 76 -48 125.5t-123 49.5t-119 -50.5t-44 -124.5t44 -124.5t119 -50.5t123 49.5t48 125.5z" />
    <glyph glyph-name="Abreve" unicode="&#x102;" horiz-adv-x="681" 
d="M412 903l59 -4q-6 -66 -45 -100t-87 -34t-86.5 34t-44.5 100l59 4q15 -75 72 -75q58 0 73 75zM482 226h-282l140 378zM170 145h342l55 -145h101l-270 700h-116l-269 -700h103z" />
    <glyph glyph-name="abreve" unicode="&#x103;" horiz-adv-x="643" 
d="M388 722l63 -5q-5 -75 -45 -109.5t-92 -34.5t-92 34.5t-45 109.5l63 5q6 -77 74 -77t74 77zM40 250q0 -110 69 -185.5t179 -75.5q117 0 181 91v-80h97v500h-97v-80q-64 91 -181 91q-110 0 -179 -75.5t-69 -185.5zM471 250q0 -76 -48 -125.5t-123 -49.5t-119 50.5
t-44 124.5t44 124.5t119 50.5t123 -49.5t48 -125.5z" />
    <glyph glyph-name="Aogonek" unicode="&#x104;" horiz-adv-x="679" 
d="M667 0h-6q-52 -2 -81.5 -31t-29.5 -65q0 -25 17 -40t40 -15q55 0 82 59l43 -24q-12 -47 -46.5 -77t-81.5 -30q-49 0 -88 29t-39 84q0 35 22 70.5t63 48.5l-51 136h-342l-54 -145h-103l269 700h116zM199 226h282l-142 378z" />
    <glyph glyph-name="aogonek" unicode="&#x105;" horiz-adv-x="644" 
d="M567 500v-492q-55 -9 -76.5 -38.5t-21.5 -59.5q0 -28 18 -44.5t41 -16.5q55 0 82 59l43 -24q-12 -47 -46.5 -77t-81.5 -30q-49 0 -88 29t-39 84q0 74 72 114v76q-64 -91 -181 -91q-110 0 -179 75.5t-69 185.5t69 185.5t179 75.5q117 0 181 -91v80h97zM472 250
q0 76 -48 125.5t-123 49.5t-119 -50.5t-44 -124.5t44 -124.5t119 -50.5t123 49.5t48 125.5z" />
    <glyph glyph-name="Cacute" unicode="&#x106;" horiz-adv-x="682" 
d="M453 904h103l-98 -139h-83zM46 350q0 -152 102.5 -256.5t275.5 -104.5q131 0 231 75l-39 75q-81 -60 -192 -60q-127 0 -201.5 78t-74.5 193t74.5 193t201.5 78q111 0 192 -60l39 75q-100 75 -231 75q-173 0 -275.5 -104.5t-102.5 -256.5z" />
    <glyph glyph-name="cacute" unicode="&#x107;" horiz-adv-x="529" 
d="M40 244q0 115 75 191t206 76q98 0 179 -61l-46 -66q-54 41 -129 41q-81 0 -134.5 -49t-53.5 -126t53.5 -126t134.5 -49q75 0 129 41l46 -66q-81 -61 -179 -61q-129 0 -205 73t-76 182zM327 723h109l-111 -150h-85z" />
    <glyph glyph-name="Ccircumflex" unicode="&#x108;" horiz-adv-x="682" 
d="M358 904h102l109 -139h-76l-84 86l-84 -86h-76zM46 350q0 -152 102.5 -256.5t275.5 -104.5q131 0 231 75l-39 75q-81 -60 -192 -60q-127 0 -201.5 78t-74.5 193t74.5 193t201.5 78q111 0 192 -60l39 75q-100 75 -231 75q-173 0 -275.5 -104.5t-102.5 -256.5z" />
    <glyph glyph-name="ccircumflex" unicode="&#x109;" horiz-adv-x="529" 
d="M40 244q0 115 75 191t206 76q98 0 179 -61l-46 -66q-54 41 -129 41q-81 0 -134.5 -49t-53.5 -126t53.5 -126t134.5 -49q75 0 129 41l46 -66q-81 -61 -179 -61q-129 0 -205 73t-76 182zM246 723h102l118 -150h-76l-93 92l-93 -92h-76z" />
    <glyph glyph-name="Cdotaccent" unicode="&#x10a;" horiz-adv-x="683" 
d="M333 830q0 27 18.5 46t46.5 19q27 0 46 -19t19 -46q0 -28 -19 -46.5t-46 -18.5q-28 0 -46.5 18.5t-18.5 46.5zM46 350q0 -152 102.5 -256.5t275.5 -104.5q131 0 231 75l-39 75q-81 -60 -192 -60q-127 0 -201.5 78t-74.5 193t74.5 193t201.5 78q111 0 192 -60l39 75
q-100 75 -231 75q-173 0 -275.5 -104.5t-102.5 -256.5z" />
    <glyph glyph-name="cdotaccent" unicode="&#x10b;" horiz-adv-x="529" 
d="M40 244q0 115 75 191t206 76q98 0 179 -61l-46 -66q-54 41 -129 41q-81 0 -134.5 -49t-53.5 -126t53.5 -126t134.5 -49q75 0 129 41l46 -66q-81 -61 -179 -61q-129 0 -205 73t-76 182zM238 643q0 29 19 48.5t48 19.5t48.5 -19.5t19.5 -48.5t-19.5 -48t-48.5 -19t-48 19
t-19 48z" />
    <glyph glyph-name="Ccaron" unicode="&#x10c;" horiz-adv-x="682" 
d="M457 765h-102l-109 139h76l84 -86l84 86h76zM46 350q0 -152 102.5 -256.5t275.5 -104.5q131 0 231 75l-39 75q-81 -60 -192 -60q-127 0 -201.5 78t-74.5 193t74.5 193t201.5 78q111 0 192 -60l39 75q-100 75 -231 75q-173 0 -275.5 -104.5t-102.5 -256.5z" />
    <glyph glyph-name="ccaron" unicode="&#x10d;" horiz-adv-x="529" 
d="M40 244q0 115 75 191t206 76q98 0 179 -61l-46 -66q-54 41 -129 41q-81 0 -134.5 -49t-53.5 -126t53.5 -126t134.5 -49q75 0 129 41l46 -66q-81 -61 -179 -61q-129 0 -205 73t-76 182zM345 573h-102l-118 150h76l93 -92l93 92h76z" />
    <glyph glyph-name="Dcaron" unicode="&#x10e;" horiz-adv-x="728" 
d="M354 765h-102l-109 139h76l84 -86l84 86h76zM579 350q0 -114 -70.5 -191t-187.5 -77h-123v536h123q117 0 187.5 -77t70.5 -191zM681 350q0 149 -98 249.5t-262 100.5h-223v-700h223q164 0 262 100.5t98 249.5z" />
    <glyph glyph-name="dcaron" unicode="&#x10f;" horiz-adv-x="663" 
d="M640 496l-17 36q43 14 60.5 35t17.5 52q-33 -11 -56 6t-23 44q-1 28 16 46t48 18q39 0 57 -27t18 -55q0 -117 -121 -155zM41 250q0 -110 69 -185.5t179 -75.5q117 0 181 91v-80h97v723h-97v-303q-64 91 -181 91q-110 0 -179 -75.5t-69 -185.5zM472 250q0 -76 -48 -125.5
t-123 -49.5t-119 50.5t-44 124.5t44 124.5t119 50.5t123 -49.5t48 -125.5z" />
    <glyph glyph-name="Dcroat" unicode="&#x110;" horiz-adv-x="729" 
d="M682 350q0 -149 -98 -249.5t-262 -100.5h-223v314h-78v70h78v316h223q164 0 262 -100.5t98 -249.5zM580 350q0 114 -70.5 191t-187.5 77h-123v-234h162v-70h-162v-232h123q117 0 187.5 77t70.5 191z" />
    <glyph glyph-name="dcroat" unicode="&#x111;" horiz-adv-x="644" 
d="M41 250q0 110 69 185.5t179 75.5q117 0 181 -91v144h-118v52h118v107h97v-107h72v-52h-72v-564h-97v80q-64 -91 -181 -91q-110 0 -179 75.5t-69 185.5zM472 250q0 76 -48 125.5t-123 49.5t-119 -50.5t-44 -124.5t44 -124.5t119 -50.5t123 49.5t48 125.5z" />
    <glyph glyph-name="Emacron" unicode="&#x112;" horiz-adv-x="592" 
d="M543 82v-82h-445v700h445v-82h-345v-234h301v-82h-301v-220h345zM166 858h279v-76h-279v76z" />
    <glyph glyph-name="emacron" unicode="&#x113;" horiz-adv-x="595" 
d="M486 138l54 -56q-83 -93 -219 -93q-127 0 -204.5 75t-77.5 184q0 111 76.5 187t192.5 76q107 0 181 -69.5t74 -200.5h-427q-2 -72 50.5 -119t135.5 -47q90 0 164 63zM310 426q-52 0 -97.5 -25.5t-67.5 -84.5h318q-33 110 -153 110zM170 679h279v-76h-279v76z" />
    <glyph glyph-name="Ebreve" unicode="&#x114;" horiz-adv-x="592" 
d="M543 82v-82h-445v700h445v-82h-345v-234h301v-82h-301v-220h345zM378 903l59 -4q-6 -66 -45 -100t-87 -34t-86.5 34t-44.5 100l59 4q15 -75 72 -75q58 0 73 75z" />
    <glyph glyph-name="ebreve" unicode="&#x115;" horiz-adv-x="595" 
d="M486 138l54 -56q-83 -93 -219 -93q-127 0 -204.5 75t-77.5 184q0 111 76.5 187t192.5 76q107 0 181 -69.5t74 -200.5h-427q-2 -72 50.5 -119t135.5 -47q90 0 164 63zM310 426q-52 0 -97.5 -25.5t-67.5 -84.5h318q-33 110 -153 110zM382 722l63 -5q-5 -75 -45 -109.5
t-92 -34.5t-92 34.5t-45 109.5l63 5q6 -77 74 -77t74 77z" />
    <glyph glyph-name="Edotaccent" unicode="&#x116;" horiz-adv-x="592" 
d="M543 82v-82h-445v700h445v-82h-345v-234h301v-82h-301v-220h345zM241 830q0 27 18.5 46t46.5 19q27 0 46 -19t19 -46q0 -28 -19 -46.5t-46 -18.5q-28 0 -46.5 18.5t-18.5 46.5z" />
    <glyph glyph-name="edotaccent" unicode="&#x117;" horiz-adv-x="595" 
d="M486 138l54 -56q-83 -93 -219 -93q-127 0 -204.5 75t-77.5 184q0 111 76.5 187t192.5 76q107 0 181 -69.5t74 -200.5h-427q-2 -72 50.5 -119t135.5 -47q90 0 164 63zM310 426q-52 0 -97.5 -25.5t-67.5 -84.5h318q-33 110 -153 110zM239 643q0 29 19 48.5t48 19.5
t48.5 -19.5t19.5 -48.5t-19.5 -48t-48.5 -19t-48 19t-19 48z" />
    <glyph glyph-name="Eogonek" unicode="&#x118;" horiz-adv-x="591" 
d="M541 82v-82h-113q-127 -3 -127 -90q0 -28 18 -44.5t41 -16.5q55 0 82 59l43 -24q-12 -47 -46.5 -77t-81.5 -30q-49 0 -88 29t-39 84q0 71 77 110h-210v700h444v-82h-344v-234h300v-82h-300v-220h344z" />
    <glyph glyph-name="eogonek" unicode="&#x119;" horiz-adv-x="595" 
d="M563 241h-427q-2 -72 50.5 -119t135.5 -47q90 0 164 63l54 -56q-74 -38 -119 -83t-45 -89q0 -28 18 -44.5t41 -16.5q55 0 82 59l43 -24q-12 -47 -46.5 -77t-81.5 -30q-49 0 -88 29t-39 84q0 54 42 100q-5 0 -13.5 -0.5t-12.5 -0.5q-127 0 -204.5 75t-77.5 184
q0 111 76.5 187t192.5 76q107 0 181 -69.5t74 -200.5zM310 426q-52 0 -97.5 -25.5t-67.5 -84.5h318q-33 110 -153 110z" />
    <glyph glyph-name="Ecaron" unicode="&#x11a;" horiz-adv-x="592" 
d="M543 82v-82h-445v700h445v-82h-345v-234h301v-82h-301v-220h345zM352 765h-102l-109 139h76l84 -86l84 86h76z" />
    <glyph glyph-name="ecaron" unicode="&#x11b;" horiz-adv-x="595" 
d="M486 138l54 -56q-83 -93 -219 -93q-127 0 -204.5 75t-77.5 184q0 111 76.5 187t192.5 76q107 0 181 -69.5t74 -200.5h-427q-2 -72 50.5 -119t135.5 -47q90 0 164 63zM310 426q-52 0 -97.5 -25.5t-67.5 -84.5h318q-33 110 -153 110zM349 573h-102l-118 150h76l93 -92
l93 92h76z" />
    <glyph glyph-name="Gcircumflex" unicode="&#x11c;" horiz-adv-x="735" 
d="M353 904h102l109 -139h-76l-84 86l-84 -86h-76zM409 621q40 0 63 -2t65 -17t88 -45l39 77q-103 77 -255 77q-150 0 -256.5 -106t-106.5 -257q0 -150 106.5 -254.5t265.5 -104.5q153 0 261 98v263h-288v-81h197v-143q-73 -47 -165 -47q-130 0 -202.5 80t-72.5 190
q0 114 76.5 193t184.5 79z" />
    <glyph glyph-name="gcircumflex" unicode="&#x11d;" horiz-adv-x="644" 
d="M271 723h102l118 -150h-76l-93 92l-93 -92h-76zM567 4v496h-97v-80q-64 91 -181 91q-110 0 -179 -75.5t-69 -185.5t69 -185.5t179 -75.5q117 0 181 91v-67q0 -79 -44.5 -121t-119.5 -42q-102 0 -175 63l-39 -76q89 -72 214 -72q111 0 186 60.5t75 178.5zM472 250
q0 -76 -48 -125.5t-123 -49.5t-119 50.5t-44 124.5t44 124.5t119 50.5t123 -49.5t48 -125.5z" />
    <glyph glyph-name="Gbreve" unicode="&#x11e;" horiz-adv-x="735" 
d="M473 903l59 -4q-6 -66 -45 -100t-87 -34t-86.5 34t-44.5 100l59 4q15 -75 72 -75q58 0 73 75zM409 621q40 0 63 -2t65 -17t88 -45l39 77q-103 77 -255 77q-150 0 -256.5 -106t-106.5 -257q0 -150 106.5 -254.5t265.5 -104.5q153 0 261 98v263h-288v-81h197v-143
q-73 -47 -165 -47q-130 0 -202.5 80t-72.5 190q0 114 76.5 193t184.5 79z" />
    <glyph glyph-name="gbreve" unicode="&#x11f;" horiz-adv-x="644" 
d="M388 722l63 -5q-5 -75 -45 -109.5t-92 -34.5t-92 34.5t-45 109.5l63 5q6 -77 74 -77t74 77zM567 4v496h-97v-80q-64 91 -181 91q-110 0 -179 -75.5t-69 -185.5t69 -185.5t179 -75.5q117 0 181 91v-67q0 -79 -44.5 -121t-119.5 -42q-102 0 -175 63l-39 -76q89 -72 214 -72
q111 0 186 60.5t75 178.5zM472 250q0 -76 -48 -125.5t-123 -49.5t-119 50.5t-44 124.5t44 124.5t119 50.5t123 -49.5t48 -125.5z" />
    <glyph glyph-name="Gdotaccent" unicode="&#x120;" horiz-adv-x="735" 
d="M337 830q0 27 18.5 46t46.5 19q27 0 46 -19t19 -46q0 -28 -19 -46.5t-46 -18.5q-28 0 -46.5 18.5t-18.5 46.5zM409 621q40 0 63 -2t65 -17t88 -45l39 77q-103 77 -255 77q-150 0 -256.5 -106t-106.5 -257q0 -150 106.5 -254.5t265.5 -104.5q153 0 261 98v263h-288v-81
h197v-143q-73 -47 -165 -47q-130 0 -202.5 80t-72.5 190q0 114 76.5 193t184.5 79z" />
    <glyph glyph-name="gdotaccent" unicode="&#x121;" horiz-adv-x="644" 
d="M232 643q0 29 19 48.5t48 19.5t48.5 -19.5t19.5 -48.5t-19.5 -48t-48.5 -19t-48 19t-19 48zM567 4v496h-97v-80q-64 91 -181 91q-110 0 -179 -75.5t-69 -185.5t69 -185.5t179 -75.5q117 0 181 91v-67q0 -79 -44.5 -121t-119.5 -42q-102 0 -175 63l-39 -76q89 -72 214 -72
q111 0 186 60.5t75 178.5zM472 250q0 -76 -48 -125.5t-123 -49.5t-119 50.5t-44 124.5t44 124.5t119 50.5t123 -49.5t48 -125.5z" />
    <glyph glyph-name="Gcommaaccent" unicode="&#x122;" horiz-adv-x="735" 
d="M409 621q-108 0 -184.5 -79t-76.5 -193q0 -110 72.5 -190t202.5 -80q92 0 165 47v143h-197v81h288v-263q-108 -98 -261 -98q-159 0 -265.5 104.5t-106.5 254.5q0 151 106.5 257t256.5 106q152 0 255 -77l-39 -77q-46 30 -88 45t-65 17t-63 2zM368 -293l-17 36
q43 14 60.5 35t17.5 52q-33 -11 -56 6t-23 44q-1 28 16 46t48 18q39 0 57 -27t18 -55q0 -117 -121 -155z" />
    <glyph glyph-name="gcommaaccent" unicode="&#x123;" horiz-adv-x="643" 
d="M341 812l17 -36q-43 -14 -60.5 -35t-17.5 -52q33 11 56 -6t23 -44q1 -28 -16 -46t-48 -18q-39 0 -57 27t-18 55q0 117 121 155zM566 4v496h-97v-80q-64 91 -181 91q-110 0 -179 -75.5t-69 -185.5t69 -185.5t179 -75.5q117 0 181 91v-67q0 -79 -44.5 -121t-119.5 -42
q-102 0 -175 63l-39 -76q89 -72 214 -72q111 0 186 60.5t75 178.5zM471 250q0 -76 -48 -125.5t-123 -49.5t-119 50.5t-44 124.5t44 124.5t119 50.5t123 -49.5t48 -125.5z" />
    <glyph glyph-name="Hcircumflex" unicode="&#x124;" horiz-adv-x="723" 
d="M310 904h102l109 -139h-76l-84 86l-84 -86h-76zM525 293h-327v-293h-100v700h100v-326h327v326h100v-700h-100v293z" />
    <glyph glyph-name="hcircumflex" unicode="&#x125;" 
d="M74 884h102l109 -119h-76l-84 66l-84 -66h-76zM437 282v-282h97v282q0 115 -53 172t-139 57q-63 0 -107.5 -29t-60.5 -82v323h-97v-723h97v232q0 55 17.5 95.5t44.5 60.5t51.5 28.5t47.5 8.5q44 0 73 -34.5t29 -108.5z" />
    <glyph glyph-name="Hbar" unicode="&#x126;" horiz-adv-x="723" 
d="M525 374v100h-327v-100h327zM693 474h-68v-474h-100v293h-327v-293h-100v474h-68v62h68v164h100v-164h327v164h100v-164h68v-62z" />
    <glyph glyph-name="hbar" unicode="&#x127;" 
d="M437 0v282q0 74 -29 108.5t-73 34.5q-23 0 -47.5 -8.5t-51.5 -28.5t-44.5 -60.5t-17.5 -95.5v-232h-97v565h-72v52h72v106h97v-106h110v-52h-110v-165q16 53 60.5 82t107.5 29q86 0 139 -57t53 -172v-282h-97z" />
    <glyph glyph-name="Itilde" unicode="&#x128;" horiz-adv-x="296" 
d="M198 0v700h-100v-700h100zM301 889q-14 -56 -34.5 -80t-53.5 -24q-23 0 -66.5 20t-58.5 20q-17 0 -26.5 -10.5t-21.5 -38.5l-44 13q14 56 34.5 80t53.5 24q23 0 66.5 -20t58.5 -20q17 0 26.5 10.5t21.5 38.5z" />
    <glyph glyph-name="itilde" unicode="&#x129;" horiz-adv-x="257" 
d="M177 0v500h-97v-500h97zM277 699q-14 -56 -34.5 -80t-53.5 -24q-23 0 -66.5 20t-58.5 20q-17 0 -26.5 -10.5t-21.5 -38.5l-44 13q14 56 34.5 80t53.5 24q23 0 66.5 -20t58.5 -20q17 0 26.5 10.5t21.5 38.5z" />
    <glyph glyph-name="Imacron" unicode="&#x12a;" horiz-adv-x="296" 
d="M198 700v-700h-100v700h100zM9 858h279v-76h-279v76z" />
    <glyph glyph-name="imacron" unicode="&#x12b;" horiz-adv-x="257" 
d="M177 500v-500h-97v500h97zM-14 679h279v-76h-279v76z" />
    <glyph glyph-name="Ibreve" unicode="&#x12c;" horiz-adv-x="296" 
d="M198 0v700h-100v-700h100zM221 903l59 -4q-6 -66 -45 -100t-87 -34t-86.5 34t-44.5 100l59 4q15 -75 72 -75q58 0 73 75z" />
    <glyph glyph-name="ibreve" unicode="&#x12d;" horiz-adv-x="257" 
d="M177 0v500h-97v-500h97zM199 722l63 -5q-5 -75 -45 -109.5t-92 -34.5t-92 34.5t-45 109.5l63 5q6 -77 74 -77t74 77z" />
    <glyph glyph-name="Iogonek" unicode="&#x12e;" horiz-adv-x="296" 
d="M198 700v-700q-55 0 -87 -29.5t-32 -66.5q0 -25 18 -40t41 -15q55 0 82 59l43 -24q-12 -47 -46.5 -77t-81.5 -30q-49 0 -88 29t-39 84q0 35 22.5 66.5t67.5 47.5v696h100z" />
    <glyph glyph-name="iogonek" unicode="&#x12f;" horiz-adv-x="258" 
d="M62 661q0 29 19 48.5t48 19.5t48.5 -19.5t19.5 -48.5t-19.5 -48t-48.5 -19t-48 19t-19 48zM81 11v489h97v-500q-55 0 -87 -29.5t-32 -66.5q0 -25 18 -40t41 -15q55 0 82 59l43 -24q-12 -47 -46.5 -77t-81.5 -30q-49 0 -88 29t-39 84q0 36 23.5 72t69.5 49z" />
    <glyph glyph-name="Idotaccent" unicode="&#x130;" horiz-adv-x="296" 
d="M198 0v700h-100v-700h100zM83 830q0 27 18.5 46t46.5 19q27 0 46 -19t19 -46q0 -28 -19 -46.5t-46 -18.5q-28 0 -46.5 18.5t-18.5 46.5z" />
    <glyph glyph-name="dotlessi" unicode="&#x131;" horiz-adv-x="257" 
d="M177 500v-500h-97v500h97z" />
    <glyph glyph-name="IJ" unicode="&#x132;" horiz-adv-x="962" 
d="M198 700v-700h-100v700h100zM876 700v-383q0 -160 -74 -244t-212 -84q-132 0 -198 73.5t-66 178.5q0 16 5.5 44t13.5 42h95q-17 -42 -17 -81q0 -71 41.5 -119t124.5 -48q92 0 139.5 62t47.5 176v383h100z" />
    <glyph glyph-name="ij" unicode="&#x133;" horiz-adv-x="551" 
d="M177 0v500h-97v-500h97zM61 661q0 29 19 48.5t48 19.5t48.5 -19.5t19.5 -48.5t-19.5 -48t-48.5 -19t-48 19t-19 48zM374 500v-590q0 -29 -17 -44.5t-43 -15.5q-25 0 -41.5 14.5t-16.5 40.5q0 24 8 41h-88q-7 -18 -8 -35q-1 -6 -1 -19q0 -56 39 -91.5t109 -35.5
q64 0 110 36.5t46 103.5v595h-97zM355 661q0 29 19 48.5t48 19.5t48.5 -19.5t19.5 -48.5t-19.5 -48t-48.5 -19t-48 19t-19 48z" />
    <glyph glyph-name="Jcircumflex" unicode="&#x134;" horiz-adv-x="666" 
d="M580 700v-383q0 -160 -74 -244t-212 -84q-132 0 -198 73.5t-66 178.5q0 16 5.5 44t13.5 42h95q-17 -42 -17 -81q0 -71 41.5 -119t124.5 -48q92 0 139.5 62t47.5 176v383h100zM478 904h102l109 -139h-76l-84 86l-84 -86h-76z" />
    <glyph glyph-name="jcircumflex" unicode="&#x135;" horiz-adv-x="294" 
d="M117 500v-590q0 -29 -17 -44.5t-43 -15.5q-25 0 -41.5 14.5t-16.5 40.5q0 24 8 41h-88q-7 -18 -8 -35q-1 -6 -1 -19q0 -56 39 -91.5t109 -35.5q64 0 110 36.5t46 103.5v595h-97zM114 723h102l118 -150h-76l-93 92l-93 -92h-76z" />
    <glyph glyph-name="Kcommaaccent" unicode="&#x136;" horiz-adv-x="635" 
d="M285 -293l-17 36q43 14 60.5 35t17.5 52q-33 -11 -56 6t-23 44q-1 28 16 46t48 18q39 0 57 -27t18 -55q0 -117 -121 -155zM197 358l247 342h108v-11l-258 -352l131 -177q61 -84 111 -84q42 0 74 26l36 -70q-17 -21 -54 -32t-67 -11q-36 0 -67.5 12.5t-56.5 37.5t-37 40.5
t-31 43.5l-136 188v-311h-100v700h100v-342z" />
    <glyph glyph-name="kcommaaccent" unicode="&#x137;" horiz-adv-x="539" 
d="M173 290l172 210h108v-11l-183 -219l85 -129q2 -3 11.5 -16t11.5 -15.5t9.5 -11.5t11.5 -11t11.5 -6.5t15.5 -5.5t17 -1q42 0 65 19l33 -65q-39 -39 -109 -39q-23 0 -43.5 6t-33 11.5t-28 21t-20.5 21t-18.5 25.5t-14.5 21l-101 162v-257h-97v723h97v-433zM219 -293
l-17 36q43 14 60.5 35t17.5 52q-33 -11 -56 6t-23 44q-1 28 16 46t48 18q39 0 57 -27t18 -55q0 -117 -121 -155z" />
    <glyph glyph-name="kgreenlandic" unicode="&#x138;" horiz-adv-x="545" 
d="M173 266l210 234h104v-12l-218 -238l112 -131q18 -20 25 -26.5t20.5 -13.5t28.5 -7q21 0 51 23l34 -66q-40 -40 -102 -40q-20 0 -35 3.5t-29.5 14t-22.5 18.5t-26.5 29t-30.5 33l-120 141v-228h-97v500h96v-234z" />
    <glyph glyph-name="Lacute" unicode="&#x139;" horiz-adv-x="533" 
d="M175 904h103l-98 -139h-83zM518 0v82h-320v618h-100v-700h420z" />
    <glyph glyph-name="lacute" unicode="&#x13a;" horiz-adv-x="257" 
d="M162 904h103l-98 -139h-83zM177 0v723h-97v-723h97z" />
    <glyph glyph-name="Lcommaaccent" unicode="&#x13b;" horiz-adv-x="533" 
d="M518 82v-82h-420v700h100v-618h320zM271 -293l-17 36q43 14 60.5 35t17.5 52q-33 -11 -56 6t-23 44q-1 28 16 46t48 18q39 0 57 -27t18 -55q0 -117 -121 -155z" />
    <glyph glyph-name="lcommaaccent" unicode="&#x13c;" horiz-adv-x="257" 
d="M177 723v-723h-97v723h97zM79 -293l-17 36q43 14 60.5 35t17.5 52q-33 -11 -56 6t-23 44q-1 28 16 46t48 18q39 0 57 -27t18 -55q0 -117 -121 -155z" />
    <glyph glyph-name="Lcaron" unicode="&#x13d;" horiz-adv-x="538" 
d="M517 0v82h-320v618h-100v-700h420zM365 474l-17 36q43 14 60.5 35t17.5 52q-33 -11 -56 6t-23 44q-1 28 16 46t48 18q39 0 57 -27t18 -55q0 -117 -121 -155z" />
    <glyph glyph-name="lcaron" unicode="&#x13e;" horiz-adv-x="272" 
d="M177 0v723h-97v-723h97zM249 496l-17 36q43 14 60.5 35t17.5 52q-33 -11 -56 6t-23 44q-1 28 16 46t48 18q39 0 57 -27t18 -55q0 -117 -121 -155z" />
    <glyph glyph-name="Ldot" unicode="&#x13f;" horiz-adv-x="546" 
d="M339 313q0 27 18.5 46t46.5 19q27 0 46 -19t19 -46q0 -28 -19 -46.5t-46 -18.5q-28 0 -46.5 18.5t-18.5 46.5zM518 82v-82h-420v700h100v-618h320z" />
    <glyph glyph-name="ldot" unicode="&#x140;" horiz-adv-x="326" 
d="M231 313q0 27 18.5 46t46.5 19q27 0 46 -19t19 -46q0 -28 -19 -46.5t-46 -18.5q-28 0 -46.5 18.5t-18.5 46.5zM177 723v-723h-97v723h97z" />
    <glyph glyph-name="Lslash" unicode="&#x141;" horiz-adv-x="536" 
d="M201 391l158 68v-65l-158 -68v-244h320v-82h-420v283l-85 -37v65l85 37v352h100v-309z" />
    <glyph glyph-name="lslash" unicode="&#x142;" horiz-adv-x="305" 
d="M186 365l101 44v-65l-101 -44v-300h-97v258l-73 -32v65l73 32v400h97v-358z" />
    <glyph glyph-name="Nacute" unicode="&#x143;" horiz-adv-x="754" 
d="M397 904h103l-98 -139h-83zM198 518l384 -518h74v700h-101v-516l-383 516h-74v-700h100v518z" />
    <glyph glyph-name="nacute" unicode="&#x144;" horiz-adv-x="604" 
d="M437 282v-282h97v282q0 115 -53 172t-139 57q-63 0 -107.5 -29t-60.5 -82v100h-97v-500h97v232q0 55 17.5 95.5t44.5 60.5t51.5 28.5t47.5 8.5q44 0 73 -34.5t29 -108.5zM335 723h109l-111 -150h-85z" />
    <glyph glyph-name="Ncommaaccent" unicode="&#x145;" horiz-adv-x="754" 
d="M582 0l-384 518v-518h-100v700h74l383 -516v516h101v-700h-74zM330 -293l-17 36q43 14 60.5 35t17.5 52q-33 -11 -56 6t-23 44q-1 28 16 46t48 18q39 0 57 -27t18 -55q0 -117 -121 -155z" />
    <glyph glyph-name="ncommaaccent" unicode="&#x146;" horiz-adv-x="604" 
d="M437 0v282q0 74 -29 108.5t-73 34.5q-23 0 -47.5 -8.5t-51.5 -28.5t-44.5 -60.5t-17.5 -95.5v-232h-97v500h97v-100q16 53 60.5 82t107.5 29q86 0 139 -57t53 -172v-282h-97zM263 -293l-17 36q43 14 60.5 35t17.5 52q-33 -11 -56 6t-23 44q-1 28 16 46t48 18q39 0 57 -27
t18 -55q0 -117 -121 -155z" />
    <glyph glyph-name="Ncaron" unicode="&#x147;" horiz-adv-x="754" 
d="M430 765h-102l-109 139h76l84 -86l84 86h76zM198 518l384 -518h74v700h-101v-516l-383 516h-74v-700h100v518z" />
    <glyph glyph-name="ncaron" unicode="&#x148;" horiz-adv-x="604" 
d="M437 282v-282h97v282q0 115 -53 172t-139 57q-63 0 -107.5 -29t-60.5 -82v100h-97v-500h97v232q0 55 17.5 95.5t44.5 60.5t51.5 28.5t47.5 8.5q44 0 73 -34.5t29 -108.5zM348 573h-102l-118 150h76l93 -92l93 92h76z" />
    <glyph glyph-name="napostrophe" unicode="&#x149;" horiz-adv-x="683" 
d="M531 282v-282h97v282q0 115 -53 172t-139 57q-63 0 -107.5 -29t-60.5 -82v100h-97v-500h97v232q0 55 17.5 95.5t44.5 60.5t51.5 28.5t47.5 8.5q44 0 73 -34.5t29 -108.5zM40 505l-17 36q43 14 60.5 35t17.5 52q-33 -11 -56 6t-23 44q-1 28 16 46t48 18q39 0 57 -27
t18 -55q0 -117 -121 -155z" />
    <glyph glyph-name="Eng" unicode="&#x14a;" horiz-adv-x="752" 
d="M528 96l-331 422v-518h-100v700h74l383 -486v486h101v-585v-22q0 -160 -74.5 -244t-212.5 -84l-1 90q80 0 126 47t57 133q4 30 -22 61z" />
    <glyph glyph-name="eng" unicode="&#x14b;" horiz-adv-x="602" 
d="M533 282v-190v-21q0 -149 -69.5 -227.5t-198.5 -78.5l-1 84q80 0 126 54t46 149v230q0 74 -29 108.5t-73 34.5q-23 0 -47.5 -8.5t-51.5 -28.5t-44.5 -60.5t-17.5 -95.5v-232h-97v500h97v-100q16 53 60.5 82t107.5 29q86 0 139 -57t53 -172z" />
    <glyph glyph-name="Omacron" unicode="&#x14c;" horiz-adv-x="818" 
d="M46 350q0 149 106.5 255t256.5 106t256.5 -106t106.5 -255t-106.5 -255t-256.5 -106t-256.5 106t-106.5 255zM148 350q0 -115 76 -193t185 -78t185 78t76 193t-76 193t-185 78t-185 -78t-76 -193zM269 858h279v-76h-279v76z" />
    <glyph glyph-name="omacron" unicode="&#x14d;" 
d="M39 250q0 108 77 184.5t185 76.5q109 0 186 -76.5t77 -184.5t-77 -184.5t-186 -76.5q-108 0 -185 76.5t-77 184.5zM136 249q0 -72 48.5 -123t116.5 -51q69 0 117.5 51t48.5 123t-48.5 124t-117.5 52q-68 0 -116.5 -52t-48.5 -124zM162 679h279v-76h-279v76z" />
    <glyph glyph-name="Obreve" unicode="&#x14e;" horiz-adv-x="818" 
d="M46 350q0 149 106.5 255t256.5 106t256.5 -106t106.5 -255t-106.5 -255t-256.5 -106t-256.5 106t-106.5 255zM148 350q0 -115 76 -193t185 -78t185 78t76 193t-76 193t-185 78t-185 -78t-76 -193zM481 903l59 -4q-6 -66 -45 -100t-87 -34t-86.5 34t-44.5 100l59 4
q15 -75 72 -75q58 0 73 75z" />
    <glyph glyph-name="obreve" unicode="&#x14f;" 
d="M39 250q0 108 77 184.5t185 76.5q109 0 186 -76.5t77 -184.5t-77 -184.5t-186 -76.5q-108 0 -185 76.5t-77 184.5zM136 249q0 -72 48.5 -123t116.5 -51q69 0 117.5 51t48.5 123t-48.5 124t-117.5 52q-68 0 -116.5 -52t-48.5 -124zM375 722l63 -5q-5 -75 -45 -109.5
t-92 -34.5t-92 34.5t-45 109.5l63 5q6 -77 74 -77t74 77z" />
    <glyph glyph-name="Ohungarumlaut" unicode="&#x150;" horiz-adv-x="818" 
d="M375 904h91l-86 -139h-85zM538 904h91l-86 -139h-85zM46 350q0 149 106.5 255t256.5 106t256.5 -106t106.5 -255t-106.5 -255t-256.5 -106t-256.5 106t-106.5 255zM148 350q0 -115 76 -193t185 -78t185 78t76 193t-76 193t-185 78t-185 -78t-76 -193z" />
    <glyph glyph-name="ohungarumlaut" unicode="&#x151;" 
d="M39 250q0 108 77 184.5t185 76.5q109 0 186 -76.5t77 -184.5t-77 -184.5t-186 -76.5q-108 0 -185 76.5t-77 184.5zM136 249q0 -72 48.5 -123t116.5 -51q69 0 117.5 51t48.5 123t-48.5 124t-117.5 52q-68 0 -116.5 -52t-48.5 -124zM256 723h91l-93 -150h-85zM419 723h91
l-93 -150h-85z" />
    <glyph glyph-name="OE" unicode="&#x152;" horiz-adv-x="969" 
d="M399 82h83v536h-83q-109 0 -180.5 -71t-71.5 -186q0 -116 72.5 -197.5t179.5 -81.5zM920 0h-521q-149 0 -250.5 105.5t-101.5 255.5q0 148 100.5 243.5t251.5 95.5h521v-82h-338v-229h293v-82h-293v-225h-1h339v-82z" />
    <glyph glyph-name="oe" unicode="&#x153;" horiz-adv-x="929" 
d="M822 138l54 -56q-83 -93 -219 -93q-116 0 -185 63q-76 -63 -171 -63q-108 0 -185 76.5t-77 184.5t77 184.5t185 76.5q95 0 171 -63q69 63 172 63q107 0 179.5 -69.5t72.5 -200.5h-409q-2 -74 43.5 -120t127.5 -46q90 0 164 63zM136 249q0 -72 48.5 -123t116.5 -51
q67 0 116 49q-28 57 -28 124q0 66 29 126q-51 51 -117 51q-68 0 -116.5 -52t-48.5 -124zM646 426q-114 0 -154 -110h307q-33 110 -153 110z" />
    <glyph glyph-name="Racute" unicode="&#x154;" horiz-adv-x="685" 
d="M333 904h103l-98 -139h-83zM97 0h100v265h143q4 -38 16 -80t36 -89t68 -77t102 -30q77 0 123 49l-35 68q-32 -32 -82 -32q-53 0 -89.5 63.5t-43.5 131.5q78 16 121.5 73.5t43.5 137.5q0 92 -57 156t-154 64h-292v-700zM368 345h-171v273h171q59 0 93.5 -37.5t34.5 -99.5
q0 -61 -34.5 -98.5t-93.5 -37.5z" />
    <glyph glyph-name="racute" unicode="&#x155;" horiz-adv-x="366" 
d="M169 723h109l-111 -150h-85zM174 500v-113q12 59 49 91.5t85 32.5q22 0 46 -11v-95q-23 13 -53 13q-13 0 -26 -3t-32.5 -17t-33.5 -36.5t-24.5 -67.5t-10.5 -105v-189h-97v500h97z" />
    <glyph glyph-name="Rcommaaccent" unicode="&#x156;" horiz-adv-x="685" 
d="M197 0h-100v700h292q97 0 154 -64t57 -156q0 -80 -43.5 -137.5t-121.5 -73.5q7 -68 43.5 -131.5t89.5 -63.5q50 0 82 32l35 -68q-46 -49 -123 -49q-58 0 -102 30t-68 77t-36 89t-16 80h-143v-265zM197 345h171q59 0 93.5 37.5t34.5 98.5q0 62 -34.5 99.5t-93.5 37.5h-171
v-273zM282 -293l-17 36q43 14 60.5 35t17.5 52q-33 -11 -56 6t-23 44q-1 28 16 46t48 18q39 0 57 -27t18 -55q0 -117 -121 -155z" />
    <glyph glyph-name="rcommaaccent" unicode="&#x157;" horiz-adv-x="366" 
d="M174 500v-113q12 59 49 91.5t85 32.5q22 0 46 -11v-95q-23 13 -53 13q-13 0 -26 -3t-32.5 -17t-33.5 -36.5t-24.5 -67.5t-10.5 -105v-189h-97v500h97zM80 -293l-17 36q43 14 60.5 35t17.5 52q-33 -11 -56 6t-23 44q-1 28 16 46t48 18q39 0 57 -27t18 -55
q0 -117 -121 -155z" />
    <glyph glyph-name="Rcaron" unicode="&#x158;" horiz-adv-x="685" 
d="M360 765h-102l-109 139h76l84 -86l84 86h76zM97 0h100v265h143q4 -38 16 -80t36 -89t68 -77t102 -30q77 0 123 49l-35 68q-32 -32 -82 -32q-53 0 -89.5 63.5t-43.5 131.5q78 16 121.5 73.5t43.5 137.5q0 92 -57 156t-154 64h-292v-700zM368 345h-171v273h171
q59 0 93.5 -37.5t34.5 -99.5q0 -61 -34.5 -98.5t-93.5 -37.5z" />
    <glyph glyph-name="rcaron" unicode="&#x159;" horiz-adv-x="366" 
d="M244 573h-102l-118 150h76l93 -92l93 92h76zM174 500v-113q12 59 49 91.5t85 32.5q22 0 46 -11v-95q-23 13 -53 13q-13 0 -26 -3t-32.5 -17t-33.5 -36.5t-24.5 -67.5t-10.5 -105v-189h-97v500h97z" />
    <glyph glyph-name="Sacute" unicode="&#x15a;" horiz-adv-x="580" 
d="M33 164l94 24q10 -46 54 -78t108 -32q68 0 108 30t40 77q0 72 -103 110l-105 36q-162 53 -162 187q0 87 66 140t159 53q92 0 152.5 -45.5t76.5 -120.5l-90 -27q-25 103 -139 103q-52 0 -88 -27.5t-36 -73.5q0 -19 5 -33t26.5 -33t59.5 -34l106 -40q82 -25 126 -77.5
t44 -110.5q0 -93 -66.5 -148t-177.5 -55q-101 0 -170 49.5t-88 125.5zM306 904h103l-98 -139h-83z" />
    <glyph glyph-name="sacute" unicode="&#x15b;" horiz-adv-x="441" 
d="M302 373l86 19q-18 63 -64 91t-103 28q-73 0 -119 -42.5t-46 -106.5q0 -99 123 -136l67 -23q30 -10 46.5 -24.5t16.5 -38.5q0 -29 -24 -48.5t-62 -19.5t-68.5 19.5t-39.5 49.5l-86 -21q17 -62 70.5 -96.5t122.5 -34.5q76 0 128 40.5t52 109.5q0 104 -120 141l-72 24
q-60 21 -60 60q0 28 20.5 46t53.5 18q58 0 78 -55zM244 723h109l-111 -150h-85z" />
    <glyph glyph-name="Scircumflex" unicode="&#x15c;" horiz-adv-x="580" 
d="M33 164l94 24q10 -46 54 -78t108 -32q68 0 108 30t40 77q0 72 -103 110l-105 36q-162 53 -162 187q0 87 66 140t159 53q92 0 152.5 -45.5t76.5 -120.5l-90 -27q-25 103 -139 103q-52 0 -88 -27.5t-36 -73.5q0 -19 5 -33t26.5 -33t59.5 -34l106 -40q82 -25 126 -77.5
t44 -110.5q0 -93 -66.5 -148t-177.5 -55q-101 0 -170 49.5t-88 125.5zM239 904h102l109 -139h-76l-84 86l-84 -86h-76z" />
    <glyph glyph-name="scircumflex" unicode="&#x15d;" horiz-adv-x="441" 
d="M302 373l86 19q-18 63 -64 91t-103 28q-73 0 -119 -42.5t-46 -106.5q0 -99 123 -136l67 -23q30 -10 46.5 -24.5t16.5 -38.5q0 -29 -24 -48.5t-62 -19.5t-68.5 19.5t-39.5 49.5l-86 -21q17 -62 70.5 -96.5t122.5 -34.5q76 0 128 40.5t52 109.5q0 104 -120 141l-72 24
q-60 21 -60 60q0 28 20.5 46t53.5 18q58 0 78 -55zM178 723h102l118 -150h-76l-93 92l-93 -92h-76z" />
    <glyph glyph-name="Scedilla" unicode="&#x15e;" horiz-adv-x="580" 
d="M293 -11h-2q-101 0 -170 49.5t-88 125.5l94 24q10 -46 54 -78t108 -32q68 0 108 30t40 77q0 72 -103 110l-105 36q-162 53 -162 187q0 87 66 140t159 53q92 0 152.5 -45.5t76.5 -120.5l-90 -27q-25 103 -139 103q-52 0 -88 -27.5t-36 -73.5q0 -19 5 -33t26.5 -33
t59.5 -34l106 -40q82 -25 126 -77.5t44 -110.5q0 -80 -50.5 -133t-138.5 -66q46 -47 46 -103q0 -55 -39 -84t-88 -29q-47 0 -81.5 30t-46.5 77l43 24q27 -59 82 -59q23 0 41 16.5t18 44.5q0 38 -28 79z" />
    <glyph glyph-name="scedilla" unicode="&#x15f;" horiz-adv-x="442" 
d="M389 392l-86 -19q-20 55 -78 55q-33 0 -53.5 -18t-20.5 -46q0 -39 60 -60l72 -24q120 -37 120 -141q0 -58 -36.5 -95.5t-96.5 -49.5q47 -48 47 -104q0 -55 -39 -84t-88 -29q-47 0 -81.5 30t-46.5 77l43 24q27 -59 82 -59q23 0 41 16.5t18 44.5q0 39 -27 79
q-66 0 -120 35.5t-69 95.5l86 21q9 -30 39.5 -49.5t68.5 -19.5t62 19.5t24 48.5q0 24 -16.5 38.5t-46.5 24.5l-67 23q-123 37 -123 136q0 64 46 106.5t119 42.5q57 0 103 -28t64 -91z" />
    <glyph glyph-name="Scaron" unicode="&#x160;" horiz-adv-x="580" 
d="M33 164l94 24q10 -46 54 -78t108 -32q68 0 108 30t40 77q0 72 -103 110l-105 36q-162 53 -162 187q0 87 66 140t159 53q92 0 152.5 -45.5t76.5 -120.5l-90 -27q-25 103 -139 103q-52 0 -88 -27.5t-36 -73.5q0 -19 5 -33t26.5 -33t59.5 -34l106 -40q82 -25 126 -77.5
t44 -110.5q0 -93 -66.5 -148t-177.5 -55q-101 0 -170 49.5t-88 125.5zM342 765h-102l-109 139h76l84 -86l84 86h76z" />
    <glyph glyph-name="scaron" unicode="&#x161;" horiz-adv-x="441" 
d="M302 373l86 19q-18 63 -64 91t-103 28q-73 0 -119 -42.5t-46 -106.5q0 -99 123 -136l67 -23q30 -10 46.5 -24.5t16.5 -38.5q0 -29 -24 -48.5t-62 -19.5t-68.5 19.5t-39.5 49.5l-86 -21q17 -62 70.5 -96.5t122.5 -34.5q76 0 128 40.5t52 109.5q0 104 -120 141l-72 24
q-60 21 -60 60q0 28 20.5 46t53.5 18q58 0 78 -55zM280 573h-102l-118 150h76l93 -92l93 92h76z" />
    <glyph glyph-name="Tcommaaccent" unicode="&#x162;" horiz-adv-x="602" 
d="M18 700h566v-82h-233v-618h-100v618h-233v82zM251 -293l-17 36q43 14 60.5 35t17.5 52q-33 -11 -56 6t-23 44q-1 28 16 46t48 18q39 0 57 -27t18 -55q0 -117 -121 -155z" />
    <glyph glyph-name="tcommaaccent" unicode="&#x163;" horiz-adv-x="419" 
d="M198 424v-273q0 -77 60 -77q25 0 43 14.5t18 40.5q0 24 -8 41h85q7 -18 8 -34q1 -7 1 -20q0 -56 -39 -91.5t-109 -35.5q-67 0 -111.5 40t-44.5 129v266h-82v76h82l22 144h75v-144h159v-76h-159zM190 -293l-17 36q43 14 60.5 35t17.5 52q-33 -11 -56 6t-23 44q-1 28 16 46
t48 18q39 0 57 -27t18 -55q0 -117 -121 -155z" />
    <glyph glyph-name="Tcaron" unicode="&#x164;" horiz-adv-x="602" 
d="M18 700h566v-82h-233v-618h-100v618h-233v82zM353 765h-102l-109 139h76l84 -86l84 86h76z" />
    <glyph glyph-name="tcaron" unicode="&#x165;" horiz-adv-x="419" 
d="M198 424v-273q0 -77 60 -77q25 0 43 14.5t18 40.5q0 24 -8 41h85q7 -18 8 -34q1 -7 1 -20q0 -56 -39 -91.5t-109 -35.5q-67 0 -111.5 40t-44.5 129v266h-82v76h82l22 144h75v-144h159v-76h-159zM322 573l-17 36q43 14 60.5 35t17.5 52q-33 -11 -56 6t-23 44q-1 28 16 46
t48 18q39 0 57 -27t18 -55q0 -117 -121 -155z" />
    <glyph glyph-name="Tbar" unicode="&#x166;" horiz-adv-x="618" 
d="M259 0v354h-152v62h152v202h-233v82h566v-82h-233v-202h153v-62h-153v-354h-100z" />
    <glyph glyph-name="tbar" unicode="&#x167;" horiz-adv-x="420" 
d="M199 424v-123h121v-61h-121v-89q0 -77 60 -77q25 0 43 14.5t18 40.5q0 24 -8 41h85q7 -18 8 -34q1 -7 1 -20q0 -56 -39 -91.5t-109 -35.5q-67 0 -111.5 40t-44.5 129v82h-72v61h72v123h-82v76h82l22 144h75v-144h159v-76h-159z" />
    <glyph glyph-name="Utilde" unicode="&#x168;" horiz-adv-x="730" 
d="M542 700h100v-441q0 -127 -79.5 -198.5t-197.5 -71.5t-197.5 71.5t-79.5 198.5v441h100v-441q0 -87 50.5 -133.5t126.5 -46.5t126.5 46.5t50.5 133.5v441zM476 902l44 -13q-14 -56 -34.5 -80t-53.5 -24q-23 0 -66.5 20t-58.5 20q-17 0 -26.5 -10.5t-21.5 -38.5l-44 13
q14 56 34.5 80t53.5 24q23 0 66.5 -20t58.5 -20q17 0 26.5 10.5t21.5 38.5z" />
    <glyph glyph-name="utilde" unicode="&#x169;" 
d="M166 218v282h-97v-282q0 -115 53 -172t139 -57q63 0 107.5 29t60.5 82v-100h97v500h-97v-232q0 -55 -17.5 -95.5t-44.5 -60.5t-51.5 -28.5t-47.5 -8.5q-44 0 -73 34.5t-29 108.5zM450 699q-14 -56 -34.5 -80t-53.5 -24q-23 0 -66.5 20t-58.5 20q-17 0 -26.5 -10.5
t-21.5 -38.5l-44 13q14 56 34.5 80t53.5 24q23 0 66.5 -20t58.5 -20q17 0 26.5 10.5t21.5 38.5z" />
    <glyph glyph-name="Umacron" unicode="&#x16a;" horiz-adv-x="730" 
d="M542 700h100v-441q0 -127 -79.5 -198.5t-197.5 -71.5t-197.5 71.5t-79.5 198.5v441h100v-441q0 -87 50.5 -133.5t126.5 -46.5t126.5 46.5t50.5 133.5v441zM225 858h279v-76h-279v76z" />
    <glyph glyph-name="umacron" unicode="&#x16b;" 
d="M166 500v-282q0 -74 29 -108.5t73 -34.5q23 0 47.5 8.5t51.5 28.5t44.5 60.5t17.5 95.5v232h97v-500h-97v100q-16 -53 -60.5 -82t-107.5 -29q-86 0 -139 57t-53 172v282h97zM165 679h279v-76h-279v76z" />
    <glyph glyph-name="Ubreve" unicode="&#x16c;" horiz-adv-x="730" 
d="M542 700h100v-441q0 -127 -79.5 -198.5t-197.5 -71.5t-197.5 71.5t-79.5 198.5v441h100v-441q0 -87 50.5 -133.5t126.5 -46.5t126.5 46.5t50.5 133.5v441zM437 903l59 -4q-6 -66 -45 -100t-87 -34t-86.5 34t-44.5 100l59 4q15 -75 72 -75q58 0 73 75z" />
    <glyph glyph-name="ubreve" unicode="&#x16d;" 
d="M166 218v282h-97v-282q0 -115 53 -172t139 -57q63 0 107.5 29t60.5 82v-100h97v500h-97v-232q0 -55 -17.5 -95.5t-44.5 -60.5t-51.5 -28.5t-47.5 -8.5q-44 0 -73 34.5t-29 108.5zM379 722l63 -5q-5 -75 -45 -109.5t-92 -34.5t-92 34.5t-45 109.5l63 5q6 -77 74 -77t74 77
z" />
    <glyph glyph-name="Uring" unicode="&#x16e;" horiz-adv-x="730" 
d="M542 700h100v-441q0 -127 -79.5 -198.5t-197.5 -71.5t-197.5 71.5t-79.5 198.5v441h100v-441q0 -87 50.5 -133.5t126.5 -46.5t126.5 46.5t50.5 133.5v441zM260 848q0 44 30 72.5t75 28.5q46 0 76 -28t30 -73q0 -44 -30.5 -72t-75.5 -28t-75 28t-30 72zM310 848
q0 -23 16 -39t39 -16t39 16t16 39t-16 38.5t-39 15.5t-39 -15.5t-16 -38.5z" />
    <glyph glyph-name="uring" unicode="&#x16f;" 
d="M166 218v282h-97v-282q0 -115 53 -172t139 -57q63 0 107.5 29t60.5 82v-100h97v500h-97v-232q0 -55 -17.5 -95.5t-44.5 -60.5t-51.5 -28.5t-47.5 -8.5q-44 0 -73 34.5t-29 108.5zM199 678q0 44 30.5 75t74.5 31t75 -31t31 -75t-31 -74.5t-75 -30.5t-74.5 30.5t-30.5 74.5
zM249 678q0 -23 16 -39t39 -16t39 16t16 39t-16 39t-39 16t-39 -16t-16 -39z" />
    <glyph glyph-name="Uhungarumlaut" unicode="&#x170;" horiz-adv-x="730" 
d="M542 700h100v-441q0 -127 -79.5 -198.5t-197.5 -71.5t-197.5 71.5t-79.5 198.5v441h100v-441q0 -87 50.5 -133.5t126.5 -46.5t126.5 46.5t50.5 133.5v441zM308 904h91l-86 -139h-85zM471 904h91l-86 -139h-85z" />
    <glyph glyph-name="uhungarumlaut" unicode="&#x171;" 
d="M166 218v282h-97v-282q0 -115 53 -172t139 -57q63 0 107.5 29t60.5 82v-100h97v500h-97v-232q0 -55 -17.5 -95.5t-44.5 -60.5t-51.5 -28.5t-47.5 -8.5q-44 0 -73 34.5t-29 108.5zM245 723h91l-93 -150h-85zM408 723h91l-93 -150h-85z" />
    <glyph glyph-name="Uogonek" unicode="&#x172;" horiz-adv-x="730" 
d="M542 700h100v-441q0 -122 -72.5 -192.5t-183.5 -76.5q-49 -23 -49 -80q0 -28 18 -44.5t41 -16.5q55 0 82 59l43 -24q-12 -47 -46.5 -77t-81.5 -30q-49 0 -88 29t-39 84q0 28 19 58t51 41l1 1q-109 9 -179 79t-70 190v441h100v-441q0 -87 50.5 -133.5t126.5 -46.5
t126.5 46.5t50.5 133.5v441z" />
    <glyph glyph-name="uogonek" unicode="&#x173;" 
d="M526 500v-500q-55 0 -87 -29.5t-32 -66.5q0 -25 18 -40t41 -15q55 0 82 59l43 -24q-12 -47 -46.5 -77t-81.5 -30q-49 0 -88 29t-39 84q0 36 23.5 70.5t69.5 46.5v93q-16 -53 -60.5 -82t-107.5 -29q-86 0 -139 57t-53 172v282h97v-282q0 -74 29 -108.5t73 -34.5
q23 0 47.5 8.5t51.5 28.5t44.5 60.5t17.5 95.5v232h97z" />
    <glyph glyph-name="Wcircumflex" unicode="&#x174;" horiz-adv-x="994" 
d="M456 677h82l158 -509l167 532h100l-218 -700h-86l-162 526l-162 -526h-86l-218 700h100l167 -532zM445 904h102l109 -139h-76l-84 86l-84 -86h-76z" />
    <glyph glyph-name="wcircumflex" unicode="&#x175;" horiz-adv-x="822" 
d="M370 485l-114 -355l-130 370h-101l181 -500h92l113 348l113 -348h92l181 500h-101l-130 -370l-114 355h-82zM361 723h102l118 -150h-76l-93 92l-93 -92h-76z" />
    <glyph glyph-name="Ycircumflex" unicode="&#x176;" horiz-adv-x="678" 
d="M289 288l-265 401v11h110l204 -327l206 327h110v-11l-265 -401v-288h-100v288zM287 904h102l109 -139h-76l-84 86l-84 -86h-76z" />
    <glyph glyph-name="ycircumflex" unicode="&#x177;" horiz-adv-x="554" 
d="M282 127l142 373h113l-307 -724h-94l93 241l-211 483h111zM227 723h102l118 -150h-76l-93 92l-93 -92h-76z" />
    <glyph glyph-name="Ydieresis" unicode="&#x178;" horiz-adv-x="678" 
d="M289 288l-265 401v11h110l204 -327l206 327h110v-11l-265 -401v-288h-100v288zM169 827q0 27 18 45t44 18q27 0 45 -18t18 -45q0 -26 -18 -44t-45 -18q-26 0 -44 18t-18 44zM383 827q0 27 18 45t44 18q27 0 45 -18t18 -45q0 -26 -18 -44t-45 -18q-26 0 -44 18t-18 44z
" />
    <glyph glyph-name="Zacute" unicode="&#x179;" horiz-adv-x="643" 
d="M611 0v82h-453l430 542v76h-532v-82h400l-426 -542v-76h581zM327 904h103l-98 -139h-83z" />
    <glyph glyph-name="zacute" unicode="&#x17a;" horiz-adv-x="557" 
d="M525 0h-495v61l338 361h-316v78h452v-61l-338 -361h360zM289 723h109l-111 -150h-85z" />
    <glyph glyph-name="Zdotaccent" unicode="&#x17b;" horiz-adv-x="643" 
d="M611 0v82h-453l430 542v76h-532v-82h400l-426 -542v-76h581zM260 830q0 27 18.5 46t46.5 19q27 0 46 -19t19 -46q0 -28 -19 -46.5t-46 -18.5q-28 0 -46.5 18.5t-18.5 46.5z" />
    <glyph glyph-name="zdotaccent" unicode="&#x17c;" horiz-adv-x="557" 
d="M525 0h-495v61l338 361h-316v78h452v-61l-338 -361h360zM215 643q0 29 19 48.5t48 19.5t48.5 -19.5t19.5 -48.5t-19.5 -48t-48.5 -19t-48 19t-19 48z" />
    <glyph glyph-name="Zcaron" unicode="&#x17d;" horiz-adv-x="643" 
d="M611 0v82h-453l430 542v76h-532v-82h400l-426 -542v-76h581zM371 765h-102l-109 139h76l84 -86l84 86h76z" />
    <glyph glyph-name="zcaron" unicode="&#x17e;" horiz-adv-x="557" 
d="M525 0h-495v61l338 361h-316v78h452v-61l-338 -361h360zM329 573h-102l-118 150h76l93 -92l93 92h76z" />
    <glyph glyph-name="longs" unicode="&#x17f;" horiz-adv-x="306" 
d="M209 551v-551h-100v424h-79v76h79v38q0 195 166 195q71 0 110 -35t39 -91q0 -5 -1 -8q0 -10 -4 -19h-83q2 14 2 17q0 51 -62 51q-28 0 -47.5 -22.5t-19.5 -74.5z" />
    <glyph glyph-name="florin" unicode="&#x192;" horiz-adv-x="419" 
d="M233 324v-364q0 -57 -15.5 -97.5t-42 -60.5t-54.5 -28.5t-61 -8.5q-56 0 -91 29l34 66q34 -15 57 -15q73 0 73 100v379h-79v76h79v116q0 57 15.5 97.5t42 60.5t54.5 28.5t61 8.5q56 0 90 -24l-35 -69q-22 13 -52 13q-76 0 -76 -100v-131h131v-76h-131z" />
    <glyph glyph-name="Aringacute" unicode="&#x1fa;" horiz-adv-x="681" 
d="M356 1021h98l-67 -85q59 -25 59 -89q0 -44 -30 -71t-76 -27q-45 0 -75 27t-30 71q0 35 21 60.5t54 34.5zM285 847q0 -23 15.5 -35.5t39.5 -12.5t39.5 12.5t15.5 35.5t-15.5 35.5t-39.5 12.5t-39.5 -12.5t-15.5 -35.5zM482 226h-282l140 378zM170 145h342l55 -145h101
l-270 700h-116l-269 -700h103z" />
    <glyph glyph-name="aringacute" unicode="&#x1fb;" horiz-adv-x="643" 
d="M314 842h98l-67 -85q59 -25 59 -89q0 -44 -30 -71t-76 -27q-45 0 -75 27t-30 71q0 35 21 60.5t54 34.5zM243 668q0 -23 15.5 -35.5t39.5 -12.5t39.5 12.5t15.5 35.5t-15.5 35.5t-39.5 12.5t-39.5 -12.5t-15.5 -35.5zM40 250q0 -110 69 -185.5t179 -75.5q117 0 181 91v-80
h97v500h-97v-80q-64 91 -181 91q-110 0 -179 -75.5t-69 -185.5zM471 250q0 -76 -48 -125.5t-123 -49.5t-119 50.5t-44 124.5t44 124.5t119 50.5t123 -49.5t48 -125.5z" />
    <glyph glyph-name="AEacute" unicode="&#x1fc;" horiz-adv-x="927" 
d="M579 904h103l-98 -139h-83zM447 373h-149l129 245h20v-245zM876 82h-329v209h296v82h-296v245h329v82h-504l-378 -700h108l153 292h192v-292h429v82z" />
    <glyph glyph-name="aeacute" unicode="&#x1fd;" horiz-adv-x="934" 
d="M516 723h109l-111 -150h-85zM396 217l7 -57q-61 -96 -158 -96q-58 0 -87.5 26.5t-29.5 61.5q0 34 26.5 60t84.5 26q77 0 157 -21zM388 302v-17q-64 23 -158 23q-96 0 -147.5 -44t-51.5 -113q0 -76 57.5 -119t141.5 -43q74 0 127.5 31.5t78.5 82.5q73 -114 232 -114
q128 0 211 93l-54 56q-75 -63 -156 -63q-84 0 -137 47t-51 119h421q0 132 -70.5 201t-176.5 69q-124 0 -200 -90q-44 90 -188 90q-132 0 -199 -70l36 -70q68 54 155 54q129 0 129 -123zM657 426q112 0 145 -110h-310q22 59 67.5 84.5t97.5 25.5z" />
    <glyph glyph-name="Oslashacute" unicode="&#x1fe;" horiz-adv-x="818" 
d="M138 0l45 67q-64 51 -100.5 124.5t-36.5 158.5q0 149 106.5 255t256.5 106q95 0 177 -46l53 78l63 -43l-54 -79q58 -51 91 -121.5t33 -149.5q0 -149 -106.5 -255t-256.5 -106q-88 0 -161 37l-47 -69zM148 350q0 -127 88 -205l298 443q-58 33 -125 33q-109 0 -185 -78
t-76 -193zM670 350q0 114 -75 191l-295 -438q53 -24 109 -24q109 0 185 78t76 193zM435 904h103l-98 -139h-83z" />
    <glyph glyph-name="oslashacute" unicode="&#x1ff;" horiz-adv-x="604" 
d="M342 723h109l-111 -150h-85zM51 15l55 62q-66 76 -66 173q0 108 77 184.5t185 76.5q79 0 147 -46l51 58l48 -43l-50 -57q67 -77 67 -173q0 -108 -77 -184.5t-186 -76.5q-79 0 -148 45l-55 -62zM468 249q0 58 -32 104l-222 -251q40 -27 88 -27q69 0 117.5 51t48.5 123z
M137 249q0 -58 31 -102l222 251q-40 27 -88 27q-68 0 -116.5 -52t-48.5 -124z" />
    <glyph glyph-name="Scommaaccent" unicode="&#x218;" horiz-adv-x="580" 
d="M33 164l94 24q10 -46 54 -78t108 -32q68 0 108 30t40 77q0 72 -103 110l-105 36q-162 53 -162 187q0 87 66 140t159 53q92 0 152.5 -45.5t76.5 -120.5l-90 -27q-25 103 -139 103q-52 0 -88 -27.5t-36 -73.5q0 -19 5 -33t26.5 -33t59.5 -34l106 -40q82 -25 126 -77.5
t44 -110.5q0 -93 -66.5 -148t-177.5 -55q-101 0 -170 49.5t-88 125.5zM241 -293l-17 36q43 14 60.5 35t17.5 52q-33 -11 -56 6t-23 44q-1 28 16 46t48 18q39 0 57 -27t18 -55q0 -117 -121 -155z" />
    <glyph glyph-name="scommaaccent" unicode="&#x219;" horiz-adv-x="441" 
d="M175 -293l-17 36q43 14 60.5 35t17.5 52q-33 -11 -56 6t-23 44q-1 28 16 46t48 18q39 0 57 -27t18 -55q0 -117 -121 -155zM388 392l-86 -19q-20 55 -78 55q-33 0 -53.5 -18t-20.5 -46q0 -39 60 -60l72 -24q120 -37 120 -141q0 -69 -52 -109.5t-128 -40.5
q-69 0 -122.5 34.5t-70.5 96.5l86 21q9 -30 39.5 -49.5t68.5 -19.5t62 19.5t24 48.5q0 24 -16.5 38.5t-46.5 24.5l-67 23q-123 37 -123 136q0 64 46 106.5t119 42.5q57 0 103 -28t64 -91z" />
    <glyph glyph-name="uni021A" unicode="&#x21a;" horiz-adv-x="602" 
d="M351 0h-22q53 -48 53 -110q0 -55 -39 -84t-88 -29q-47 0 -81.5 30t-46.5 77l43 24q27 -59 82 -59q23 0 41 16.5t18 44.5q0 47 -36 90h-24v618h-233v82h566v-82h-233v-618z" />
    <glyph glyph-name="uni021B" unicode="&#x21b;" horiz-adv-x="419" 
d="M198 424v-273q0 -77 60 -77q25 0 43 14.5t18 40.5q0 24 -8 41h85q7 -18 8 -34q1 -7 1 -20q0 -46 -26 -78.5t-75 -43.5q32 -16 46.5 -45.5t14.5 -58.5q0 -55 -39 -84t-88 -29q-47 0 -81.5 30t-46.5 77l43 24q27 -59 82 -59q23 0 41 16.5t18 44.5q0 21 -16.5 47t-53.5 35
q-54 6 -88.5 47.5t-34.5 118.5v266h-82v76h82l22 144h75v-144h159v-76h-159z" />
    <glyph glyph-name="circumflex" unicode="&#x2c6;" horiz-adv-x="612" 
d="M255 723h102l118 -150h-76l-93 92l-93 -92h-76z" />
    <glyph glyph-name="caron" unicode="&#x2c7;" horiz-adv-x="598" 
d="M350 573h-102l-118 150h76l93 -92l93 92h76z" />
    <glyph glyph-name="uni02C9" unicode="&#x2c9;" horiz-adv-x="539" 
d="M130 679h279v-76h-279v76z" />
    <glyph glyph-name="breve" unicode="&#x2d8;" horiz-adv-x="474" 
d="M311 722l63 -5q-5 -75 -45 -109.5t-92 -34.5t-92 34.5t-45 109.5l63 5q6 -77 74 -77t74 77z" />
    <glyph glyph-name="dotaccent" unicode="&#x2d9;" horiz-adv-x="295" 
d="M80 643q0 29 19 48.5t48 19.5t48.5 -19.5t19.5 -48.5t-19.5 -48t-48.5 -19t-48 19t-19 48z" />
    <glyph glyph-name="ring" unicode="&#x2da;" horiz-adv-x="371" 
d="M80 678q0 44 30.5 75t74.5 31t75 -31t31 -75t-31 -74.5t-75 -30.5q-43 0 -74 30.5t-31 74.5zM130 678q0 -23 16 -39t39 -16t39 16t16 39t-16 39t-39 16t-39 -16t-16 -39z" />
    <glyph glyph-name="ogonek" unicode="&#x2db;" horiz-adv-x="455" 
d="M214 17v-8q-43 -49 -43 -99q0 -28 18 -44.5t41 -16.5q55 0 82 59l43 -24q-12 -47 -46.5 -77t-81.5 -30q-49 0 -88 29t-39 84q0 73 73 127h41z" />
    <glyph glyph-name="tilde" unicode="&#x2dc;" horiz-adv-x="496" 
d="M356 712l44 -13q-14 -56 -34.5 -80t-53.5 -24q-23 0 -66.5 20t-58.5 20q-17 0 -26.5 -10.5t-21.5 -38.5l-44 13q14 56 34.5 80t53.5 24q23 0 66.5 -20t58.5 -20q17 0 26.5 10.5t21.5 38.5z" />
    <glyph glyph-name="hungarumlaut" unicode="&#x2dd;" horiz-adv-x="541" 
d="M187 723h91l-93 -150h-85zM350 723h91l-93 -150h-85z" />
    <glyph glyph-name="uni0394" unicode="&#x394;" horiz-adv-x="749" 
d="M40 0l279 700h119l266 -700h-664zM377 603l-206 -521h403z" />
    <glyph glyph-name="uni03A9" unicode="&#x3a9;" horiz-adv-x="810" 
d="M460 0v87q88 28 142 98.5t54 164.5q0 119 -69 197.5t-183 78.5q-112 0 -181.5 -79t-69.5 -197q0 -97 51 -165t143 -98v-87h-283v82h148q-68 39 -113 116.5t-45 169.5q0 145 97.5 244t252.5 99q156 0 254 -99t98 -244q0 -92 -46 -170t-113 -116h149v-82h-286z" />
    <glyph glyph-name="uni03BC" unicode="&#x3bc;" horiz-adv-x="611" 
d="M175 10v-159h-98v649h97v-305q0 -60 30 -90t72 -30q23 0 47.5 8.5t51.5 28.5t44.5 60.5t17.5 95.5v232h97v-500h-97v100q-16 -53 -60.5 -82t-107.5 -29q-53 0 -94 21z" />
    <glyph glyph-name="pi" unicode="&#x3c0;" horiz-adv-x="686" 
d="M444 200v-29q2 -51 24.5 -74t52.5 -23q62 0 62 51q0 3 -2 17h83q2 -7 4 -19q1 -3 1 -8q0 -56 -39 -91t-110 -35q-33 0 -61 8.5t-54.5 28.5t-42 60.5t-15.5 97.5v16v222h-136v-422h-97v422h-85v78h532v-78h-117v-222z" />
    <glyph glyph-name="Wgrave" unicode="&#x1e80;" horiz-adv-x="994" 
d="M456 677h82l158 -509l167 532h100l-218 -700h-86l-162 526l-162 -526h-86l-218 700h100l167 -532zM361 904h103l78 -139h-83z" />
    <glyph glyph-name="wgrave" unicode="&#x1e81;" horiz-adv-x="822" 
d="M370 485l-114 -355l-130 370h-101l181 -500h92l113 348l113 -348h92l181 500h-101l-130 -370l-114 355h-82zM261 723h109l87 -150h-85z" />
    <glyph glyph-name="Wacute" unicode="&#x1e82;" horiz-adv-x="994" 
d="M456 677h82l158 -509l167 532h100l-218 -700h-86l-162 526l-162 -526h-86l-218 700h100l167 -532zM526 904h103l-98 -139h-83z" />
    <glyph glyph-name="wacute" unicode="&#x1e83;" horiz-adv-x="822" 
d="M370 485l-114 -355l-130 370h-101l181 -500h92l113 348l113 -348h92l181 500h-101l-130 -370l-114 355h-82zM453 723h109l-111 -150h-85z" />
    <glyph glyph-name="Wdieresis" unicode="&#x1e84;" horiz-adv-x="994" 
d="M456 677h82l158 -509l167 532h100l-218 -700h-86l-162 526l-162 -526h-86l-218 700h100l167 -532zM327 827q0 27 18 45t44 18q27 0 45 -18t18 -45q0 -26 -18 -44t-45 -18q-26 0 -44 18t-18 44zM541 827q0 27 18 45t44 18q27 0 45 -18t18 -45q0 -26 -18 -44t-45 -18
q-26 0 -44 18t-18 44z" />
    <glyph glyph-name="wdieresis" unicode="&#x1e85;" horiz-adv-x="822" 
d="M370 485l-114 -355l-130 370h-101l181 -500h92l113 348l113 -348h92l181 500h-101l-130 -370l-114 355h-82zM237 648q0 27 18 45t44 18q27 0 45 -18t18 -45q0 -26 -18 -44t-45 -18q-26 0 -44 18t-18 44zM451 648q0 27 18 45t44 18q27 0 45 -18t18 -45q0 -26 -18 -44
t-45 -18q-26 0 -44 18t-18 44z" />
    <glyph glyph-name="Ygrave" unicode="&#x1ef2;" horiz-adv-x="678" 
d="M289 288l-265 401v11h110l204 -327l206 327h110v-11l-265 -401v-288h-100v288zM221 904h103l78 -139h-83z" />
    <glyph glyph-name="ygrave" unicode="&#x1ef3;" horiz-adv-x="554" 
d="M282 127l142 373h113l-307 -724h-94l93 241l-211 483h111zM125 723h109l87 -150h-85z" />
    <glyph glyph-name="thinspace" unicode="&#x2009;" horiz-adv-x="17" 
 />
    <glyph glyph-name="endash" unicode="&#x2013;" horiz-adv-x="567" 
d="M67 261v89h433v-89h-433z" />
    <glyph glyph-name="emdash" unicode="&#x2014;" horiz-adv-x="796" 
d="M67 261v89h662v-89h-662z" />
    <glyph glyph-name="quoteleft" unicode="&#x2018;" horiz-adv-x="247" 
d="M174 723l17 -36q-78 -26 -78 -102q33 11 54.5 -6t21.5 -44q1 -28 -17 -46t-53 -18q-37 0 -53 26.5t-16 55.5q0 63 32 107t92 63z" />
    <glyph glyph-name="quoteright" unicode="&#x2019;" horiz-adv-x="246" 
d="M79 471l-19 36q78 26 78 102q-33 -11 -54.5 6t-21.5 44q-1 28 17.5 46t52.5 18q37 0 53 -26.5t16 -55.5q0 -63 -31.5 -107t-90.5 -63z" />
    <glyph glyph-name="quotesinglbase" unicode="&#x201a;" horiz-adv-x="256" 
d="M73 -127l-17 36q78 26 78 102q-33 -11 -54.5 6t-21.5 44q-1 28 17.5 46t52.5 18q37 0 53 -26.5t16 -55.5q0 -63 -32 -107t-92 -63z" />
    <glyph glyph-name="quotedblleft" unicode="&#x201c;" horiz-adv-x="443" 
d="M368 723l19 -36q-78 -26 -78 -102q33 11 54.5 -6t21.5 -44q1 -28 -17 -46t-53 -18q-37 0 -53 26.5t-16 55.5q0 63 31.5 107t90.5 63zM174 723l17 -36q-78 -26 -78 -102q33 11 54.5 -6t21.5 -44q1 -28 -17 -46t-53 -18q-37 0 -53 26.5t-16 55.5q0 63 32 107t92 63z" />
    <glyph glyph-name="quotedblright" unicode="&#x201d;" horiz-adv-x="441" 
d="M79 471l-19 36q78 26 78 102q-33 -11 -54.5 6t-21.5 44q-1 28 17.5 46t52.5 18q37 0 53 -26.5t16 -55.5q0 -63 -31.5 -107t-90.5 -63zM273 471l-17 36q78 26 78 102q-33 -11 -54.5 6t-21.5 44q-1 28 17.5 46t52.5 18q37 0 53 -26.5t16 -55.5q0 -63 -32 -107t-92 -63z" />
    <glyph glyph-name="quotedblbase" unicode="&#x201e;" horiz-adv-x="452" 
d="M75 -127l-19 36q78 26 78 102q-33 -11 -54.5 6t-21.5 44q-1 28 17.5 46t52.5 18q37 0 53 -26.5t16 -55.5q0 -63 -31.5 -107t-90.5 -63zM269 -127l-17 36q78 26 78 102q-33 -11 -54.5 6t-21.5 44q-1 28 17.5 46t52.5 18q37 0 53 -26.5t16 -55.5q0 -63 -32 -107t-92 -63z
" />
    <glyph glyph-name="dagger" unicode="&#x2020;" horiz-adv-x="532" 
d="M499 443h-193v-585h-81v585h-192v75h192v247h81v-247h193v-75z" />
    <glyph glyph-name="daggerdbl" unicode="&#x2021;" horiz-adv-x="556" 
d="M511 149h-193v-291h-81v291h-192v75h192v219h-192v75h192v247h81v-247h193v-75h-193v-219h193v-75z" />
    <glyph glyph-name="bullet" unicode="&#x2022;" horiz-adv-x="402" 
d="M81 248q0 50 35.5 85t84.5 35q50 0 85.5 -35t35.5 -85t-35.5 -85t-85.5 -35t-85 34.5t-35 85.5z" />
    <glyph glyph-name="ellipsis" unicode="&#x2026;" horiz-adv-x="813" 
d="M56 62q0 31 21 52.5t52 21.5t52.5 -21.5t21.5 -52.5t-21.5 -52t-52.5 -21t-52 21t-21 52zM333 62q0 31 21 52.5t52 21.5t52.5 -21.5t21.5 -52.5t-21.5 -52t-52.5 -21t-52 21t-21 52zM610 62q0 31 21 52.5t52 21.5t52.5 -21.5t21.5 -52.5t-21.5 -52t-52.5 -21t-52 21
t-21 52z" />
    <glyph glyph-name="perthousand" unicode="&#x2030;" horiz-adv-x="1319" 
d="M209 0l389 700h79l-389 -700h-79zM35 534q0 75 51 126t126 51t126 -51t51 -126q0 -74 -51 -124.5t-126 -50.5t-126 50.5t-51 124.5zM115 534q0 -45 27.5 -74t69.5 -29q43 0 70.5 29t27.5 74t-27.5 75t-70.5 30q-42 0 -69.5 -30t-27.5 -75zM499 164q0 75 51 126t126 51
t126 -51t51 -126q0 -74 -51 -124.5t-126 -50.5t-126 50.5t-51 124.5zM579 164q0 -45 27.5 -74t69.5 -29q43 0 70.5 29t27.5 74t-27.5 75t-70.5 30q-42 0 -69.5 -30t-27.5 -75zM930 164q0 75 51 126t126 51t126 -51t51 -126q0 -74 -51 -124.5t-126 -50.5t-126 50.5t-51 124.5
zM1010 164q0 -45 27.5 -74t69.5 -29q43 0 70.5 29t27.5 74t-27.5 75t-70.5 30q-42 0 -69.5 -30t-27.5 -75z" />
    <glyph glyph-name="guilsinglleft" unicode="&#x2039;" horiz-adv-x="342" 
d="M45 298v8l186 213l59 -46l-152 -175l152 -174l-59 -46l-186 212v8z" />
    <glyph glyph-name="guilsinglright" unicode="&#x203a;" horiz-adv-x="342" 
d="M297 306v-8v-8l-186 -212l-59 46l152 174l-152 175l59 46z" />
    <glyph glyph-name="fraction" unicode="&#x2044;" horiz-adv-x="150" 
d="M388 735l-547 -774h-79l546 774h80z" />
    <glyph glyph-name="zerosuperior" unicode="&#x2070;" horiz-adv-x="378" 
d="M347 628q0 -78 -43 -130t-115 -52t-115 52.5t-43 129.5t43 129.5t115 52.5t115 -52t43 -130zM281 628q0 56 -25 90.5t-67 34.5t-67 -34.5t-25 -90.5t25 -90.5t67 -34.5t67 34.5t25 90.5z" />
    <glyph glyph-name="foursuperior" unicode="&#x2074;" horiz-adv-x="343" 
d="M85 593h103v114zM188 545h-172v35l193 225h43v-212h72v-48h-72v-93h-64v93z" />
    <glyph glyph-name="fivesuperior" unicode="&#x2075;" horiz-adv-x="323" 
d="M157 498q39 0 58.5 20t19.5 52q0 27 -19 47t-53 20q-41 0 -79 -25q-6 2 -21.5 11t-22.5 12l9 169h220v-49h-164l-5 -90q23 19 74 19q54 0 89 -33.5t35 -80.5q0 -57 -37.5 -91t-106.5 -34q-72 0 -123 46l35 41q37 -34 91 -34z" />
    <glyph glyph-name="sixsuperior" unicode="&#x2076;" horiz-adv-x="342" 
d="M189 759q-38 0 -66.5 -34.5t-31.5 -89.5q16 24 45 36.5t58 12.5q49 0 84.5 -34.5t35.5 -85.5q0 -52 -37 -85.5t-97 -33.5q-70 0 -109 47.5t-39 126.5q0 82 42 136.5t115 54.5q71 0 107 -43l-42 -37q-23 29 -65 29zM101 565q0 -31 22 -49t56 -18q32 0 52 18t20 49t-20 49
t-52 18q-33 0 -55.5 -18.5t-22.5 -48.5z" />
    <glyph glyph-name="sevensuperior" unicode="&#x2077;" horiz-adv-x="287" 
d="M20 756v49h256v-37l-159 -316h-71l158 304h-184z" />
    <glyph glyph-name="eightsuperior" unicode="&#x2078;" horiz-adv-x="350" 
d="M175 496q35 0 57 17.5t22 42.5t-20 42t-57 17h-4q-38 0 -58 -16.5t-20 -42.5q0 -25 22 -42.5t58 -17.5zM175 759q-29 0 -47 -13.5t-18 -34.5q0 -22 16 -37.5t47 -15.5h4q30 0 46 15.5t16 37.5q0 21 -17.5 34.5t-46.5 13.5zM175 446q-63 0 -104 32t-41 78q0 28 22 52
t58 32q-31 9 -48 29t-17 42q0 42 36.5 70t93.5 28t93.5 -28t36.5 -70q0 -22 -17.5 -42t-48.5 -29q37 -8 59 -32t22 -52q0 -46 -41.5 -78t-103.5 -32z" />
    <glyph glyph-name="ninesuperior" unicode="&#x2079;" horiz-adv-x="341" 
d="M153 497q38 0 66.5 34.5t31.5 89.5q-16 -24 -45 -36.5t-58 -12.5q-48 0 -84 34.5t-36 85.5q0 52 37 85.5t97 33.5q70 0 109 -47.5t39 -126.5q0 -82 -42 -136.5t-115 -54.5q-71 0 -107 43l42 37q23 -29 65 -29zM241 691q0 31 -22 49t-56 18q-32 0 -52 -18t-20 -49t20 -49
t52 -18q33 0 55.5 18.5t22.5 48.5z" />
    <glyph glyph-name="parenleftsuperior" unicode="&#x207d;" horiz-adv-x="201" 
d="M133 846l33 -23q-66 -103 -66 -220q0 -116 66 -219l-33 -23q-33 33 -64 98.5t-31 144.5q0 78 31 143.5t64 98.5z" />
    <glyph glyph-name="parenrightsuperior" unicode="&#x207e;" horiz-adv-x="201" 
d="M35 823l33 23q33 -33 64 -98.5t31 -143.5q0 -79 -31 -144.5t-64 -98.5l-33 23q66 103 66 219q0 117 -66 220z" />
    <glyph glyph-name="zeroinferior" unicode="&#x2080;" horiz-adv-x="378" 
d="M347 36q0 -78 -43 -130t-115 -52t-115 52.5t-43 129.5t43 129.5t115 52.5t115 -52t43 -130zM281 36q0 56 -25 90.5t-67 34.5t-67 -34.5t-25 -90.5t25 -90.5t67 -34.5t67 34.5t25 90.5z" />
    <glyph glyph-name="oneinferior" unicode="&#x2081;" horiz-adv-x="212" 
d="M28 107l-16 49l121 57h35v-353h-66v280z" />
    <glyph glyph-name="twoinferior" unicode="&#x2082;" horiz-adv-x="335" 
d="M227 -12l-92 -76h25.5t25.5 0.5t12 0.5h110v-53h-269l-7 38l150 129q43 38 43 77q0 27 -16 41.5t-44 14.5q-33 0 -49 -16.5t-16 -37.5h-69q0 41 33 76t101 35q58 0 91 -32.5t33 -79.5q0 -62 -62 -117z" />
    <glyph glyph-name="threeinferior" unicode="&#x2083;" horiz-adv-x="327" 
d="M24 -99l35 43q39 -36 93 -36q36 0 57 19t21 47q0 29 -22 49.5t-52 20.5t-51 -12l-27 33l111 100h-153v49h249v-35l-102 -94q51 -5 81 -36t30 -77q0 -51 -38 -84t-105 -33q-76 0 -127 46z" />
    <glyph glyph-name="fourinferior" unicode="&#x2084;" horiz-adv-x="343" 
d="M85 1h103v114zM188 -47h-172v35l193 225h43v-212h72v-48h-72v-93h-64v93z" />
    <glyph glyph-name="fiveinferior" unicode="&#x2085;" horiz-adv-x="323" 
d="M157 -93q39 0 58.5 20t19.5 52q0 27 -19 47t-53 20q-41 0 -79 -25q-6 2 -22 11.5t-22 11.5l9 169h220v-49h-164l-5 -90q23 19 74 19q54 0 89 -33.5t35 -80.5q0 -57 -37.5 -91t-106.5 -34q-72 0 -123 46l35 41q37 -34 91 -34z" />
    <glyph glyph-name="sixinferior" unicode="&#x2086;" horiz-adv-x="342" 
d="M189 168q-38 0 -66.5 -34.5t-31.5 -89.5q16 24 45 36.5t58 12.5q49 0 84.5 -34.5t35.5 -85.5q0 -52 -37 -85.5t-97 -33.5q-70 0 -109 47.5t-39 126.5q0 82 42 136.5t115 54.5q71 0 107 -43l-42 -37q-23 29 -65 29zM101 -26q0 -31 22 -49t56 -18q32 0 52 18t20 49t-20 49
t-52 18q-33 0 -55.5 -18.5t-22.5 -48.5z" />
    <glyph glyph-name="seveninferior" unicode="&#x2087;" horiz-adv-x="287" 
d="M20 164v49h256v-37l-159 -316h-71l158 304h-184z" />
    <glyph glyph-name="eightinferior" unicode="&#x2088;" horiz-adv-x="350" 
d="M175 -96q35 0 57 17.5t22 42.5t-20 42t-57 17h-4q-38 0 -58 -16.5t-20 -42.5q0 -25 22 -42.5t58 -17.5zM175 167q-29 0 -47 -13.5t-18 -34.5q0 -22 16 -37.5t47 -15.5h4q30 0 46 15.5t16 37.5q0 21 -17.5 34.5t-46.5 13.5zM175 -146q-63 0 -104 32t-41 78q0 28 22 52
t58 32q-31 9 -48 29t-17 42q0 42 36.5 70t93.5 28t93.5 -28t36.5 -70q0 -22 -17.5 -42t-48.5 -29q37 -8 59 -32t22 -52q0 -46 -41.5 -78t-103.5 -32z" />
    <glyph glyph-name="nineinferior" unicode="&#x2089;" horiz-adv-x="342" 
d="M153 -95q38 0 66.5 34.5t31.5 89.5q-16 -24 -45 -36.5t-58 -12.5q-48 0 -84 34.5t-36 85.5q0 52 37 85.5t97 33.5q70 0 109 -47.5t39 -126.5q0 -82 -42 -136.5t-115 -54.5q-71 0 -107 43l42 37q23 -29 65 -29zM241 99q0 31 -22 49t-56 18q-32 0 -52 -18t-20 -49t20 -49
t52 -18q33 0 55.5 18.5t22.5 48.5z" />
    <glyph glyph-name="parenleftinferior" unicode="&#x208d;" horiz-adv-x="200" 
d="M133 274l33 -23q-66 -103 -66 -220q0 -116 66 -219l-33 -23q-33 33 -64 98.5t-31 144.5q0 78 31 143.5t64 98.5z" />
    <glyph glyph-name="parenrightinferior" unicode="&#x208e;" horiz-adv-x="200" 
d="M34 251l33 23q33 -33 64 -98.5t31 -143.5q0 -79 -31 -144.5t-64 -98.5l-33 23q66 103 66 219q0 117 -66 220z" />
    <glyph glyph-name="lira" unicode="&#x20a4;" horiz-adv-x="641" 
d="M227 516q0 -46 23 -111h210v-58h-189q14 -34 21 -61h168v-58h-156q0 -4 0.5 -10t0.5 -10q0 -98 -73 -126v-3q30 3 138 3h227v-82h-551v82q43 0 73.5 8.5t47 20t26 30.5t11.5 34.5t2 37.5q0 12 -1 15h-139v58h128l-22 61h-106v58h84q-25 65 -25 111q0 88 66 141.5
t166 53.5q109 0 164.5 -52t55.5 -118h-96q0 39 -32 62.5t-87 23.5q-63 0 -99 -30t-36 -81z" />
    <glyph glyph-name="rupee" unicode="&#x20a8;" horiz-adv-x="684" 
d="M631 471h-99q-2 -76 -46.5 -132t-118.5 -70q7 -68 43.5 -131.5t89.5 -63.5q50 0 82 32l35 -68q-46 -49 -123 -49q-58 0 -102 30t-68 77t-36 89t-16 80h-212v80h240q56 0 90 34t37 92h-367v65h359q-13 39 -44 60.5t-75 21.5h-240v82h271h300v-65h-155q35 -38 50 -99h105
v-65z" />
    <glyph glyph-name="uni20A9" unicode="&#x20a9;" horiz-adv-x="1051" 
d="M50 409v60h81l-72 231h100l72 -231h188l65 208h82l65 -208h187l73 231h100l-72 -231h82v-60h-101l-26 -82h127v-60h-145l-83 -267h-86l-162 526l-162 -526h-86l-84 267h-143v60h125l-26 82h-99zM250 409l26 -82h99l25 82h-150zM649 409l26 -82h99l25 82h-150zM693 267
l31 -99l31 99h-62zM295 267l31 -99l30 99h-61z" />
    <glyph glyph-name="afii57636" unicode="&#x20aa;" horiz-adv-x="736" 
d="M167 441v-441h-97v538h226q92 0 149 -57t57 -143v-156h-97v156q0 44 -30 73.5t-79 29.5h-129zM569 97v441h97v-538h-226q-92 0 -149 57t-57 143v156h97v-156q0 -44 30 -73.5t79 -29.5h129z" />
    <glyph glyph-name="Euro" unicode="&#x20ac;" horiz-adv-x="668" 
d="M592 99v-86q-62 -24 -123 -24q-143 0 -225 70t-105 189h-99v68h90q-2 22 -2 33v28h-88v68h97q24 122 105 194t220 72q93 0 168 -43l-30 -79q-59 33 -134 33q-95 0 -152 -47.5t-76 -129.5h324l-22 -68h-313v-25q0 -12 2 -36h293l-21 -68h-260q21 -79 77.5 -124.5
t146.5 -45.5q79 0 127 21z" />
    <glyph glyph-name="uni2113" unicode="&#x2113;" horiz-adv-x="476" 
d="M438 542q0 -140 -65.5 -245.5t-168.5 -138.5q3 -44 24.5 -64t49.5 -20q62 0 62 51q0 2 -3 23h83q3 -6 5 -22q1 -3 1 -11q0 -56 -39 -91t-110 -35q-65 0 -113.5 34.5t-57.5 121.5q-34 0 -76 11v66q33 -11 74 -11v331q0 46 13 80.5t31.5 53t44 30t45 14.5t39.5 3
q27 0 51 -6t51 -23.5t43 -56t16 -95.5zM351 542q0 51 -21 73.5t-50 22.5q-76 0 -76 -96v-303q64 37 105.5 114t41.5 189z" />
    <glyph glyph-name="afii61352" unicode="&#x2116;" horiz-adv-x="1083" 
d="M729 549q0 64 43.5 107.5t107.5 43.5t107.5 -43.5t43.5 -107.5q0 -63 -43.5 -106t-107.5 -43t-107.5 43t-43.5 106zM797 549q0 -38 24 -63t59 -25q37 0 60.5 25t23.5 63q0 39 -23.5 64.5t-60.5 25.5q-35 0 -59 -26t-24 -64zM729 271v61h301v-61h-301zM176 518l384 -518
h74v700h-101v-516l-383 516h-74v-700h100v518z" />
    <glyph glyph-name="uni2117" unicode="&#x2117;" horiz-adv-x="804" 
d="M49 350q0 150 102 255.5t251 105.5t251 -105.5t102 -255.5t-102 -255.5t-251 -105.5t-251 105.5t-102 255.5zM109 350q0 -125 85 -213t208 -88t208 88t85 213t-85 213t-208 88t-208 -88t-85 -213zM558 407q0 -51 -30.5 -80.5t-81.5 -29.5h-73v-131h-72v358h145
q51 0 81.5 -34t30.5 -83zM373 355h63q23 0 35.5 14t12.5 38q0 25 -13 42t-35 17h-63v-111z" />
    <glyph glyph-name="trademark" unicode="&#x2122;" horiz-adv-x="871" 
d="M37 700h317v-56h-126v-302h-65v302h-126v56zM798 342h-63l-22 247l-99 -243h-48l-99 242l-22 -246h-64l34 358h65l110 -261l108 261h68z" />
    <glyph glyph-name="Omega" unicode="&#x2126;" horiz-adv-x="816" 
d="M463 0v87q88 28 142 98.5t54 164.5q0 119 -69 197.5t-183 78.5q-112 0 -181.5 -79t-69.5 -197q0 -97 51 -165t143 -98v-87h-283v82h148q-68 39 -113 116.5t-45 169.5q0 145 97.5 244t252.5 99q156 0 254 -99t98 -244q0 -92 -46 -170t-113 -116h149v-82h-286z" />
    <glyph glyph-name="estimated" unicode="&#x212e;" horiz-adv-x="643" 
d="M602 282h-429v-193q68 -63 152 -63q76 0 122 32.5t88 94.5l31 -19q-43 -68 -98.5 -104.5t-142.5 -36.5q-119 0 -195 84.5t-76 205.5q0 123 75 206.5t200 83.5q124 0 198.5 -84.5t74.5 -206.5zM482 315v163q-68 62 -153 62q-96 0 -156 -62v-163h309z" />
    <glyph glyph-name="arrowleft" unicode="&#x2190;" horiz-adv-x="653" 
d="M553 288v-77h-353l119 -136l-59 -46l-186 212v16l186 213l59 -46l-118 -136h352z" />
    <glyph glyph-name="arrowup" unicode="&#x2191;" horiz-adv-x="575" 
d="M326 12h-77v352l-136 -118l-46 59l213 186h16l212 -186l-46 -59l-136 119v-353z" />
    <glyph glyph-name="arrowright" unicode="&#x2192;" horiz-adv-x="653" 
d="M100 211v77h352l-118 136l59 46l186 -213v-16l-186 -212l-59 46l119 136h-353z" />
    <glyph glyph-name="arrowdown" unicode="&#x2193;" horiz-adv-x="577" 
d="M250 491h77v-353l136 119l46 -59l-212 -186h-16l-213 186l46 59l136 -118v352z" />
    <glyph glyph-name="partialdiff" unicode="&#x2202;" horiz-adv-x="658" 
d="M280 606l-28 78q63 27 122 27q68 0 117 -21t74.5 -56.5t40 -82t12.5 -97.5t-8 -103q-55 -362 -335 -362q-130 0 -187 71t-44 170q15 101 91 156t178 55q64 0 116.5 -25.5t83.5 -70.5v6q10 49 6.5 98t-16.5 88t-49.5 63.5t-92.5 24.5q-46 -2 -81 -19zM313 358
q-66 0 -114.5 -34.5t-57.5 -96.5q-12 -72 30.5 -112t116.5 -40q162 0 211 198q-53 85 -186 85z" />
    <glyph glyph-name="Delta" unicode="&#x2206;" horiz-adv-x="724" 
d="M30 0l279 700h119l266 -700h-664zM367 603l-206 -521h403z" />
    <glyph glyph-name="product" unicode="&#x220f;" horiz-adv-x="723" 
d="M589 622v-763h-97v763h-261v-763h-97v763h-96v78h647v-78h-96z" />
    <glyph glyph-name="summation" unicode="&#x2211;" horiz-adv-x="574" 
d="M37 -81l245 359l-234 360v62h460v-82h-345v-4l221 -334l-231 -337v-4h384v-81h-500v61z" />
    <glyph glyph-name="minus" unicode="&#x2212;" horiz-adv-x="659" 
d="M71 261v89h517v-89h-517z" />
    <glyph glyph-name="uni2219" unicode="&#x2219;" horiz-adv-x="289" 
d="M71 276q0 31 21 52.5t52 21.5t52.5 -21.5t21.5 -52.5t-21.5 -52t-52.5 -21t-52 21t-21 52z" />
    <glyph glyph-name="radical" unicode="&#x221a;" horiz-adv-x="549" 
d="M153 417l118 -350l5 -22l5 22l163 698h82l-203 -858h-81l-145 416l-68 -32l-25 58z" />
    <glyph glyph-name="infinity" unicode="&#x221e;" horiz-adv-x="860" 
d="M138 299q0 -41 27.5 -64.5t71.5 -23.5q39 0 91 46l45 42q-11 10 -30 28.5t-28 26t-23 17.5t-27 14t-28 4q-44 0 -71.5 -23.5t-27.5 -66.5zM429 247l-45 -44q-43 -37 -79 -54.5t-81 -17.5q-72 0 -121.5 46t-49.5 122q0 78 49.5 124t121.5 46q88 0 160 -72l44 -43h4l47 43
q40 37 75.5 54.5t82.5 17.5q72 0 121 -46t49 -124q0 -76 -49 -122t-121 -46q-46 0 -81 17.5t-77 54.5l-46 44h-4zM721 299q0 44 -26.5 67t-70.5 23q-45 0 -92 -47l-44 -43l44 -42q48 -46 92 -46q43 0 70 23t27 65z" />
    <glyph glyph-name="integral" unicode="&#x222b;" horiz-adv-x="499" 
d="M300 583v-623q0 -57 -15.5 -97.5t-42 -60.5t-54.5 -28.5t-61 -8.5q-26 0 -64 13t-64 33l23 78q55 -39 104 -39q30 0 52 23t22 74v623q0 57 15.5 97.5t42 60.5t54.5 28.5t61 8.5q26 0 65 -12.5t63 -33.5l-23 -78q-55 39 -104 39q-30 0 -52 -23t-22 -74z" />
    <glyph glyph-name="approxequal" unicode="&#x2248;" horiz-adv-x="623" 
d="M523 496l29 -66q-43 -64 -122 -64q-42 0 -122 29.5t-113 29.5q-62 0 -97 -44l-26 69q41 62 119 62q43 0 126.5 -29.5t110.5 -29.5q57 0 95 43zM522 254l30 -67q-46 -65 -123 -65q-39 0 -120 29.5t-115 29.5q-63 0 -96 -44l-28 70q40 61 120 61q44 0 127 -29t109 -29
q62 0 96 44z" />
    <glyph glyph-name="notequal" unicode="&#x2260;" horiz-adv-x="592" 
d="M529 426h-144l-97 -181h241v-85h-287l-73 -137l-64 35l55 102h-97v85h143l98 181h-241v85h287l70 130l63 -34l-52 -96h98v-85z" />
    <glyph glyph-name="lessequal" unicode="&#x2264;" horiz-adv-x="622" 
d="M68 356v88l474 176v-87l-379 -133l379 -133v-87zM67 33v77h476v-77h-476z" />
    <glyph glyph-name="greaterequal" unicode="&#x2265;" horiz-adv-x="622" 
d="M554 444v-88l-474 -176v87l379 133l-379 133v87zM555 110v-77h-476v77h476z" />
    <glyph glyph-name="lozenge" unicode="&#x25ca;" horiz-adv-x="579" 
d="M543 341l-218 -341h-71l-217 341l217 360h71zM451 340l-162 266l-160 -266l160 -249z" />
    <glyph glyph-name="commaaccent" unicode="&#xf6c3;" horiz-adv-x="341" 
d="M119 -293l-17 36q43 14 60.5 35t17.5 52q-33 -11 -56 6t-23 44q-1 28 16 46t48 18q39 0 57 -27t18 -55q0 -117 -121 -155z" />
    <glyph glyph-name="rupiah" unicode="&#xf6dd;" horiz-adv-x="1343" 
d="M178 0h-100v700h292q97 0 154 -64t57 -156q0 -80 -43.5 -137.5t-121.5 -73.5q7 -68 43.5 -131.5t89.5 -63.5q50 0 82 32l35 -68q-46 -49 -123 -49q-58 0 -102 30t-68 77t-36 89t-16 80h-143v-265zM178 345h171q59 0 93.5 37.5t34.5 98.5q0 62 -34.5 99.5t-93.5 37.5h-171
v-273zM1306 250q0 -110 -69 -185.5t-179 -75.5q-117 0 -181 91v-304h-97v724h97v-80q64 91 181 91q110 0 179 -75.5t69 -185.5zM875 250q0 -76 48.5 -125.5t122.5 -49.5q75 0 119 50.5t44 124.5t-44 124.5t-119 50.5q-74 0 -122.5 -49.5t-48.5 -125.5z" />
    <glyph glyph-name="centinferior" unicode="&#xf6df;" horiz-adv-x="298" 
d="M115 -142l7 54q-43 15 -68.5 48t-25.5 77q0 54 35.5 90.5t94.5 41.5l7 54h34l-7 -55q42 -5 78 -31l-22 -43q-27 23 -63 26l-22 -165q46 0 79 27l30 -43q-59 -43 -116 -33l-6 -48h-35zM92 37q0 -43 38 -71l20 152q-25 -8 -41.5 -30t-16.5 -51z" />
    <glyph glyph-name="centsuperior" unicode="&#xf6e0;" horiz-adv-x="299" 
d="M115 447l7 54q-43 15 -68.5 48t-25.5 77q0 54 35.5 90.5t94.5 41.5l7 54h34l-7 -55q42 -5 78 -31l-22 -43q-27 23 -63 26l-22 -165q46 0 79 27l30 -43q-59 -43 -116 -33l-6 -48h-35zM92 626q0 -43 38 -71l20 152q-25 -8 -41.5 -30t-16.5 -51z" />
    <glyph glyph-name="commainferior" unicode="&#xf6e1;" horiz-adv-x="176" 
d="M55 -216l-11 24q51 17 51 57q-22 -8 -35.5 3.5t-14.5 30.5q-1 18 9.5 30t30.5 12q26 0 36.5 -17.5t10.5 -36.5q0 -42 -18.5 -66t-58.5 -37z" />
    <glyph glyph-name="commasuperior" unicode="&#xf6e2;" horiz-adv-x="176" 
d="M55 376l-11 24q51 17 51 57q-22 -8 -35.5 3.5t-14.5 30.5q-1 18 9.5 30t30.5 12q26 0 36.5 -17.5t10.5 -36.5q0 -42 -18.5 -66t-58.5 -37z" />
    <glyph glyph-name="dollarinferior" unicode="&#xf6e3;" horiz-adv-x="313" 
d="M174 -186h-30v45q-49 2 -81 27.5t-41 63.5l57 16q4 -21 22 -36.5t43 -18.5v102l-21 8q-87 35 -87 97q0 41 31 67.5t77 29.5v42h30v-42q84 -10 101 -85l-55 -17q-9 38 -46 49v-97l21 -8q41 -15 66.5 -42t25.5 -54q0 -44 -30.5 -71t-82.5 -31v-45zM221 -43q0 27 -47 45v-89
q47 8 47 44zM102 119q0 -14 7.5 -23t34.5 -18v85q-18 -4 -30 -15.5t-12 -28.5z" />
    <glyph glyph-name="dollarsuperior" unicode="&#xf6e4;" horiz-adv-x="314" 
d="M174 405h-30v45q-49 2 -81 27.5t-41 63.5l57 16q4 -21 22 -36.5t43 -18.5v102l-21 8q-87 34 -87 97q0 41 31 67.5t77 29.5v42h30v-42q84 -10 101 -85l-55 -17q-9 38 -46 49v-97l21 -8q41 -15 66.5 -42t25.5 -54q0 -44 -30.5 -71t-82.5 -31v-45zM221 548q0 27 -47 45v-89
q47 8 47 44zM102 710q0 -14 7.5 -23t34.5 -18v85q-18 -4 -30 -15.5t-12 -28.5z" />
    <glyph glyph-name="hypheninferior" unicode="&#xf6e5;" horiz-adv-x="286" 
d="M45 -12v52h196v-52h-196z" />
    <glyph glyph-name="hyphensuperior" unicode="&#xf6e6;" horiz-adv-x="286" 
d="M45 580v52h196v-52h-196z" />
    <glyph glyph-name="periodinferior" unicode="&#xf6e7;" horiz-adv-x="177" 
d="M43 -106q0 17 13 29t32 12t32.5 -12t13.5 -29t-13.5 -28.5t-32.5 -11.5t-32 11.5t-13 28.5z" />
    <glyph glyph-name="periodsuperior" unicode="&#xf6e8;" horiz-adv-x="177" 
d="M43 486q0 17 13 29t32 12t32.5 -12t13.5 -29t-13.5 -28.5t-32.5 -11.5t-32 11.5t-13 28.5z" />
    <glyph glyph-name="apple" unicode="&#xf8ff;" horiz-adv-x="702" 
d="M443 152h75q0 75 -40.5 117.5t-98.5 51.5q34 90 74 165l15 -195h75l-26 334h-73q-66 -123 -94 -203q-28 80 -94 203h-73l-26 -334h75l15 195q28 -51 74 -163q-62 -7 -105.5 -50t-43.5 -121h76q0 52 30 79t68 27t67.5 -27t29.5 -79zM100 0v690h502v-690h-502zM145 82v-39
h8v27l9 -27h7l10 28v-28h8v39h-12l-9 -27l-9 27h-12zM209 83q-19 0 -19 -21q0 -20 19 -20q9 0 14.5 6t5.5 14q0 21 -20 21zM209 49q-10 0 -10 13q0 14 10 14q11 0 11 -14q0 -13 -11 -13zM237 56h-8q0 -14 17 -14q16 0 16 13q0 8 -11 11q-12 3 -12 6q0 4 6 4q7 0 7 -6h9
q0 13 -16 13q-15 0 -15 -12q0 -10 13 -11q11 -3 11 -6q0 -5 -8 -5q-9 0 -9 7zM273 75v-32h9v32h12v7h-33v-7h12zM302 82l-15 -39h9l3 9h14l3 -9h9l-14 39h-9zM311 58h-10l5 14zM326 82v-39h9v15h8q7 0 7 -7t1 -8h9q-2 6 -2 9q0 8 -6 9v1q7 1 7 9q0 11 -12 11h-21zM335 64v11
h9q6 0 6 -5q0 -6 -6 -6h-9zM363 82v-39h17q18 0 18 20q0 19 -18 19h-17zM372 50v25h6q11 0 11 -13q0 -12 -10 -12h-7zM401 82v-39h30v7h-22v10h19v7h-19v8h21v7h-29zM440 56h-9q0 -14 17 -14q16 0 16 13q0 8 -11 11q-12 3 -12 6q0 4 6 4q7 0 8 -6h8q0 13 -16 13
q-15 0 -15 -12q0 -10 13 -11q11 -3 11 -6q0 -5 -8 -5t-8 7zM467 82v-39h8v39h-8zM508 47l1 -4h6v21h-17v-6h9q-1 -9 -9 -9q-11 0 -11 13q0 14 11 14q7 0 8 -7h8q-2 14 -16 14q-20 0 -20 -21q0 -20 20 -20q5 0 10 5zM519 82v-39h8v26l16 -26h9v39h-8v-26l-17 26h-8z" />
    <glyph glyph-name="Euro.dnom" horiz-adv-x="360" 
d="M273 130h-130q26 -84 104 -84q40 0 71 13v-51q-39 -14 -69 -14q-147 0 -172 136h-55v29h51v28h-51v30h54q10 64 52 102t117 38q49 0 91 -24l-16 -44q-31 17 -73 17q-83 0 -104 -89h157l-9 -30h-152v-28h144z" />
    <glyph glyph-name="Euro.numr" horiz-adv-x="360" 
d="M273 477h-130q26 -84 104 -84q40 0 71 13v-51q-39 -14 -69 -14q-147 0 -172 136h-55v29h51v28h-51v30h54q10 64 52 102t117 38q49 0 91 -24l-16 -44q-31 17 -73 17q-83 0 -104 -89h157l-9 -30h-152v-28h144z" />
    <glyph glyph-name="Euroinferior" horiz-adv-x="360" 
d="M273 -10h-130q26 -84 104 -84q40 0 71 13v-51q-39 -14 -69 -14q-147 0 -172 136h-55v29h51v28h-51v30h54q10 64 52 102t117 38q49 0 91 -24l-16 -44q-31 17 -73 17q-83 0 -104 -89h157l-9 -30h-152v-28h144z" />
    <glyph glyph-name="Eurosuperior" horiz-adv-x="360" 
d="M273 582h-130q26 -84 104 -84q40 0 71 13v-51q-39 -14 -69 -14q-147 0 -172 136h-55v29h51v28h-51v30h54q10 64 52 102t117 38q49 0 91 -24l-16 -44q-31 17 -73 17q-83 0 -104 -89h157l-9 -30h-152v-28h144z" />
    <glyph glyph-name="a.alt" horiz-adv-x="577" 
d="M411 0v81q-13 -34 -65.5 -63t-115.5 -29q-84 0 -141.5 43t-57.5 119q0 69 51.5 113t147.5 44q109 0 176 -25v19q0 45 -23.5 74t-54.5 39t-69 10q-87 0 -155 -54l-36 70q67 70 199 70q57 0 101.5 -14.5t70 -37t42 -52.5t22 -57.5t5.5 -55.5v-294h-97zM239 238
q-58 0 -84.5 -26t-26.5 -60t29.5 -60.5t87.5 -26.5q43 0 90 20.5t76 63.5v67q-85 22 -172 22z" />
    <glyph glyph-name="aacute.alt" horiz-adv-x="577" 
d="M303 723h109l-111 -150h-85zM411 81v-81h97v294q0 28 -5.5 55.5t-22 57.5t-42 52.5t-70 37t-101.5 14.5q-132 0 -199 -70l36 -70q68 54 155 54q38 0 69 -10t54.5 -39t23.5 -74v-19q-67 25 -176 25q-96 0 -147.5 -44t-51.5 -113q0 -76 57.5 -119t141.5 -43q63 0 115.5 29
t65.5 63zM239 238q87 0 172 -22v-67q-29 -43 -76 -63.5t-90 -20.5q-58 0 -87.5 26.5t-29.5 60.5t26.5 60t84.5 26z" />
    <glyph glyph-name="abreve.alt" horiz-adv-x="577" 
d="M364 722l63 -5q-5 -75 -45 -109.5t-92 -34.5t-92 34.5t-45 109.5l63 5q6 -77 74 -77t74 77zM411 81v-81h97v294q0 28 -5.5 55.5t-22 57.5t-42 52.5t-70 37t-101.5 14.5q-132 0 -199 -70l36 -70q68 54 155 54q38 0 69 -10t54.5 -39t23.5 -74v-19q-67 25 -176 25
q-96 0 -147.5 -44t-51.5 -113q0 -76 57.5 -119t141.5 -43q63 0 115.5 29t65.5 63zM239 238q87 0 172 -22v-67q-29 -43 -76 -63.5t-90 -20.5q-58 0 -87.5 26.5t-29.5 60.5t26.5 60t84.5 26z" />
    <glyph glyph-name="acircumflex.alt" horiz-adv-x="577" 
d="M229 723h102l118 -150h-76l-93 92l-93 -92h-76zM411 81v-81h97v294q0 28 -5.5 55.5t-22 57.5t-42 52.5t-70 37t-101.5 14.5q-132 0 -199 -70l36 -70q68 54 155 54q38 0 69 -10t54.5 -39t23.5 -74v-19q-67 25 -176 25q-96 0 -147.5 -44t-51.5 -113q0 -76 57.5 -119
t141.5 -43q63 0 115.5 29t65.5 63zM239 238q87 0 172 -22v-67q-29 -43 -76 -63.5t-90 -20.5q-58 0 -87.5 26.5t-29.5 60.5t26.5 60t84.5 26z" />
    <glyph glyph-name="acute.case" horiz-adv-x="361" 
d="M168 904h103l-98 -139h-83z" />
    <glyph glyph-name="adieresis.alt" horiz-adv-x="577" 
d="M104 648q0 27 18 45t44 18q27 0 45 -18t18 -45q0 -26 -18 -44t-45 -18q-26 0 -44 18t-18 44zM318 648q0 27 18 45t44 18q27 0 45 -18t18 -45q0 -26 -18 -44t-45 -18q-26 0 -44 18t-18 44zM411 81v-81h97v294q0 28 -5.5 55.5t-22 57.5t-42 52.5t-70 37t-101.5 14.5
q-132 0 -199 -70l36 -70q68 54 155 54q38 0 69 -10t54.5 -39t23.5 -74v-19q-67 25 -176 25q-96 0 -147.5 -44t-51.5 -113q0 -76 57.5 -119t141.5 -43q63 0 115.5 29t65.5 63zM239 238q87 0 172 -22v-67q-29 -43 -76 -63.5t-90 -20.5q-58 0 -87.5 26.5t-29.5 60.5t26.5 60
t84.5 26z" />
    <glyph glyph-name="agrave.alt" horiz-adv-x="577" 
d="M137 723h109l87 -150h-85zM411 81v-81h97v294q0 28 -5.5 55.5t-22 57.5t-42 52.5t-70 37t-101.5 14.5q-132 0 -199 -70l36 -70q68 54 155 54q38 0 69 -10t54.5 -39t23.5 -74v-19q-67 25 -176 25q-96 0 -147.5 -44t-51.5 -113q0 -76 57.5 -119t141.5 -43q63 0 115.5 29
t65.5 63zM239 238q87 0 172 -22v-67q-29 -43 -76 -63.5t-90 -20.5q-58 0 -87.5 26.5t-29.5 60.5t26.5 60t84.5 26z" />
    <glyph glyph-name="amacron.alt" horiz-adv-x="577" 
d="M150 679h279v-76h-279v76zM411 0v81q-13 -34 -65.5 -63t-115.5 -29q-84 0 -141.5 43t-57.5 119q0 69 51.5 113t147.5 44q109 0 176 -25v19q0 45 -23.5 74t-54.5 39t-69 10q-87 0 -155 -54l-36 70q67 70 199 70q57 0 101.5 -14.5t70 -37t42 -52.5t22 -57.5t5.5 -55.5v-294
h-97zM239 238q-58 0 -84.5 -26t-26.5 -60t29.5 -60.5t87.5 -26.5q43 0 90 20.5t76 63.5v67q-85 22 -172 22z" />
    <glyph glyph-name="aogonek.alt" horiz-adv-x="577" 
d="M411 4v77q-13 -34 -65.5 -63t-115.5 -29q-84 0 -141.5 43t-57.5 119q0 69 51.5 113t147.5 44q109 0 176 -25v19q0 45 -23.5 74t-54.5 39t-69 10q-87 0 -155 -54l-36 70q67 70 199 70q57 0 101.5 -14.5t70 -37t42 -52.5t22 -57.5t5.5 -55.5v-294h-36q-63 -32 -63 -90
q0 -28 18 -44.5t41 -16.5q55 0 82 59l43 -24q-12 -47 -46.5 -77t-81.5 -30q-49 0 -88 29t-39 84q0 74 73 114zM239 238q-58 0 -84.5 -26t-26.5 -60t29.5 -60.5t87.5 -26.5q43 0 90 20.5t76 63.5v67q-85 22 -172 22z" />
    <glyph glyph-name="aring.alt" horiz-adv-x="577" 
d="M168 678q0 44 30.5 75t74.5 31t75 -31t31 -75t-31 -74.5t-75 -30.5q-43 0 -74 30.5t-31 74.5zM218 678q0 -23 16 -39t39 -16t39 16t16 39t-16 39t-39 16t-39 -16t-16 -39zM411 81v-81h97v294q0 28 -5.5 55.5t-22 57.5t-42 52.5t-70 37t-101.5 14.5q-132 0 -199 -70
l36 -70q68 54 155 54q38 0 69 -10t54.5 -39t23.5 -74v-19q-67 25 -176 25q-96 0 -147.5 -44t-51.5 -113q0 -76 57.5 -119t141.5 -43q63 0 115.5 29t65.5 63zM239 238q87 0 172 -22v-67q-29 -43 -76 -63.5t-90 -20.5q-58 0 -87.5 26.5t-29.5 60.5t26.5 60t84.5 26z" />
    <glyph glyph-name="aringacute.alt" horiz-adv-x="578" 
d="M295 842h98l-67 -85q59 -25 59 -89q0 -44 -30 -71t-76 -27q-45 0 -75 27t-30 71q0 35 21 60.5t54 34.5zM224 668q0 -23 15.5 -35.5t39.5 -12.5t39.5 12.5t15.5 35.5t-15.5 35.5t-39.5 12.5t-39.5 -12.5t-15.5 -35.5zM411 81v-81h97v294q0 28 -5.5 55.5t-22 57.5t-42 52.5
t-70 37t-101.5 14.5q-132 0 -199 -70l36 -70q68 54 155 54q38 0 69 -10t54.5 -39t23.5 -74v-19q-67 25 -176 25q-96 0 -147.5 -44t-51.5 -113q0 -76 57.5 -119t141.5 -43q63 0 115.5 29t65.5 63zM239 238q87 0 172 -22v-67q-29 -43 -76 -63.5t-90 -20.5q-58 0 -87.5 26.5
t-29.5 60.5t26.5 60t84.5 26z" />
    <glyph glyph-name="at.case" horiz-adv-x="1035" 
d="M772 151q62 2 97.5 59.5t35.5 175.5q0 161 -107.5 264.5t-278.5 103.5q-170 0 -282.5 -116t-112.5 -289t105.5 -288t272.5 -115q122 0 201 39l34 -66q-101 -48 -235 -48q-202 0 -329 135t-127 343q0 207 134.5 343.5t338.5 136.5q207 0 335.5 -123.5t128.5 -319.5
q0 -157 -56 -230t-155 -73q-132 0 -132 131q-21 -43 -69 -67t-98 -24q-92 0 -151 65.5t-59 160.5t60 160t154 65q101 0 157 -84v74h84v-350q0 -31 15.5 -47.5t38.5 -15.5zM347 349q0 -65 39.5 -108.5t103.5 -43.5q63 0 103 41t40 109q0 67 -40 110t-105 43t-103 -43
t-38 -108z" />
    <glyph glyph-name="atilde.alt" horiz-adv-x="578" 
d="M342 592q-24 0 -62.5 25t-55.5 25q-48 0 -39 -50h-45q-11 54 11 86.5t73 32.5q21 0 58 -24t60 -24q49 0 39 48h45q16 -48 -8.5 -83.5t-75.5 -35.5zM411 81v-81h97v294q0 28 -5.5 55.5t-22 57.5t-42 52.5t-70 37t-101.5 14.5q-132 0 -199 -70l36 -70q68 54 155 54
q38 0 69 -10t54.5 -39t23.5 -74v-19q-67 25 -176 25q-96 0 -147.5 -44t-51.5 -113q0 -76 57.5 -119t141.5 -43q63 0 115.5 29t65.5 63zM239 238q87 0 172 -22v-67q-29 -43 -76 -63.5t-90 -20.5q-58 0 -87.5 26.5t-29.5 60.5t26.5 60t84.5 26z" />
    <glyph glyph-name="bitcoin" horiz-adv-x="592" 
d="M347 772v-101q80 -12 127 -56.5t47 -106.5q0 -52 -29 -92t-87 -57q72 -8 110 -53t38 -106q0 -75 -56.5 -122t-147.5 -51v-99h-53v99h-65v-99h-53v99h-105v648h105v97h53v-97h63v97h53zM170 106h165q52 0 85 26.5t33 70.5q0 48 -34 80t-113 32h-136v-209zM306 596h-136
v-205h136q115 6 115 110q0 44 -33 69.5t-82 25.5z" />
    <glyph glyph-name="braceleft.case" horiz-adv-x="336" 
d="M160 354v-4v-4q32 -5 48.5 -31.5t16.5 -59.5t-29.5 -112.5t-29.5 -121.5q0 -72 62 -72q31 0 64 4v-67q-50 -6 -73 -6q-62 0 -104 33.5t-42 98.5q0 45 30.5 137t34.5 112q2 14 2 17q0 29 -42 37l-51 9v52l51 9q42 8 42 37q0 3 -2 17q-4 18 -34.5 111t-30.5 138q0 66 42 99
t104 33q23 0 73 -6v-67q-33 4 -64 4q-62 0 -62 -72q0 -43 29.5 -122t29.5 -112t-16.5 -59.5t-48.5 -31.5z" />
    <glyph glyph-name="braceright.case" horiz-adv-x="336" 
d="M176 346v4v4q-32 5 -48.5 31.5t-16.5 59.5t29.5 112t29.5 122q0 72 -62 72q-31 0 -64 -4v67q50 6 73 6q62 0 104 -33t42 -99q0 -45 -30.5 -138t-34.5 -111q-2 -14 -2 -17q0 -29 42 -37l51 -9v-52l-51 -9q-42 -8 -42 -37q0 -3 2 -17q4 -20 34.5 -112t30.5 -137
q0 -65 -42 -98.5t-104 -33.5q-23 0 -73 6v67q33 -4 64 -4q62 0 62 72q0 42 -29.5 121.5t-29.5 112.5t16.5 59.5t48.5 31.5z" />
    <glyph glyph-name="bracketleft.case" horiz-adv-x="342" 
d="M77 -119v939h229v-76h-140v-787h140v-76h-229z" />
    <glyph glyph-name="bracketright.case" horiz-adv-x="342" 
d="M265 820v-939h-229v76h140v787h-140v76h229z" />
    <glyph glyph-name="breve.case" horiz-adv-x="443" 
d="M294 903l59 -4q-6 -66 -45 -100t-87 -34t-86.5 34t-44.5 100l59 4q15 -75 72 -75q58 0 73 75z" />
    <glyph glyph-name="bullet.case" horiz-adv-x="397" 
d="M78 350q0 50 35 85t85 35t85.5 -35t35.5 -85t-35.5 -85t-85.5 -35t-85 34.5t-35 85.5z" />
    <glyph glyph-name="caron.case" horiz-adv-x="500" 
d="M301 765h-102l-109 139h76l84 -86l84 86h76z" />
    <glyph glyph-name="cedilla.case" horiz-adv-x="435" 
d="M231 9v8h41q73 -54 73 -127q0 -55 -39 -84t-88 -29q-47 0 -81.5 30t-46.5 77l43 24q27 -59 82 -59q23 0 41 16.5t18 44.5q0 50 -43 99z" />
    <glyph glyph-name="cent.case" horiz-adv-x="554" 
d="M261 0h-57l20 104q-84 26 -130 90.5t-46 149.5q0 112 71.5 187.5t196.5 79.5l18 89h57l-18 -93q75 -13 135 -57l-46 -66q-44 32 -104 39l-63 -345q18 -3 38 -3q75 0 129 41l46 -66q-81 -61 -179 -61q-29 0 -50 4zM145 350q0 -109 96 -155l59 328q-69 -10 -112 -57
t-43 -116z" />
    <glyph glyph-name="cent.dnom" horiz-adv-x="298" 
d="M115 -53l7 54q-43 15 -68.5 48t-25.5 77q0 54 35.5 90.5t94.5 41.5l7 54h34l-7 -55q42 -5 78 -31l-22 -43q-27 23 -63 26l-22 -165q46 0 79 27l30 -43q-59 -43 -116 -33l-6 -48h-35zM92 126q0 -43 38 -71l20 152q-25 -8 -41.5 -30t-16.5 -51z" />
    <glyph glyph-name="cent.numr" horiz-adv-x="299" 
d="M115 347l7 54q-43 15 -68.5 48t-25.5 77q0 54 35.5 90.5t94.5 41.5l7 54h34l-7 -55q42 -5 78 -31l-22 -43q-27 23 -63 26l-22 -165q46 0 79 27l30 -43q-59 -43 -116 -33l-6 -48h-35zM92 526q0 -43 38 -71l20 152q-25 -8 -41.5 -30t-16.5 -51z" />
    <glyph glyph-name="circumflex.case" horiz-adv-x="500" 
d="M199 904h102l109 -139h-76l-84 86l-84 -86h-76z" />
    <glyph glyph-name="comma.dnom" horiz-adv-x="176" 
d="M55 -75l-11 24q51 17 51 57q-22 -8 -35.5 3.5t-14.5 30.5q-1 18 9.5 30t30.5 12q26 0 36.5 -17.5t10.5 -36.5q0 -42 -18.5 -66t-58.5 -37z" />
    <glyph glyph-name="comma.numr" horiz-adv-x="176" 
d="M55 266l-11 24q51 17 51 57q-22 -8 -35.5 3.5t-14.5 30.5q-1 18 9.5 30t30.5 12q26 0 36.5 -17.5t10.5 -36.5q0 -42 -18.5 -66t-58.5 -37z" />
    <glyph glyph-name="commaaccent.case" horiz-adv-x="321" 
d="M119 -293l-17 36q43 14 60.5 35t17.5 52q-33 -11 -56 6t-23 44q-1 28 16 46t48 18q39 0 57 -27t18 -55q0 -117 -121 -155z" />
    <glyph glyph-name="dieresis.case" horiz-adv-x="519" 
d="M90 827q0 27 18 45t44 18q27 0 45 -18t18 -45q0 -26 -18 -44t-45 -18q-26 0 -44 18t-18 44zM304 827q0 27 18 45t44 18q27 0 45 -18t18 -45q0 -26 -18 -44t-45 -18q-26 0 -44 18t-18 44z" />
    <glyph glyph-name="dollar.dnom" horiz-adv-x="313" 
d="M174 -48h-30v45q-49 2 -81 27.5t-41 63.5l57 16q4 -21 22 -36.5t43 -18.5v102l-21 8q-87 35 -87 97q0 41 31 67.5t77 29.5v42h30v-42q84 -10 101 -85l-55 -17q-9 38 -46 49v-97l21 -8q41 -15 66.5 -42t25.5 -54q0 -44 -30.5 -71t-82.5 -31v-45zM221 95q0 27 -47 45v-89
q47 8 47 44zM102 257q0 -14 7.5 -23t34.5 -18v85q-18 -4 -30 -15.5t-12 -28.5z" />
    <glyph glyph-name="dollar.numr" horiz-adv-x="315" 
d="M175 302h-30v45q-49 2 -81 27.5t-41 63.5l57 16q4 -21 22 -36.5t43 -18.5v102l-21 8q-87 35 -87 97q0 41 31 67.5t77 29.5v42h30v-42q84 -10 101 -85l-55 -17q-9 38 -46 49v-97l21 -8q41 -15 66.5 -42t25.5 -54q0 -44 -30.5 -71t-82.5 -31v-45zM222 445q0 27 -47 45v-89
q47 8 47 44zM103 607q0 -14 7.5 -23t34.5 -18v85q-18 -4 -30 -15.5t-12 -28.5z" />
    <glyph glyph-name="dotaccent.case" horiz-adv-x="310" 
d="M90 830q0 27 18.5 46t46.5 19q27 0 46 -19t19 -46q0 -28 -19 -46.5t-46 -18.5q-28 0 -46.5 18.5t-18.5 46.5z" />
    <glyph glyph-name="eight.dnom" horiz-adv-x="350" 
d="M175 44q35 0 57 17.5t22 42.5t-20 42t-57 17h-4q-38 0 -58 -16.5t-20 -42.5q0 -25 22 -42.5t58 -17.5zM175 307q-29 0 -47 -13.5t-18 -34.5q0 -22 16 -37.5t47 -15.5h4q30 0 46 15.5t16 37.5q0 21 -17.5 34.5t-46.5 13.5zM175 -6q-63 0 -104 32t-41 78q0 28 22 52t58 32
q-31 9 -48 29t-17 42q0 42 36.5 70t93.5 28t93.5 -28t36.5 -70q0 -22 -17.5 -42t-48.5 -29q37 -8 59 -32t22 -52q0 -46 -41.5 -78t-103.5 -32z" />
    <glyph glyph-name="eight.numr" horiz-adv-x="350" 
d="M175 391q35 0 57 17.5t22 42.5t-20 42t-57 17h-4q-38 0 -58 -16.5t-20 -42.5q0 -25 22 -42.5t58 -17.5zM175 654q-29 0 -47 -13.5t-18 -34.5q0 -22 16 -37.5t47 -15.5h4q30 0 46 15.5t16 37.5q0 21 -17.5 34.5t-46.5 13.5zM175 341q-63 0 -104 32t-41 78q0 28 22 52
t58 32q-31 9 -48 29t-17 42q0 42 36.5 70t93.5 28t93.5 -28t36.5 -70q0 -22 -17.5 -42t-48.5 -29q37 -8 59 -32t22 -52q0 -46 -41.5 -78t-103.5 -32z" />
    <glyph glyph-name="eight.oldstyle" horiz-adv-x="652" 
d="M326 75q78 0 128 30.5t50 78.5q0 44 -47 75.5t-127 31.5h-8q-80 0 -127 -31.5t-47 -75.5q0 -48 50 -78.5t128 -30.5zM326 -11q-121 0 -197.5 53.5t-76.5 135.5q0 50 37 94.5t96 64.5q-49 21 -78 55.5t-29 74.5q0 73 70.5 123t177.5 50t177.5 -50t70.5 -123
q0 -40 -29 -74.5t-78 -55.5q59 -20 96 -64.5t37 -94.5q0 -82 -76.5 -135.5t-197.5 -53.5zM326 554q-70 0 -110 -23t-40 -64t38 -70.5t108 -29.5h7q70 0 108.5 29.5t38.5 70.5t-40 64t-110 23z" />
    <glyph glyph-name="eight.taboldstyle" horiz-adv-x="680" 
d="M340 75q78 0 128 30.5t50 78.5q0 44 -47 75.5t-127 31.5h-8q-80 0 -127 -31.5t-47 -75.5q0 -48 50 -78.5t128 -30.5zM340 -11q-121 0 -197.5 53.5t-76.5 135.5q0 50 37 94.5t96 64.5q-49 21 -78 55.5t-29 74.5q0 73 70.5 123t177.5 50t177.5 -50t70.5 -123
q0 -40 -29 -74.5t-78 -55.5q59 -20 96 -64.5t37 -94.5q0 -82 -76.5 -135.5t-197.5 -53.5zM340 554q-70 0 -110 -23t-40 -64t38 -70.5t108 -29.5h7q70 0 108.5 29.5t38.5 70.5t-40 64t-110 23z" />
    <glyph glyph-name="eight.tnum" horiz-adv-x="680" 
d="M340 75q80 0 130.5 37.5t50.5 92.5q0 53 -46.5 90t-130.5 37h-8q-84 0 -130.5 -36.5t-46.5 -90.5q0 -55 50.5 -92.5t130.5 -37.5zM340 -11q-120 0 -199.5 62.5t-79.5 153.5q0 54 38 101t99 69q-48 21 -77.5 60t-29.5 84q0 82 70.5 137t178.5 55t178.5 -55t70.5 -137
q0 -45 -29.5 -84t-77.5 -60q61 -22 99 -69t38 -101q0 -91 -79.5 -153.5t-199.5 -62.5zM340 625q-68 0 -109.5 -30t-41.5 -76t38.5 -80.5t108.5 -34.5h7q69 0 108.5 34.5t39.5 80.5t-41.5 76t-109.5 30z" />
    <glyph glyph-name="emdash.case" horiz-adv-x="804" 
d="M71 306v89h662v-89h-662z" />
    <glyph glyph-name="endash.case" horiz-adv-x="575" 
d="M71 306v89h433v-89h-433z" />
    <glyph glyph-name="exclamdown.case" horiz-adv-x="268" 
d="M190 0l-22 481h-70l-22 -481h114zM62 638q0 31 21 52t52 21t52.5 -21t21.5 -52t-21.5 -52.5t-52.5 -21.5t-52 21.5t-21 52.5z" />
    <glyph glyph-name="five.dnom" horiz-adv-x="323" 
d="M157 47q39 0 58.5 20t19.5 52q0 27 -19 47t-53 20q-41 0 -79 -25q-7 2 -22.5 11.5t-21.5 11.5l9 169h220v-49h-164l-5 -90q23 19 74 19q54 0 89 -33.5t35 -80.5q0 -57 -37.5 -91t-106.5 -34q-72 0 -123 46l35 41q37 -34 91 -34z" />
    <glyph glyph-name="five.numr" horiz-adv-x="323" 
d="M157 394q39 0 58.5 20t19.5 52q0 27 -19 47t-53 20q-41 0 -79 -25q-6 2 -21.5 11.5t-22.5 11.5l9 169h220v-49h-164l-5 -90q23 19 74 19q54 0 89 -33.5t35 -80.5q0 -57 -37.5 -91t-106.5 -34q-72 0 -123 46l35 41q37 -34 91 -34z" />
    <glyph glyph-name="five.oldstyle" horiz-adv-x="586" 
d="M280 -55q81 0 127 38t46 96q0 55 -40.5 93.5t-114.5 38.5q-98 0 -163 -58l-73 38l22 309h412v-82h-328l-13 -176q69 53 155 53q103 0 171.5 -60.5t68.5 -155.5q0 -94 -69 -157t-197 -63q-142 0 -241 86l57 64q89 -64 180 -64z" />
    <glyph glyph-name="five.taboldstyle" horiz-adv-x="680" 
d="M327 -55q81 0 127 38t46 96q0 55 -40.5 93.5t-114.5 38.5q-98 0 -163 -58l-73 38l22 309h412v-82h-328l-13 -176q69 53 155 53q103 0 171.5 -60.5t68.5 -155.5q0 -94 -69 -157t-197 -63q-142 0 -241 86l57 64q89 -64 180 -64z" />
    <glyph glyph-name="five.tnum" horiz-adv-x="680" 
d="M87 70l57 64q22 -22 79.5 -39.5t102.5 -17.5q88 0 133.5 44.5t45.5 112.5q0 58 -43 101t-122 43q-93 0 -164 -52l-69 31l22 343h419v-82h-331l-17 -207q57 55 153 55q111 0 178.5 -68.5t67.5 -163.5q0 -111 -72.5 -178t-202.5 -67q-74 0 -136.5 23t-100.5 58z" />
    <glyph glyph-name="florin.dnom" horiz-adv-x="259" 
d="M160 161v-178q0 -99 -94 -99q-24 0 -44 13l19 38q8 -4 21 -4q31 0 31 46v184h-39v33h39v64q0 99 94 99q24 0 44 -13l-19 -38q-8 4 -21 4q-31 0 -31 -46v-70h64v-33h-64z" />
    <glyph glyph-name="florin.numr" horiz-adv-x="260" 
d="M161 508v-178q0 -99 -94 -99q-24 0 -44 13l19 38q8 -4 21 -4q31 0 31 46v184h-39v33h39v64q0 99 94 99q24 0 44 -13l-19 -38q-8 4 -21 4q-31 0 -31 -46v-70h64v-33h-64z" />
    <glyph glyph-name="florininferior" horiz-adv-x="259" 
d="M160 21v-178q0 -99 -94 -99q-24 0 -44 13l19 38q8 -4 21 -4q31 0 31 46v184h-39v33h39v64q0 99 94 99q24 0 44 -13l-19 -38q-8 4 -21 4q-31 0 -31 -46v-70h64v-33h-64z" />
    <glyph glyph-name="florinsuperior" horiz-adv-x="259" 
d="M160 613v-178q0 -99 -94 -99q-24 0 -44 13l19 38q8 -4 21 -4q31 0 31 46v184h-39v33h39v64q0 99 94 99q24 0 44 -13l-19 -38q-8 4 -21 4q-31 0 -31 -46v-70h64v-33h-64z" />
    <glyph glyph-name="four.dnom" horiz-adv-x="343" 
d="M85 141h103v114zM188 93h-172v35l193 225h43v-212h72v-48h-72v-93h-64v93z" />
    <glyph glyph-name="four.numr" horiz-adv-x="343" 
d="M85 488h103v114zM188 440h-172v35l193 225h43v-212h72v-48h-72v-93h-64v93z" />
    <glyph glyph-name="four.oldstyle" horiz-adv-x="641" 
d="M140 114h236v236zM376 35h-350v63l387 402h60v-386h134v-79h-134v-165h-97v165z" />
    <glyph glyph-name="four.taboldstyle" horiz-adv-x="680" 
d="M159 114h236v236zM395 35h-350v63l387 402h60v-386h134v-79h-134v-165h-97v165z" />
    <glyph glyph-name="four.tnum" horiz-adv-x="680" 
d="M149 271h248v268zM397 188h-370v65l407 447h60v-429h153v-83h-153v-188h-97v188z" />
    <glyph glyph-name="g.alt" horiz-adv-x="581" 
d="M415 318q0 54 -36.5 81.5t-91.5 27.5q-56 0 -95 -28t-39 -80t39 -80.5t96 -28.5q55 0 91 27.5t36 80.5zM289 -157q73 0 122 20t49 54q0 47 -69 51l-179 5q-43 0 -62 14q-18 -6 -30.5 -24.5t-12.5 -36.5q0 -83 182 -83zM483 409q29 -41 29 -93q0 -64 -35.5 -108t-85 -62
t-107.5 -18q-57 0 -105 20q-36 -26 -36 -47q0 -41 83 -41l180 -4q42 0 73.5 -13.5t47 -35.5t22.5 -43t7 -41q0 -64 -66.5 -111t-196.5 -47q-278 0 -278 144q0 29 15 56.5t28 39t24 18.5q-25 28 -25 67q0 48 60 95q-30 28 -45.5 57.5t-15.5 75.5q0 51 21.5 90.5t56 60.5
t72 31.5t76.5 10.5q95 0 154 -43q50 9 26 69h88q20 -42 1.5 -82t-68.5 -46z" />
    <glyph glyph-name="gbreve.alt" horiz-adv-x="580" 
d="M356 722l63 -5q-5 -75 -45 -109.5t-92 -34.5t-92 34.5t-45 109.5l63 5q6 -77 74 -77t74 77zM414 318q0 54 -36.5 81.5t-91.5 27.5q-56 0 -95 -28t-39 -80t39 -80.5t96 -28.5q55 0 91 27.5t36 80.5zM288 -157q73 0 122 20t49 54q0 47 -69 51l-179 5q-43 0 -62 14
q-18 -6 -30.5 -24.5t-12.5 -36.5q0 -83 182 -83zM482 409q29 -41 29 -93q0 -64 -35.5 -108t-85 -62t-107.5 -18q-57 0 -105 20q-36 -26 -36 -47q0 -41 83 -41l180 -4q42 0 73.5 -13.5t47 -35.5t22.5 -43t7 -41q0 -64 -66.5 -111t-196.5 -47q-278 0 -278 144q0 29 15 56.5
t28 39t24 18.5q-25 28 -25 67q0 48 60 95q-30 28 -45.5 57.5t-15.5 75.5q0 51 21.5 90.5t56 60.5t72 31.5t76.5 10.5q95 0 154 -43q50 9 26 69h88q20 -42 1.5 -82t-68.5 -46z" />
    <glyph glyph-name="gcircumflex.alt" horiz-adv-x="580" 
d="M231 723h102l118 -150h-76l-93 92l-93 -92h-76zM414 318q0 54 -36.5 81.5t-91.5 27.5q-56 0 -95 -28t-39 -80t39 -80.5t96 -28.5q55 0 91 27.5t36 80.5zM288 -157q73 0 122 20t49 54q0 47 -69 51l-179 5q-43 0 -62 14q-18 -6 -30.5 -24.5t-12.5 -36.5q0 -83 182 -83z
M482 409q29 -41 29 -93q0 -64 -35.5 -108t-85 -62t-107.5 -18q-57 0 -105 20q-36 -26 -36 -47q0 -41 83 -41l180 -4q42 0 73.5 -13.5t47 -35.5t22.5 -43t7 -41q0 -64 -66.5 -111t-196.5 -47q-278 0 -278 144q0 29 15 56.5t28 39t24 18.5q-25 28 -25 67q0 48 60 95
q-30 28 -45.5 57.5t-15.5 75.5q0 51 21.5 90.5t56 60.5t72 31.5t76.5 10.5q95 0 154 -43q50 9 26 69h88q20 -42 1.5 -82t-68.5 -46z" />
    <glyph glyph-name="gcommaaccent.alt" horiz-adv-x="580" 
d="M414 318q0 54 -36.5 81.5t-91.5 27.5q-56 0 -95 -28t-39 -80t39 -80.5t96 -28.5q55 0 91 27.5t36 80.5zM288 -157q73 0 122 20t49 54q0 47 -69 51l-179 5q-43 0 -62 14q-18 -6 -30.5 -24.5t-12.5 -36.5q0 -83 182 -83zM482 409q29 -41 29 -93q0 -64 -35.5 -108t-85 -62
t-107.5 -18q-57 0 -105 20q-36 -26 -36 -47q0 -41 83 -41l180 -4q42 0 73.5 -13.5t47 -35.5t22.5 -43t7 -41q0 -64 -66.5 -111t-196.5 -47q-278 0 -278 144q0 29 15 56.5t28 39t24 18.5q-25 28 -25 67q0 48 60 95q-30 28 -45.5 57.5t-15.5 75.5q0 51 21.5 90.5t56 60.5
t72 31.5t76.5 10.5q95 0 154 -43q50 9 26 69h88q20 -42 1.5 -82t-68.5 -46zM339 812l17 -36q-43 -14 -60.5 -35t-17.5 -52q33 11 56 -6t23 -44q1 -28 -16 -46t-48 -18q-39 0 -57 27t-18 55q0 117 121 155z" />
    <glyph glyph-name="gdotaccent.alt" horiz-adv-x="580" 
d="M214 643q0 29 19 48.5t48 19.5t48.5 -19.5t19.5 -48.5t-19.5 -48t-48.5 -19t-48 19t-19 48zM414 318q0 54 -36.5 81.5t-91.5 27.5q-56 0 -95 -28t-39 -80t39 -80.5t96 -28.5q55 0 91 27.5t36 80.5zM288 -157q73 0 122 20t49 54q0 47 -69 51l-179 5q-43 0 -62 14
q-18 -6 -30.5 -24.5t-12.5 -36.5q0 -83 182 -83zM482 409q29 -41 29 -93q0 -64 -35.5 -108t-85 -62t-107.5 -18q-57 0 -105 20q-36 -26 -36 -47q0 -41 83 -41l180 -4q42 0 73.5 -13.5t47 -35.5t22.5 -43t7 -41q0 -64 -66.5 -111t-196.5 -47q-278 0 -278 144q0 29 15 56.5
t28 39t24 18.5q-25 28 -25 67q0 48 60 95q-30 28 -45.5 57.5t-15.5 75.5q0 51 21.5 90.5t56 60.5t72 31.5t76.5 10.5q95 0 154 -43q50 9 26 69h88q20 -42 1.5 -82t-68.5 -46z" />
    <glyph glyph-name="grave.case" horiz-adv-x="361" 
d="M90 904h103l78 -139h-83z" />
    <glyph glyph-name="guillemotleft.case" horiz-adv-x="575" 
d="M264 342v16l186 213l59 -46l-152 -175l152 -174l-59 -46zM54 342v16l186 213l59 -46l-152 -175l152 -174l-59 -46z" />
    <glyph glyph-name="guillemotright.case" horiz-adv-x="575" 
d="M311 358v-16l-186 -212l-59 46l152 174l-152 175l59 46zM521 358v-16l-186 -212l-59 46l152 174l-152 175l59 46z" />
    <glyph glyph-name="guilsinglleft.case" horiz-adv-x="365" 
d="M54 342v16l186 213l59 -46l-152 -175l152 -174l-59 -46z" />
    <glyph glyph-name="guilsinglright.case" horiz-adv-x="365" 
d="M311 358v-16l-186 -212l-59 46l152 174l-152 175l59 46z" />
    <glyph glyph-name="hungarumlaut.case" horiz-adv-x="514" 
d="M170 904h91l-86 -139h-85zM333 904h91l-86 -139h-85z" />
    <glyph glyph-name="hyphen.case" horiz-adv-x="476" 
d="M71 306v89h334v-89h-334z" />
    <glyph glyph-name="hyphen.dnom" horiz-adv-x="286" 
d="M45 139v52h196v-52h-196z" />
    <glyph glyph-name="hyphen.numr" horiz-adv-x="286" 
d="M45 475v52h196v-52h-196z" />
    <glyph glyph-name="macron.case" horiz-adv-x="459" 
d="M90 858h279v-76h-279v76z" />
    <glyph glyph-name="nine.dnom" horiz-adv-x="342" 
d="M153 45q38 0 66.5 34.5t31.5 89.5q-16 -24 -45 -36.5t-58 -12.5q-48 0 -84 34.5t-36 85.5q0 52 37 85.5t97 33.5q70 0 109 -47.5t39 -126.5q0 -82 -42 -136.5t-115 -54.5q-71 0 -107 43l42 37q23 -29 65 -29zM241 239q0 31 -22 49t-56 18q-32 0 -52 -18t-20 -49t20 -49
t52 -18q33 0 55.5 18.5t22.5 48.5z" />
    <glyph glyph-name="nine.numr" horiz-adv-x="342" 
d="M153 390q38 0 66.5 34.5t31.5 89.5q-16 -24 -45 -36.5t-58 -12.5q-48 0 -84 34.5t-36 85.5q0 52 37 85.5t97 33.5q70 0 109 -47.5t39 -126.5q0 -82 -42 -136.5t-115 -54.5q-71 0 -107 43l42 37q23 -29 65 -29zM241 584q0 31 -22 49t-56 18q-32 0 -52 -18t-20 -49t20 -49
t52 -18q33 0 55.5 18.5t22.5 48.5z" />
    <glyph glyph-name="nine.oldstyle" horiz-adv-x="615" 
d="M277 82q-97 0 -168.5 60t-71.5 155q0 91 70 152.5t181 61.5q132 0 205.5 -84.5t73.5 -226.5q0 -148 -78 -244t-218 -96q-127 0 -197 70l66 57q39 -40 128 -40q93 0 150 68t57 178q-27 -54 -81.5 -82.5t-116.5 -28.5zM284 166q74 0 122 36.5t48 96.5q0 57 -47.5 91.5
t-111.5 34.5q-71 0 -116 -37t-45 -91q0 -61 45 -96t105 -35z" />
    <glyph glyph-name="nine.taboldstyle" horiz-adv-x="680" 
d="M309 82q-97 0 -168.5 60t-71.5 155q0 91 70 152.5t181 61.5q132 0 205.5 -84.5t73.5 -226.5q0 -148 -78 -244t-218 -96q-127 0 -197 70l66 57q39 -40 128 -40q93 0 150 68t57 178q-27 -54 -81.5 -82.5t-116.5 -28.5zM316 166q74 0 122 36.5t48 96.5q0 57 -47.5 91.5
t-111.5 34.5q-71 0 -116 -37t-45 -91q0 -61 45 -96t105 -35z" />
    <glyph glyph-name="nine.tnum" horiz-adv-x="680" 
d="M507 358q-28 -60 -81.5 -87t-111.5 -27q-102 0 -174 65t-72 169q0 102 71 167.5t182 65.5q132 0 205.5 -94t73.5 -251q0 -163 -78.5 -270t-217.5 -107q-124 0 -195 78l65 59q19 -23 55 -36t74 -13q90 0 147 79t57 202zM490 477q0 64 -47.5 105t-116.5 41
q-68 0 -114 -40.5t-46 -105.5t46 -105.5t114 -40.5q69 0 116.5 41t47.5 105z" />
    <glyph glyph-name="ogonek.case" horiz-adv-x="435" 
d="M204 17v-8q-43 -49 -43 -99q0 -28 18 -44.5t41 -16.5q55 0 82 59l43 -24q-12 -47 -46.5 -77t-81.5 -30q-49 0 -88 29t-39 84q0 73 73 127h41z" />
    <glyph glyph-name="one.dnom" horiz-adv-x="212" 
d="M28 247l-16 49l121 57h35v-353h-66v280z" />
    <glyph glyph-name="one.numr" horiz-adv-x="212" 
d="M28 594l-16 49l121 57h35v-353h-66v280z" />
    <glyph glyph-name="one.oldstyle" horiz-adv-x="537" 
d="M69 315l-25 81l250 104h49v-418h168v-82h-438v82h173v300z" />
    <glyph glyph-name="one.taboldstyle" horiz-adv-x="680" 
d="M140 315l-25 81l250 104h49v-418h168v-82h-438v82h173v300z" />
    <glyph glyph-name="one.tnum" horiz-adv-x="680" 
d="M411 700v-618h171v-82h-451v82h183v500l-159 -71l-25 81l232 108h49z" />
    <glyph glyph-name="parenleft.case" horiz-adv-x="326" 
d="M234 828l62 -38q-149 -214 -149 -440q0 -75 15 -146t43 -130.5t46 -90.5t45 -72l-62 -37q-26 28 -53 66t-59 99t-52 143t-20 170q0 87 20 168.5t52 142t59 99.5t53 66z" />
    <glyph glyph-name="parenleft.dnom" horiz-adv-x="200" 
d="M133 418l33 -23q-66 -103 -66 -220q0 -116 66 -219l-33 -23q-33 33 -64 98.5t-31 144.5q0 78 31 143.5t64 98.5z" />
    <glyph glyph-name="parenleft.numr" horiz-adv-x="200" 
d="M133 756l33 -23q-66 -103 -66 -220q0 -116 66 -219l-33 -23q-33 33 -64 98.5t-31 144.5q0 78 31 143.5t64 98.5z" />
    <glyph glyph-name="parenright.case" horiz-adv-x="326" 
d="M30 788l62 38q26 -27 53 -66t59 -99.5t52 -142t20 -168.5q0 -88 -20 -170t-52 -143t-59 -99t-53 -66l-62 37q27 41 45 72t46 90.5t43 130.5t15 146q0 226 -149 440z" />
    <glyph glyph-name="parenright.dnom" horiz-adv-x="200" 
d="M34 395l33 23q33 -33 64 -98.5t31 -143.5q0 -79 -31 -144.5t-64 -98.5l-33 23q66 103 66 219q0 117 -66 220z" />
    <glyph glyph-name="parenright.numr" horiz-adv-x="200" 
d="M34 733l33 23q33 -33 64 -98.5t31 -143.5q0 -79 -31 -144.5t-64 -98.5l-33 23q66 103 66 219q0 117 -66 220z" />
    <glyph glyph-name="period.dnom" horiz-adv-x="177" 
d="M43 34q0 17 13 29t32 12t32.5 -12t13.5 -29t-13.5 -28.5t-32.5 -11.5t-32 11.5t-13 28.5z" />
    <glyph glyph-name="period.numr" horiz-adv-x="177" 
d="M43 381q0 17 13 29t32 12t32.5 -12t13.5 -29t-13.5 -28.5t-32.5 -11.5t-32 11.5t-13 28.5z" />
    <glyph glyph-name="periodcentered.case" horiz-adv-x="289" 
d="M71 350q0 31 21 52.5t52 21.5t52.5 -21.5t21.5 -52.5t-21.5 -52t-52.5 -21t-52 21t-21 52z" />
    <glyph glyph-name="questiondown.case" horiz-adv-x="523" 
d="M245 481h90q0 -66 -9 -85.5t-55 -46.5q-70 -42 -100.5 -77t-30.5 -85v-3q0 -51 36 -81t99 -30q57 0 89 25.5t32 70.5q0 16 -4 31h87q8 -18 8 -45q0 -28 -12 -56t-36.5 -53t-68 -41t-100.5 -16q-100 0 -166 53.5t-66 141.5q0 28 7.5 53.5t22.5 47.5t29 39t36.5 34t35 26
t34 22.5t24.5 15.5q12 8 15 19t3 40zM363 638q0 -31 -21 -52.5t-52 -21.5t-52.5 21.5t-21.5 52.5t21.5 52t52.5 21t52 -21t21 -52z" />
    <glyph glyph-name="ring.case" horiz-adv-x="391" 
d="M90 848q0 44 30 72.5t75 28.5q46 0 76 -28t30 -73q0 -44 -30.5 -72t-75.5 -28t-75 28t-30 72zM140 848q0 -23 16 -39t39 -16t39 16t16 39t-16 38.5t-39 15.5t-39 -15.5t-16 -38.5z" />
    <glyph glyph-name="seven.dnom" horiz-adv-x="287" 
d="M20 304v49h256v-37l-159 -316h-71l158 304h-184z" />
    <glyph glyph-name="seven.numr" horiz-adv-x="286" 
d="M19 651v49h256v-37l-159 -316h-71l158 304h-184z" />
    <glyph glyph-name="seven.oldstyle" horiz-adv-x="535" 
d="M24 418v82h497v-68l-311 -562h-107l312 548h-391z" />
    <glyph glyph-name="seven.taboldstyle" horiz-adv-x="680" 
d="M96 418v82h497v-68l-311 -562h-107l312 548h-391z" />
    <glyph glyph-name="seven.tnum" horiz-adv-x="680" 
d="M97 618v82h502v-68l-350 -632h-107l351 618h-396z" />
    <glyph glyph-name="six.dnom" horiz-adv-x="342" 
d="M189 308q-38 0 -66.5 -34.5t-31.5 -89.5q16 24 45 36.5t58 12.5q49 0 84.5 -34.5t35.5 -85.5q0 -52 -37 -85.5t-97 -33.5q-70 0 -109 47.5t-39 126.5q0 82 42 136.5t115 54.5q71 0 107 -43l-42 -37q-23 29 -65 29zM101 114q0 -31 22 -49t56 -18q32 0 52 18t20 49t-20 49
t-52 18q-33 0 -55.5 -18.5t-22.5 -48.5z" />
    <glyph glyph-name="six.numr" horiz-adv-x="342" 
d="M189 653q-38 0 -66.5 -34.5t-31.5 -89.5q16 24 45 36.5t58 12.5q49 0 84.5 -34.5t35.5 -85.5q0 -52 -37 -85.5t-97 -33.5q-70 0 -109 47.5t-39 126.5q0 82 42 136.5t115 54.5q71 0 107 -43l-42 -37q-23 29 -65 29zM101 459q0 -31 22 -49t56 -18q32 0 52 18t20 49t-20 49
t-52 18q-33 0 -55.5 -18.5t-22.5 -48.5z" />
    <glyph glyph-name="six.oldstyle" horiz-adv-x="630" 
d="M345 418q97 0 168.5 -60t71.5 -155q0 -91 -70 -152.5t-181 -61.5q-132 0 -206 84.5t-74 226.5q0 147 79 243.5t218 96.5q127 0 197 -70l-66 -57q-39 40 -128 40q-93 0 -150 -68t-57 -178q26 54 81 82.5t117 28.5zM338 334q-74 0 -122 -36t-48 -97q0 -57 47.5 -91.5
t111.5 -34.5q71 0 116 37t45 91q0 61 -45 96t-105 35z" />
    <glyph glyph-name="six.taboldstyle" horiz-adv-x="680" 
d="M370 418q97 0 168.5 -60t71.5 -155q0 -91 -70 -152.5t-181 -61.5q-132 0 -206 84.5t-74 226.5q0 147 79 243.5t218 96.5q127 0 197 -70l-66 -57q-39 40 -128 40q-93 0 -150 -68t-57 -178q26 54 81 82.5t117 28.5zM363 334q-74 0 -122 -36t-48 -97q0 -57 47.5 -91.5
t111.5 -34.5q71 0 116 37t45 91q0 61 -45 96t-105 35z" />
    <glyph glyph-name="six.tnum" horiz-adv-x="680" 
d="M177 357q67 99 192 99q102 0 174 -65t72 -169q0 -102 -71 -167.5t-182 -65.5q-132 0 -208 94.5t-76 250.5q0 163 78.5 270t217.5 107q124 0 195 -78l-65 -59q-19 23 -55 36t-74 13q-86 0 -142 -72.5t-56 -193.5zM188 223q0 -64 50.5 -105t118.5 -41t114 40.5t46 105.5
t-46 105.5t-114 40.5t-118.5 -41t-50.5 -105z" />
    <glyph glyph-name="sterling.dnom" horiz-adv-x="346" 
d="M192 308q-27 0 -43 -14t-16 -36q0 -35 23 -85h93q0 -5 -0.5 -14t-0.5 -15h-82q6 -21 6 -38q0 -36 -36 -58l1 -1q9 0 23 0.5t24.5 0.5h11.5h121v-48h-289v48q26 0 43 5t24 15t9 18.5t2 21.5q0 16 -6 36h-63q0 6 0.5 15t0.5 14h51l-2 10q-21 52 -21 75q0 46 34 72.5
t89 26.5q58 0 87.5 -26.5t29.5 -59.5q0 -15 -10 -37h-62q9 20 9 36q0 17 -14 27.5t-37 10.5z" />
    <glyph glyph-name="sterling.numr" horiz-adv-x="346" 
d="M192 655q-27 0 -43 -14t-16 -36q0 -35 23 -85h93q0 -6 -0.5 -15t-0.5 -14h-82q6 -21 6 -38q0 -36 -36 -58l1 -1h23t24.5 0.5t11.5 0.5h121v-48h-289v48q26 0 43 5t24 15t9 18.5t2 21.5q0 17 -6 36h-63q0 5 0.5 14t0.5 15h51l-2 10q-21 52 -21 75q0 46 34 72.5t89 26.5
q58 0 87.5 -26.5t29.5 -59.5q0 -14 -10 -37h-62q9 20 9 36q0 17 -14 27.5t-37 10.5z" />
    <glyph glyph-name="sterlinginferior" horiz-adv-x="346" 
d="M192 168q-27 0 -43 -14t-16 -36q0 -35 23 -85h93q0 -5 -0.5 -14.5t-0.5 -14.5h-82q6 -21 6 -38q0 -36 -36 -58l1 -1q9 0 23 0.5t24.5 0.5h11.5h121v-48h-289v48q26 0 43 5t24 15t9 18.5t2 21.5q0 16 -6 36h-63q0 5 0.5 14.5t0.5 14.5h51l-2 10q-21 52 -21 75
q0 46 34 72.5t89 26.5q58 0 87.5 -26.5t29.5 -59.5q0 -14 -10 -37h-62q9 20 9 36q0 17 -14 27.5t-37 10.5z" />
    <glyph glyph-name="sterlingsuperior" horiz-adv-x="346" 
d="M192 760q-27 0 -43 -14t-16 -36q0 -35 23 -85h93q0 -5 -0.5 -14t-0.5 -15h-82q6 -21 6 -38q0 -36 -36 -58l1 -1q9 0 23 0.5t24.5 0.5h11.5h121v-48h-289v48q26 0 43 5t24 15t9 18.5t2 21.5q0 16 -6 36h-63q0 6 0.5 15t0.5 14h51l-2 10q-21 52 -21 75q0 46 34 72.5
t89 26.5q58 0 87.5 -26.5t29.5 -59.5q0 -15 -10 -37h-62q9 20 9 36q0 17 -14 27.5t-37 10.5z" />
    <glyph glyph-name="three.dnom" horiz-adv-x="327" 
d="M24 40l35 43q39 -36 93 -36q36 0 57 19t21 47q0 29 -22 49.5t-52 20.5t-51 -12l-27 33l111 100h-153v49h249v-35l-102 -94q51 -5 81 -36t30 -77q0 -51 -38 -84t-105 -33q-76 0 -127 46z" />
    <glyph glyph-name="three.numr" horiz-adv-x="327" 
d="M24 387l35 43q39 -36 93 -36q36 0 57 19t21 47q0 29 -22 49.5t-52 20.5t-51 -12l-27 33l111 100h-153v49h249v-35l-102 -94q51 -5 81 -36t30 -77q0 -51 -38 -84t-105 -33q-76 0 -127 46z" />
    <glyph glyph-name="three.oldstyle" horiz-adv-x="594" 
d="M274 -57q78 0 128 41.5t50 95.5q0 52 -41 88t-105 36t-100 -25l-44 57l205 187h-307v77h464v-58l-205 -169q92 2 159 -50.5t67 -141.5q0 -93 -71 -157t-199 -64q-153 0 -242 81l57 64q84 -62 184 -62z" />
    <glyph glyph-name="three.taboldstyle" horiz-adv-x="680" 
d="M317 -57q78 0 128 41.5t50 95.5q0 52 -41 88t-105 36t-100 -25l-44 57l205 187h-307v77h464v-58l-205 -169q92 2 159 -50.5t67 -141.5q0 -93 -71 -157t-199 -64q-153 0 -242 81l57 64q84 -62 184 -62z" />
    <glyph glyph-name="three.tnum" horiz-adv-x="680" 
d="M313 77q86 0 134 47t48 105q0 60 -45.5 100t-112.5 40q-64 0 -101 -33l-48 57l230 225h-318v82h469v-61l-212 -195q94 0 164.5 -57.5t70.5 -156.5q0 -104 -74.5 -172.5t-204.5 -68.5q-153 0 -242 81l57 64q46 -34 85.5 -45.5t99.5 -11.5z" />
    <glyph glyph-name="tilde.case" horiz-adv-x="475" 
d="M346 902l44 -13q-14 -56 -34.5 -80t-53.5 -24q-23 0 -66.5 20t-58.5 20q-17 0 -26.5 -10.5t-21.5 -38.5l-44 13q14 56 34.5 80t53.5 24q23 0 66.5 -20t58.5 -20q17 0 26.5 10.5t21.5 38.5z" />
    <glyph glyph-name="two.dnom" horiz-adv-x="335" 
d="M227 128l-92 -76h25.5t25.5 0.5t12 0.5h110v-53h-269l-7 38l150 129q43 38 43 77q0 27 -16 41.5t-44 14.5q-33 0 -49 -16.5t-16 -37.5h-69q0 41 33 76t101 35q58 0 91 -32.5t33 -79.5q0 -62 -62 -117z" />
    <glyph glyph-name="two.numr" horiz-adv-x="335" 
d="M227 475l-92 -76q11 0 25.5 0.5t25.5 0.5h12h110v-53h-269l-7 38l150 129q43 38 43 77q0 27 -16 41.5t-44 14.5q-33 0 -49 -16.5t-16 -37.5h-69q0 41 33 76t101 35q58 0 91 -32.5t33 -79.5q0 -62 -62 -117z" />
    <glyph glyph-name="two.oldstyle" horiz-adv-x="605" 
d="M364 82h193v-82h-503l-5 55l299 190q54 34 73.5 55.5t19.5 50.5q0 81 -146 81q-67 0 -104 -22t-37 -58h-96q0 27 12 53.5t37.5 51t75 39.5t115.5 15q106 0 173 -40.5t67 -113.5q0 -60 -38.5 -104t-124.5 -92l-138 -80v-6q64 7 127 7z" />
    <glyph glyph-name="two.taboldstyle" horiz-adv-x="680" 
d="M401 82h193v-82h-503l-5 55l299 190q54 34 73.5 55.5t19.5 50.5q0 81 -146 81q-67 0 -104 -22t-37 -58h-96q0 27 12 53.5t37.5 51t75 39.5t115.5 15q106 0 173 -40.5t67 -113.5q0 -60 -38.5 -104t-124.5 -92l-138 -80v-6q64 7 127 7z" />
    <glyph glyph-name="two.tnum" horiz-adv-x="680" 
d="M239 82v-4q45 4 158 4h204v-82h-502l-13 64l291 263q99 85 99 166q0 62 -40 97t-107 35q-79 0 -112 -35.5t-33 -80.5h-99q0 32 12 65t38.5 65t76.5 52t117 20q112 0 178 -58.5t66 -157.5q0 -73 -33 -124t-95 -106z" />
    <glyph glyph-name="uni02C9.case" horiz-adv-x="459" 
d="M90 859h279v-76h-279v76z" />
    <glyph glyph-name="y.alt" horiz-adv-x="554" 
d="M282 127l142 373h113l-184 -433q-4 -8 -15 -36.5t-19 -46.5t-23.5 -48.5t-30.5 -51.5t-38 -45t-47 -39t-57 -25t-70 -10q-66 0 -125 41l31 79q45 -32 94 -32q36 0 64.5 14t49.5 40.5t34 50.5t28 59l-211 483h111z" />
    <glyph glyph-name="yacute.alt" horiz-adv-x="554" 
d="M282 127l142 373h113l-184 -433q-4 -8 -15 -36.5t-19 -46.5t-23.5 -48.5t-30.5 -51.5t-38 -45t-47 -39t-57 -25t-70 -10q-66 0 -125 41l31 79q45 -32 94 -32q36 0 64.5 14t49.5 40.5t34 50.5t28 59l-211 483h111zM304 723h109l-111 -150h-85z" />
    <glyph glyph-name="ycircumflex.alt" horiz-adv-x="554" 
d="M282 127l142 373h113l-184 -433q-4 -8 -15 -36.5t-19 -46.5t-23.5 -48.5t-30.5 -51.5t-38 -45t-47 -39t-57 -25t-70 -10q-66 0 -125 41l31 79q45 -32 94 -32q36 0 64.5 14t49.5 40.5t34 50.5t28 59l-211 483h111zM232 723h102l118 -150h-76l-93 92l-93 -92h-76z" />
    <glyph glyph-name="ydieresis.alt" horiz-adv-x="554" 
d="M282 127l142 373h113l-184 -433q-4 -8 -15 -36.5t-19 -46.5t-23.5 -48.5t-30.5 -51.5t-38 -45t-47 -39t-57 -25t-70 -10q-66 0 -125 41l31 79q45 -32 94 -32q36 0 64.5 14t49.5 40.5t34 50.5t28 59l-211 483h111zM108 648q0 27 18 45t44 18q27 0 45 -18t18 -45
q0 -26 -18 -44t-45 -18q-26 0 -44 18t-18 44zM322 648q0 27 18 45t44 18q27 0 45 -18t18 -45q0 -26 -18 -44t-45 -18q-26 0 -44 18t-18 44z" />
    <glyph glyph-name="yen.dnom" horiz-adv-x="382" 
d="M56 180h79l-114 165v8h73l97 -158l97 158h73v-8l-114 -165h79v-29h-96l-6 -7v-35h102v-29h-102v-80h-66v80h-102v29h102v35l-6 7h-96v29z" />
    <glyph glyph-name="yen.numr" horiz-adv-x="382" 
d="M56 527h79l-114 165v8h73l97 -158l97 158h73v-8l-114 -165h79v-29h-96l-6 -7v-35h102v-29h-102v-80h-66v80h-102v29h102v35l-6 7h-96v29z" />
    <glyph glyph-name="yeninferior" horiz-adv-x="382" 
d="M56 40h79l-114 165v8h73l97 -158l97 158h73v-8l-114 -165h79v-29h-96l-6 -7v-35h102v-29h-102v-80h-66v80h-102v29h102v35l-6 7h-96v29z" />
    <glyph glyph-name="yensuperior" horiz-adv-x="382" 
d="M56 632h79l-114 165v8h73l97 -158l97 158h73v-8l-114 -165h79v-29h-96l-6 -7v-35h102v-29h-102v-80h-66v80h-102v29h102v35l-6 7h-96v29z" />
    <glyph glyph-name="ygrave.alt" horiz-adv-x="554" 
d="M282 127l142 373h113l-184 -433q-4 -8 -15 -36.5t-19 -46.5t-23.5 -48.5t-30.5 -51.5t-38 -45t-47 -39t-57 -25t-70 -10q-66 0 -125 41l31 79q45 -32 94 -32q36 0 64.5 14t49.5 40.5t34 50.5t28 59l-211 483h111zM149 723h109l87 -150h-85z" />
    <glyph glyph-name="zero.dnom" horiz-adv-x="378" 
d="M347 176q0 -78 -43 -130t-115 -52t-115 52.5t-43 129.5t43 129.5t115 52.5t115 -52t43 -130zM281 176q0 56 -25 90.5t-67 34.5t-67 -34.5t-25 -90.5t25 -90.5t67 -34.5t67 34.5t25 90.5z" />
    <glyph glyph-name="zero.numr" horiz-adv-x="378" 
d="M347 523q0 -78 -43 -130t-115 -52t-115 52.5t-43 129.5t43 129.5t115 52.5t115 -52t43 -130zM281 523q0 56 -25 90.5t-67 34.5t-67 -34.5t-25 -90.5t25 -90.5t67 -34.5t67 34.5t25 90.5z" />
    <glyph glyph-name="zero.oldstyle" horiz-adv-x="678" 
d="M630 250q0 -111 -79.5 -186t-211.5 -75t-211 75t-79 186t79 186t211 75t211.5 -75t79.5 -186zM533 250q0 75 -53 126t-141 51t-140.5 -51t-52.5 -126t52.5 -126t140.5 -51t141 51t53 126z" />
    <glyph glyph-name="zero.taboldstyle" horiz-adv-x="680" 
d="M631 250q0 -111 -79.5 -186t-211.5 -75t-211 75t-79 186t79 186t211 75t211.5 -75t79.5 -186zM534 250q0 75 -53 126t-141 51t-140.5 -51t-52.5 -126t52.5 -126t140.5 -51t141 51t53 126z" />
    <glyph glyph-name="zero.tnum" horiz-adv-x="680" 
d="M642 350q0 -154 -82.5 -257.5t-219.5 -103.5t-219 103.5t-82 257.5q0 155 82 258.5t219 103.5t219.5 -104t82.5 -258zM545 350q0 118 -55.5 197t-149.5 79q-93 0 -148.5 -79t-55.5 -197q0 -117 55.5 -196t148.5 -79t149 78.5t56 196.5z" />
    </font>
</defs>
</svg>
